<svg version="1.1" id="Layer_1" xmlns="http://www.w3.org/2000/svg" xmlns:xlink="http://www.w3.org/1999/xlink" x="0px" y="0px"
	 width="100%" viewBox="0 0 816 768" enable-background="new 0 0 816 768" xml:space="preserve">
<path fill="#ff99b48f" opacity="1.000000" stroke="none" 
	d="
M1.000000,606.468628 
	C3.027749,604.312988 3.657856,601.783508 4.588448,599.534241 
	C7.274563,593.042053 12.200171,588.702393 17.877651,585.054016 
	C21.354387,582.819885 24.768461,581.632568 26.171932,588.268921 
	C36.166416,582.619507 46.925327,583.941528 57.402447,583.532471 
	C57.262371,579.940613 54.989464,580.304932 53.383148,579.918640 
	C46.114605,578.170532 39.182465,580.239319 32.223034,581.915710 
	C30.299181,582.379150 28.215302,583.319031 26.619099,581.482788 
	C25.165003,579.809998 26.422623,578.005981 26.942133,576.294617 
	C29.567665,567.645813 36.242195,562.410950 43.074806,557.369202 
	C44.670639,556.191650 46.598953,555.478821 47.422916,553.410950 
	C46.730125,550.638550 44.010815,550.492737 42.134392,549.318787 
	C31.090906,542.409607 25.551258,534.065002 28.711626,523.136353 
	C30.703226,516.249329 36.204006,512.034668 42.136189,509.139221 
	C51.174618,504.727631 61.016415,502.828888 71.148178,502.738770 
	C82.298119,502.639648 93.311295,502.711182 104.194542,506.247742 
	C114.355644,509.549591 122.279144,515.892212 130.212585,522.478333 
	C130.944458,523.085876 131.381805,524.152466 132.585846,524.065125 
	C133.024368,515.908691 131.028107,512.984375 123.640549,510.865234 
	C120.091011,509.847076 116.816612,508.214050 113.691917,506.267456 
	C107.052925,502.131378 99.730614,500.167816 92.021492,499.380951 
	C88.757133,499.047729 85.976021,497.760590 85.976547,494.019440 
	C85.977066,490.276550 88.271980,487.989471 91.795334,486.799988 
	C100.352211,483.911163 108.524345,484.909637 116.425850,489.046967 
	C117.591446,489.657288 118.764328,490.253662 120.030594,490.906372 
	C120.104774,484.058990 115.757919,479.542664 108.321457,479.311646 
	C98.406761,479.003662 89.390556,476.083160 80.808182,471.316223 
	C77.264297,469.347870 74.230202,466.793304 71.281349,464.098938 
	C65.398491,458.723755 65.386780,451.525024 67.486099,445.108215 
	C69.503044,438.943176 75.807930,437.834686 82.038094,437.705231 
	C91.833466,437.501740 99.296555,442.240967 105.802444,448.664642 
	C110.862007,453.660309 114.804756,459.652008 118.600800,466.903748 
	C119.792511,462.460999 120.709610,458.911957 121.700188,455.383545 
	C122.831802,451.352722 124.561455,447.612000 127.125648,444.261780 
	C129.995926,440.511658 133.363068,438.113220 138.265610,440.207275 
	C141.037323,441.391174 143.236740,448.242676 142.623215,452.130249 
	C141.192734,461.194427 136.101440,468.059235 129.522552,473.916412 
	C126.518669,476.590790 125.884171,479.037903 127.837799,482.585114 
	C130.436920,487.304382 132.675156,492.222382 135.567642,498.063080 
	C137.423523,492.766846 138.758133,488.721527 140.261032,484.739746 
	C141.609024,481.168274 144.080231,478.462402 147.507492,476.808594 
	C152.961288,474.176910 158.286636,476.789337 159.099579,482.748077 
	C160.193207,490.764069 158.546448,498.005493 151.831619,503.378876 
	C149.234650,505.457062 146.638763,507.543060 144.143723,509.740601 
	C140.822830,512.665466 140.590759,514.151733 142.501877,519.189758 
	C145.511795,516.773499 148.365067,514.305847 151.400650,512.087708 
	C155.936432,508.773285 161.013565,506.936005 166.709534,506.726685 
	C172.542923,506.512268 177.773438,507.376801 180.637451,513.268494 
	C183.341721,518.831604 181.955322,526.367310 177.398300,531.303040 
	C176.955872,531.782227 176.328156,532.090271 175.484573,532.693726 
	C178.383041,535.429626 181.776657,534.967346 184.662964,535.508728 
	C208.858841,540.047607 226.921432,556.084106 229.422043,578.769775 
	C229.980148,583.832947 232.511292,585.853943 236.672653,587.549255 
	C253.379776,594.355408 263.395264,606.778137 266.699921,624.488464 
	C267.309601,627.755859 267.854980,630.489441 271.494995,631.877197 
	C274.530090,633.034363 274.522156,636.028076 273.971863,638.755859 
	C273.402740,641.576904 271.233368,642.207336 268.668701,642.211304 
	C254.172073,642.233765 239.675491,642.331970 225.178909,642.329773 
	C152.527481,642.318726 79.876045,642.281311 7.224617,642.276917 
	C5.406629,642.276794 3.588623,642.551086 1.385312,642.848694 
	C1.000000,630.979126 1.000000,618.958191 1.000000,606.468628 
M159.713638,613.637878 
	C165.920349,610.988525 172.259186,608.603455 178.284088,605.590576 
	C181.880493,603.792114 181.951965,599.181885 178.954773,596.847961 
	C173.774078,592.813721 157.245285,592.902832 152.333786,597.029724 
	C151.150879,598.023682 149.940582,599.492859 150.769699,600.907654 
	C153.305344,605.234314 153.874405,610.884155 159.713638,613.637878 
M87.973984,551.417358 
	C77.702477,549.884583 67.401680,548.029785 57.696846,552.728516 
	C57.734772,553.725464 57.772697,554.722351 57.810619,555.719299 
	C69.686401,551.878845 81.501884,553.814331 93.899315,555.848633 
	C92.851288,551.922302 90.454048,552.322449 87.973984,551.417358 
M146.596329,543.915466 
	C145.536621,544.437012 144.296021,545.004883 144.643936,546.409790 
	C145.067627,548.120667 146.688477,547.853760 147.952881,547.799500 
	C155.107208,547.492371 162.214752,547.324524 168.740692,551.078430 
	C169.599808,551.572632 170.693451,551.609192 171.833740,549.447876 
	C164.459442,544.106262 155.783508,544.233337 146.596329,543.915466 
z"/>
<path fill="#ff99b48f" opacity="1.000000" stroke="none" 
	d="
M817.000000,642.531372 
	C814.769714,642.047791 812.408142,642.307800 810.090027,642.307983 
	C742.101746,642.312866 674.113525,642.333069 606.125244,642.354675 
	C592.801025,642.358948 579.476807,642.386902 566.152588,642.386841 
	C562.950500,642.386841 559.316650,642.651733 558.869812,638.263672 
	C558.478333,634.419739 561.250427,632.461670 564.564758,631.835144 
	C567.925598,631.199890 568.644653,629.304016 568.946045,626.268066 
	C570.775879,607.836060 580.769714,595.263184 597.444519,587.900024 
	C601.992004,585.892029 604.850586,583.041138 605.588928,578.145081 
	C608.693237,557.560059 621.792175,545.917480 640.255188,538.688171 
	C648.450378,535.479309 657.157410,535.458069 666.119995,533.568420 
	C663.557190,530.033569 661.031250,527.132507 660.260376,523.020447 
	C658.570312,514.004517 663.087097,507.726990 672.301758,506.663300 
	C680.416748,505.726562 687.390381,508.090607 693.704102,513.036255 
	C695.515564,514.455139 696.996460,516.378723 699.657227,517.153809 
	C702.353333,514.908203 702.270508,512.462097 699.787476,510.150421 
	C697.725159,508.230408 695.373413,506.618011 693.125183,504.901672 
	C687.351868,500.494354 684.118164,494.636505 683.842834,487.427032 
	C683.650574,482.393066 685.736816,478.275452 690.712830,476.303375 
	C695.546204,474.387848 698.511292,477.445435 701.445557,480.589478 
	C705.505127,484.939240 706.226379,490.657074 707.639709,496.514801 
	C710.889832,495.192993 711.200562,492.265594 712.690613,490.283234 
	C718.294067,482.828735 720.465271,476.118286 711.681458,468.853088 
	C706.487366,464.557007 704.683167,457.745148 704.260925,450.816223 
	C703.964355,445.948822 705.976807,441.521271 709.737427,440.018188 
	C714.072327,438.285583 716.763855,439.683197 720.448547,444.765076 
	C724.974854,451.007629 726.197693,458.333649 727.397583,465.697296 
	C729.276489,465.185425 729.346069,463.876831 729.877197,462.904266 
	C736.000488,451.692230 744.882202,443.436371 756.749451,438.709045 
	C761.630798,436.764526 766.985901,437.096954 771.979858,438.439178 
	C777.377380,439.889893 780.513672,446.221558 779.940796,452.473541 
	C779.021179,462.511566 772.657410,468.183746 764.313904,472.182495 
	C754.898804,476.694794 744.945679,479.131592 734.450928,479.299561 
	C728.895203,479.388458 726.331116,482.265381 724.300415,490.489014 
	C728.580139,488.662231 732.563232,486.708832 736.916687,485.685699 
	C742.611206,484.347321 748.105103,484.373260 753.529297,486.776276 
	C757.277222,488.436646 759.560974,491.365570 759.286865,495.294495 
	C759.034058,498.918762 755.418091,498.960846 752.685608,499.365570 
	C743.432922,500.735992 734.510132,503.102509 726.082275,507.272369 
	C724.177246,508.214935 722.004517,508.796204 719.890930,509.104950 
	C712.620178,510.167084 708.781433,516.005432 710.466858,523.719482 
	C711.365356,524.191467 712.097534,523.761353 712.710449,523.192688 
	C731.853577,505.432312 754.992920,501.428925 779.989929,503.324371 
	C788.350220,503.958282 795.811157,506.838379 803.124817,510.552338 
	C815.678406,516.927124 818.110291,536.043945 806.933594,544.089417 
	C802.243408,547.465698 796.929626,549.882874 792.383179,553.440674 
	C795.010010,559.259399 797.248169,564.542114 804.287109,565.901672 
	C807.749268,566.570374 809.667603,570.103027 811.388000,573.239075 
	C812.968445,576.119995 813.594666,579.571838 816.686829,581.875488 
	C817.000000,602.020874 817.000000,622.041809 817.000000,642.531372 
M760.764099,585.261230 
	C754.294250,588.234619 747.192749,590.256958 742.583252,596.647339 
	C745.733582,598.796204 747.509705,596.814209 749.320374,595.582703 
	C767.115479,583.479187 786.358948,580.874756 806.884033,586.772644 
	C809.094910,587.408020 810.768738,587.594604 811.397705,584.665466 
	C809.079895,582.451111 806.117676,581.821289 803.234070,581.308105 
	C789.004272,578.775635 775.078613,580.111633 760.764099,585.261230 
M654.407654,559.800598 
	C662.682922,553.685669 672.589783,552.624695 682.398071,550.984558 
	C672.830017,546.643005 664.409912,550.231018 656.333435,554.588379 
	C649.594238,558.224304 644.435120,563.589172 641.626587,570.850708 
	C646.748840,568.362915 649.759277,563.722839 654.407654,559.800598 
M774.014648,555.909485 
	C777.309448,556.026062 780.615723,558.714905 784.371277,556.221191 
	C774.026917,548.452332 737.615295,553.039185 734.472961,563.265137 
	C747.175476,557.348633 759.775818,554.327332 774.014648,555.909485 
z"/>
<path fill="#ff99b48f" opacity="1.000000" stroke="none" 
	d="
M597.776123,135.503784 
	C586.840393,168.991638 566.056396,196.133789 545.344849,223.310089 
	C535.953857,235.632294 526.066223,247.552261 515.861206,259.210022 
	C514.675476,260.564575 513.693298,262.097260 512.736145,263.386505 
	C513.444336,265.935913 515.449768,266.704742 517.008667,267.853760 
	C539.899780,284.725891 558.797852,304.973907 570.825562,331.097839 
	C580.378601,351.846863 586.370239,373.520264 583.887512,396.420441 
	C580.655945,426.227600 566.983643,450.709137 543.220398,469.411438 
	C533.451416,477.099823 522.660522,482.910583 511.513641,488.196381 
	C508.985992,489.394989 506.478729,490.636536 503.789490,491.942139 
	C504.683807,495.038116 507.003967,496.523926 508.898224,498.243744 
	C521.804321,509.961182 536.181091,519.541687 551.671143,527.498840 
	C557.953918,530.726257 563.551392,534.811218 567.833435,540.573914 
	C576.858887,552.720215 574.656006,567.387878 562.140259,575.851624 
	C558.789062,578.117859 557.916382,580.083618 559.364624,584.026978 
	C567.256653,605.515747 554.815002,631.417480 533.169495,639.049072 
	C528.773071,640.599182 524.372192,642.009583 519.614624,642.212402 
	C514.523376,642.429443 512.948792,645.309082 515.347717,649.997864 
	C518.682190,656.515198 522.261292,662.875305 524.684875,669.854004 
	C526.572144,675.288757 527.393311,680.424377 524.664062,685.779236 
	C524.064575,686.955566 522.807800,688.506470 524.419861,689.855957 
	C526.107300,691.268433 527.496643,689.900879 528.935425,689.122681 
	C533.602722,686.598694 538.467346,686.322510 543.427246,688.078918 
	C545.748535,688.901001 547.121338,690.358826 545.939819,693.052063 
	C544.052612,697.353760 541.856567,701.498779 538.409546,704.742493 
	C533.064514,709.772217 525.466553,709.055359 521.170227,703.470032 
	C518.487000,699.981873 513.813843,698.936768 510.455139,699.586670 
	C497.289154,702.134216 485.831726,698.211243 474.550537,692.280640 
	C463.328217,686.380981 453.367828,679.063965 446.505615,668.168030 
	C445.068237,665.885681 443.264832,664.992249 440.708740,665.174072 
	C434.733215,665.599243 428.754761,665.983582 422.779785,666.415771 
	C405.823761,667.642273 389.217224,665.400940 372.866943,661.116211 
	C369.069092,660.120972 365.913452,660.405640 362.363037,662.142639 
	C347.071869,669.623718 333.377838,679.825317 318.307709,687.672729 
	C310.113129,691.939819 301.564484,694.490662 292.373901,692.681702 
	C283.176758,690.871521 278.115448,684.231934 274.879547,675.932678 
	C270.344360,664.301025 273.681366,653.671814 279.269043,643.463013 
	C286.600861,630.067688 296.838501,619.223816 309.506073,610.779663 
	C313.685089,607.993896 315.580048,604.967957 313.872711,599.967224 
	C312.682190,596.480286 312.649963,592.777283 312.670776,589.095276 
	C312.682739,586.982117 312.858704,584.741455 310.896454,582.791199 
	C305.373077,585.200073 300.190430,588.580383 294.064453,589.778687 
	C277.493774,593.020142 260.786774,579.957947 262.041656,564.275024 
	C262.658020,556.571899 266.560242,549.981689 271.413391,544.196106 
	C279.757141,534.249268 288.434845,524.581604 297.018829,514.837646 
	C302.304260,508.837982 307.709686,502.943878 312.984436,496.934998 
	C314.264374,495.476898 315.975006,494.215607 316.215729,491.551361 
	C312.161285,488.040466 306.790466,486.504059 302.000488,484.005219 
	C275.100311,469.971741 255.221573,449.641846 244.851318,420.739960 
	C239.576202,406.038239 238.573624,390.800446 240.197479,375.413971 
	C244.913376,330.729828 267.710815,296.681824 302.765442,269.959534 
	C310.156952,264.324982 310.218536,264.277924 304.461670,257.360046 
	C281.976044,230.339645 259.599426,203.233780 242.005020,172.617081 
	C233.028824,156.997269 224.857132,141.031128 221.497360,123.057831 
	C216.070648,94.027206 225.667801,60.198658 257.629822,47.807987 
	C272.144379,42.181149 285.993042,44.093575 299.682068,50.394817 
	C319.381470,59.462734 334.059998,74.168732 345.968567,91.877602 
	C360.516846,113.511932 370.181946,137.234299 376.630280,162.478943 
	C382.292755,184.647003 385.758026,207.080261 387.208923,229.857101 
	C387.459717,233.794418 389.189758,235.116653 392.874146,234.948975 
	C405.176788,234.388962 417.483246,233.555893 429.790649,234.882599 
	C433.474640,235.279724 434.617798,233.519730 434.875153,229.950943 
	C436.707550,204.539886 439.979431,179.338730 446.868958,154.730988 
	C454.017242,129.199036 464.046173,104.985710 480.830261,84.142471 
	C493.277069,68.685448 507.451691,55.217003 526.603699,48.175781 
	C552.798462,38.545326 578.960876,48.135559 593.202148,72.371841 
	C602.948669,88.958809 604.267334,106.567978 600.346863,124.939995 
	C599.618713,128.352066 598.722473,131.728241 597.776123,135.503784 
M546.785950,570.540100 
	C549.609314,569.557861 552.545349,568.814392 555.233154,567.545105 
	C561.362549,564.650574 564.508301,554.661316 560.630798,549.578369 
	C557.747742,545.798950 554.702881,542.120300 550.352173,539.558533 
	C530.536438,527.890686 510.816406,516.041748 495.131042,498.756653 
	C493.029205,496.440491 490.570984,496.055145 487.434723,496.895325 
	C481.673767,498.438660 475.947388,500.545502 469.821899,500.052582 
	C466.958374,499.822144 464.431122,498.588013 464.116638,495.456787 
	C463.823151,492.534088 466.332733,491.677551 468.633270,490.987183 
	C469.749329,490.652252 470.875031,490.300537 472.022217,490.125366 
	C496.518372,486.385284 517.995789,475.881500 537.250122,460.644562 
	C565.273193,438.468445 577.356384,409.116150 573.347900,373.960602 
	C570.194458,346.304291 558.121643,322.139740 539.423340,301.377960 
	C518.803284,278.482361 494.090240,261.863556 464.704498,252.372574 
	C450.370819,247.743073 435.682648,245.542007 420.598755,244.776398 
	C403.490540,243.908051 386.637787,245.153702 370.043427,248.880936 
	C354.719391,252.322861 340.243713,258.233765 326.627319,266.241669 
	C284.843048,290.815277 257.303650,325.413696 250.754227,374.516785 
	C248.356369,392.494324 250.909683,410.327637 258.621155,426.624084 
	C274.206207,459.559662 302.609070,476.855927 336.301666,486.647064 
	C347.294678,489.841675 358.642120,491.815948 369.826202,494.354004 
	C372.561249,494.974731 375.346619,495.947845 374.897217,499.359467 
	C374.427948,502.922241 371.483093,503.449585 368.414978,503.276215 
	C367.251678,503.210480 366.059021,503.293579 364.929077,503.065125 
	C354.980743,501.053314 344.867279,499.579224 335.174530,496.695831 
	C330.025696,495.164154 327.041718,496.255066 323.895386,499.858002 
	C312.944122,512.398499 301.879944,524.840271 290.907623,537.362488 
	C285.314514,543.745544 279.430847,549.951599 275.284058,557.420166 
	C269.567322,567.716248 276.007874,579.060730 287.794159,579.693909 
	C294.209900,580.038635 299.966156,577.921143 305.078705,574.213318 
	C315.830780,566.415527 323.244202,555.785645 329.762604,544.457031 
	C331.408325,541.596863 333.376190,539.216431 336.854462,541.131531 
	C340.213562,542.980957 340.392853,545.856445 338.529175,549.236938 
	C334.819489,555.965759 330.418579,562.226257 325.981110,568.463074 
	C324.059875,571.163391 323.313141,574.018494 323.156067,577.307312 
	C322.584961,589.263611 324.150085,600.635925 328.692719,611.952026 
	C333.547638,624.046082 340.565491,633.981506 351.609192,640.640259 
	C377.141876,656.035034 405.079285,658.513489 434.027954,655.326172 
	C438.668060,654.815247 440.165009,653.074280 440.076050,648.437378 
	C439.918152,640.209839 441.097504,632.173157 446.906158,625.621338 
	C449.020203,623.236877 451.373474,621.157227 454.634430,623.162354 
	C458.159180,625.329590 456.835876,628.063965 455.089386,630.866699 
	C448.888428,640.817993 448.436646,651.463013 454.610809,661.094238 
	C465.371887,677.880737 480.521179,688.577271 501.144257,689.854431 
	C503.443909,689.996826 505.783447,689.929016 507.994568,688.876099 
	C513.641541,686.187317 516.253052,680.744751 514.744812,674.343567 
	C512.801941,666.097961 508.069244,659.126587 504.072815,651.863037 
	C501.527527,647.237000 502.138428,643.426941 505.082825,639.463440 
	C506.960144,636.936401 508.712463,634.349487 510.092133,631.452637 
	C518.989258,612.771301 517.091187,593.988281 511.011597,575.082825 
	C510.142914,572.381531 508.558472,570.526733 506.242493,568.955933 
	C500.862427,565.307007 495.773376,561.259277 491.077972,556.752014 
	C488.982391,554.740417 487.781281,552.421326 490.074249,549.757568 
	C492.361664,547.100159 495.014526,547.223083 497.598419,549.210815 
	C499.837219,550.933105 501.845367,552.952148 504.047333,554.726013 
	C516.274109,564.575806 529.568481,571.649170 546.785950,570.540100 
M592.090210,102.370026 
	C591.827759,67.549576 553.643250,40.196339 519.209717,62.401272 
	C497.596924,76.338577 482.608276,95.525177 471.348572,118.116951 
	C460.644775,139.593353 454.345367,162.471512 450.249786,185.987595 
	C447.622894,201.070801 445.467621,216.228760 445.049164,231.586823 
	C444.945190,235.402603 446.161041,237.425552 450.033142,238.219559 
	C456.052124,239.453827 462.179443,240.570160 467.918060,242.672348 
	C478.528778,246.559311 489.187378,250.486008 498.854370,256.511261 
	C501.843994,258.374634 504.143402,257.836121 506.266388,255.268616 
	C509.768127,251.033630 513.318298,246.838501 516.799744,242.587021 
	C540.337524,213.842911 564.233826,185.344772 580.776428,151.683243 
	C588.270691,136.433502 593.886841,120.714714 592.090210,102.370026 
M365.631439,239.983643 
	C377.616272,237.865356 378.607666,236.957260 377.812683,228.592850 
	C375.971558,209.222214 373.203644,190.012146 368.836548,171.016632 
	C362.118591,141.795288 351.527649,114.327034 332.599274,90.725769 
	C321.575470,76.980492 308.809174,65.072685 292.188110,58.155109 
	C279.253387,52.771755 266.492371,53.157570 254.320099,60.297215 
	C237.783127,69.996994 231.390549,85.634003 230.268295,103.790657 
	C229.188797,121.255333 234.870148,137.301758 242.530365,152.605209 
	C261.481934,190.466446 289.104889,222.207428 315.349884,254.907181 
	C317.860657,258.035461 320.566650,258.154388 324.122864,256.341370 
	C337.172607,249.688492 350.356567,243.298309 365.631439,239.983643 
M305.596527,627.094055 
	C295.325317,636.260315 287.545013,646.948486 283.978485,660.540344 
	C280.877014,672.360046 288.909943,683.028931 301.155304,682.642639 
	C307.371948,682.446411 312.635559,679.359924 317.878510,676.529053 
	C329.598694,670.200928 340.174347,661.945251 352.116638,655.964722 
	C352.603485,655.720886 352.849213,654.995667 353.149933,654.574890 
	C352.834106,654.059937 352.731201,653.655273 352.481873,653.519470 
	C338.425934,645.865051 328.132446,634.639038 320.949280,620.432739 
	C319.678253,617.919067 317.670380,617.690186 315.562378,619.239502 
	C312.345642,621.603821 309.259277,624.145447 305.596527,627.094055 
M550.718201,592.034851 
	C549.457520,584.328674 546.870056,581.778381 539.464661,581.309753 
	C535.593994,581.064819 531.964172,579.841858 528.245544,578.977722 
	C523.561951,577.889404 522.581299,578.612732 523.688416,583.152222 
	C527.224731,597.651733 527.679016,612.076294 523.302307,626.499207 
	C522.950317,627.659180 522.211365,629.021362 523.254883,630.260071 
	C524.497925,630.785706 525.579651,630.224121 526.666626,629.864746 
	C543.071045,624.441833 551.010010,612.250916 550.718201,592.034851 
z"/>
<path fill="#ff99b48f" opacity="1.000000" stroke="none" 
	d="
M681.442993,237.598480 
	C687.877075,233.486877 691.411011,228.038574 692.208313,220.708771 
	C692.490540,218.114136 693.515564,215.568558 694.430115,213.084747 
	C695.130249,211.183273 696.254761,209.263062 698.628784,209.396820 
	C701.245483,209.544250 702.242737,211.780319 702.646973,213.891876 
	C703.334412,217.482864 704.291443,220.997345 705.093994,224.544754 
	C707.089478,233.364685 713.173157,237.524048 721.092896,239.920273 
	C723.805420,240.740982 726.567810,241.386673 728.965088,242.988678 
	C732.342102,245.245392 732.239990,247.124695 728.675354,249.203186 
	C725.575256,251.010788 722.026306,251.292252 718.659668,252.169678 
	C710.647949,254.257675 706.157410,259.302399 705.111145,267.344208 
	C704.618042,271.133972 703.879761,274.893494 703.194458,278.656128 
	C702.620972,281.804932 700.872559,283.847992 697.499390,283.854523 
	C694.151306,283.861023 693.599060,281.206146 693.151367,278.710541 
	C692.564758,275.440491 692.049500,272.150665 691.683899,268.849365 
	C690.758728,260.496216 686.338074,255.096558 678.300049,252.661469 
	C675.752441,251.889694 673.177063,251.204926 670.648987,250.374802 
	C668.025085,249.513214 664.396301,249.196228 664.440491,245.655350 
	C664.483459,242.211716 667.939636,241.711472 670.670166,240.942490 
	C674.173950,239.955765 677.947815,239.861710 681.442993,237.598480 
z"/>
<path fill="#ff99b48f" opacity="1.000000" stroke="none" 
	d="
M715.692993,687.382568 
	C703.324829,687.449707 691.349548,687.548523 679.374084,687.588440 
	C676.114014,687.599304 672.673035,687.714294 673.381653,682.698242 
	C673.589294,681.228516 672.346191,680.347717 671.517090,679.319824 
	C670.477783,678.031555 669.381958,676.758545 668.552185,675.337769 
	C666.695374,672.158936 665.567932,668.769348 668.586487,665.712280 
	C671.454895,662.807190 674.899780,663.344421 678.293518,664.849548 
	C678.876648,665.108154 679.417908,665.461182 680.078857,665.825928 
	C681.375549,663.718323 680.203369,661.844238 680.032288,659.975830 
	C679.632141,655.605225 679.965820,651.282166 684.509399,649.329102 
	C689.495605,647.185913 692.129700,650.785217 694.411377,654.499756 
	C694.752869,655.055725 695.178406,655.560181 695.616943,656.159363 
	C698.010803,655.302551 698.408752,652.895386 699.701904,651.293640 
	C701.640930,648.892029 704.093750,648.431030 706.854187,648.840942 
	C709.765381,649.273315 710.760132,651.456055 711.540466,654.005676 
	C712.749023,657.954834 711.283997,661.882324 711.467957,665.682800 
	C713.277222,666.652954 714.188110,665.304260 715.289124,664.762878 
	C718.287048,663.288757 721.063538,663.318481 723.521362,665.797180 
	C725.916626,668.212769 726.334473,671.002747 724.801392,674.018433 
	C724.050598,675.495239 723.261658,676.991638 722.242126,678.283569 
	C720.723572,680.207947 718.803406,681.665405 719.486694,684.752808 
	C719.945740,686.826965 717.866333,687.305115 715.692993,687.382568 
z"/>
<path fill="#ff99b48f" opacity="1.000000" stroke="none" 
	d="
M187.269165,159.738754 
	C188.308548,159.979431 188.959534,160.115906 189.609314,160.257858 
	C192.089310,160.799683 194.841583,161.296234 195.038559,164.442810 
	C195.238449,167.636093 192.501419,168.377167 190.110306,169.162399 
	C188.850220,169.576218 187.557571,169.901382 186.265045,170.204346 
	C178.424393,172.042114 173.278717,176.592575 171.639847,184.684952 
	C171.078918,187.454803 170.753143,190.294983 169.924042,192.980850 
	C169.219513,195.263184 167.553024,197.335953 165.083694,197.490738 
	C162.448242,197.655945 161.038956,195.333466 160.193359,193.164215 
	C159.419464,191.179001 159.058319,188.998917 158.753494,186.870590 
	C157.251633,176.384979 153.393463,172.246277 143.180069,170.332275 
	C143.017227,170.301743 142.846924,170.310486 142.684311,170.279129 
	C139.259338,169.618729 135.025482,169.374023 135.098068,164.746429 
	C135.165634,160.438309 139.213684,160.214096 142.495895,159.600845 
	C146.950012,158.768631 151.230530,157.580048 154.474716,154.060913 
	C157.173523,151.133392 158.636459,147.846375 158.852036,143.774704 
	C159.056290,139.916809 159.705429,135.952515 164.955307,135.607162 
	C170.289276,135.256271 170.813004,139.389984 171.261765,142.886353 
	C172.476135,152.347855 177.393829,158.042694 187.269165,159.738754 
z"/>
<path fill="#ff99b48f" opacity="1.000000" stroke="none" 
	d="
M589.885620,706.027161 
	C581.090027,705.678284 572.943970,703.987122 564.889771,702.033447 
	C559.577026,700.744690 556.929871,696.937805 557.061096,692.386719 
	C557.232788,686.433411 556.188843,685.127563 550.224060,684.031128 
	C547.627502,683.553772 544.930115,683.395264 542.775269,681.089539 
	C544.635559,677.894531 547.697998,678.770447 550.221863,679.072937 
	C560.961304,680.360229 571.672119,681.888611 582.389832,683.354736 
	C587.336182,684.031372 592.254333,685.035889 597.221558,685.406677 
	C603.113464,685.846619 607.376587,689.280273 611.820312,692.471985 
	C614.371643,694.304504 613.714111,696.430664 612.028870,698.479492 
	C609.813538,701.172791 606.733032,702.424805 603.547974,703.495483 
	C599.260620,704.936829 594.857422,705.760986 589.885620,706.027161 
z"/>
<path fill="#ff99b48f" opacity="1.000000" stroke="none" 
	d="
M112.663834,355.026978 
	C107.204941,355.539886 106.028885,351.432404 105.299164,348.097931 
	C103.317375,339.042145 97.162247,334.774445 88.990616,332.496460 
	C86.149010,331.704315 83.185356,330.998840 83.065125,327.488617 
	C82.935547,323.705750 86.010269,322.588013 89.011505,321.857788 
	C98.121422,319.641205 103.678955,313.856171 106.340828,305.014801 
	C107.204849,302.144928 107.973465,298.823212 111.859802,298.963531 
	C115.492393,299.094727 116.710007,302.212677 117.589821,305.077271 
	C120.301819,313.907379 125.739601,319.751160 134.935028,321.863464 
	C137.700027,322.498566 140.072372,324.001434 139.884491,327.224670 
	C139.703369,330.332062 137.352585,331.699585 134.537857,332.301453 
	C125.988998,334.129456 120.391518,339.076416 117.712593,347.523499 
	C116.841545,350.270050 115.978424,353.339569 112.663834,355.026978 
M106.590134,321.071960 
	C104.997749,323.514374 101.503448,324.185883 100.456551,327.493378 
	C104.559593,330.912262 108.409416,334.438263 111.393600,339.541534 
	C114.797043,334.264343 118.665962,330.290466 123.872932,326.532745 
	C118.379120,323.582092 115.134872,319.070068 111.572365,314.456726 
	C109.791328,316.857727 108.423744,318.701385 106.590134,321.071960 
z"/>
<path fill="#ff99b48f" opacity="1.000000" stroke="none" 
	d="
M742.508484,320.384583 
	C745.913635,325.453308 750.319580,328.447845 755.888184,329.837524 
	C758.561340,330.504639 761.112915,331.575653 761.138855,334.915558 
	C761.164307,338.194519 758.759460,339.605011 756.063599,340.187592 
	C747.184082,342.106567 741.882996,347.513794 739.439209,356.155304 
	C738.681824,358.833344 737.526489,361.504242 733.755981,361.383362 
	C730.093872,361.265961 729.657471,358.474579 728.890015,356.009766 
	C726.357727,347.876862 720.795837,342.917938 712.897949,340.229736 
	C710.218018,339.317596 707.140137,338.343384 707.224365,334.826782 
	C707.309082,331.290009 710.424133,330.580963 713.167664,329.784088 
	C720.469910,327.663086 725.784790,323.549591 728.175903,315.940247 
	C729.148621,312.844543 729.493835,308.325195 734.215637,308.554291 
	C738.498779,308.762054 739.265503,312.727173 740.412231,316.035156 
	C740.897583,317.435272 741.661133,318.738983 742.508484,320.384583 
M734.522095,324.032593 
	C730.965332,327.610596 727.835022,331.601379 722.924377,335.017914 
	C728.197388,337.570709 730.769104,341.871002 734.551514,346.056030 
	C737.037781,341.093933 740.982361,338.147369 744.894104,334.713104 
	C740.812744,331.412201 737.592957,328.127441 734.522095,324.032593 
z"/>
<path fill="#ff99b48f" opacity="1.000000" stroke="none" 
	d="
M136.387115,674.430054 
	C137.274033,671.971985 138.764221,670.374634 140.327530,668.881775 
	C144.477859,664.918396 151.415192,666.025940 153.728851,671.212463 
	C155.610413,675.430298 157.633453,679.692383 157.273727,684.797607 
	C159.989822,685.285278 162.599411,685.558411 165.085358,686.265991 
	C166.863068,686.771973 168.443573,687.955261 168.486618,690.124695 
	C168.532623,692.444336 167.143646,693.779602 165.065521,694.496765 
	C162.368820,695.427307 159.594925,695.972900 156.738480,695.984863 
	C148.740433,696.018494 140.741791,696.075562 132.744507,696.001831 
	C130.941193,695.985168 129.067429,695.700989 127.360008,695.135620 
	C125.065392,694.375732 123.043350,693.009094 123.306374,690.150146 
	C123.563759,687.352478 125.510773,686.028564 128.097488,686.014893 
	C131.071533,685.999146 132.310577,684.435425 132.643631,681.806091 
	C132.997253,679.014282 134.760010,676.972351 136.387115,674.430054 
z"/>
<path fill="#ff99b48f" opacity="1.000000" stroke="none" 
	d="
M232.063019,521.957275 
	C230.451752,518.213074 227.149689,518.400940 224.304169,517.723633 
	C221.573807,517.073792 218.220306,516.957886 217.977448,513.254028 
	C217.727646,509.444702 221.086044,508.764313 223.783936,508.278168 
	C229.617340,507.227020 232.668594,503.487946 234.520538,498.299438 
	C235.551849,495.410034 236.606918,492.363281 240.529846,492.802795 
	C244.261566,493.220886 244.976395,496.131561 245.578079,499.269684 
	C246.516983,504.166504 249.818451,506.820465 254.449081,508.457428 
	C257.038330,509.372742 261.294983,509.300476 261.179504,513.222656 
	C261.067627,517.022949 256.873505,516.983826 254.250961,517.766541 
	C249.380463,519.220093 246.703995,522.215637 245.527298,526.991821 
	C244.820816,529.859436 244.343063,533.368774 240.436920,533.420288 
	C236.673096,533.469910 235.038513,530.882812 234.399536,527.320496 
	C234.085983,525.572510 232.971100,523.968323 232.063019,521.957275 
z"/>
<path fill="#ff99b48f" opacity="1.000000" stroke="none" 
	d="
M264.534851,698.636475 
	C262.405182,701.458496 259.609436,701.035095 257.013031,700.914307 
	C251.959473,700.678894 247.126953,701.396423 242.383179,703.206787 
	C236.415741,705.484314 230.560211,703.876038 224.888000,701.963257 
	C222.256729,701.075928 220.558777,698.774414 220.529892,695.839539 
	C220.502853,693.092407 222.093307,691.022522 224.530746,690.015015 
	C231.754303,687.029358 238.921646,683.763428 246.561661,689.441223 
	C249.646866,691.734070 253.628815,691.966858 257.523407,692.117737 
	C261.318634,692.264709 264.989044,693.117493 264.534851,698.636475 
z"/>
<path fill="#ff99b48f" opacity="1.000000" stroke="none" 
	d="
M57.706909,198.361237 
	C57.476059,195.532318 55.404152,194.952194 53.741104,193.887634 
	C49.699154,191.300323 49.752518,187.719543 54.083939,185.602676 
	C56.681240,184.333328 57.791348,182.763367 57.884636,179.885498 
	C57.981636,176.893082 59.208248,174.090149 62.733185,173.993149 
	C66.090454,173.900757 67.102951,176.734085 67.616501,179.391800 
	C68.219894,182.514450 69.250183,184.753815 72.569183,186.145691 
	C75.740074,187.475418 75.583641,191.283966 72.355209,193.277634 
	C69.777367,194.869537 68.005806,196.675201 67.334663,199.681625 
	C66.745033,202.322891 65.852409,205.211090 62.389320,204.901749 
	C58.902779,204.590302 58.029625,201.763702 57.706909,198.361237 
z"/>
<path fill="#ff99b48f" opacity="1.000000" stroke="none" 
	d="
M436.840759,85.081619 
	C438.312042,88.410866 437.364319,90.772018 434.404480,91.837051 
	C431.430420,92.907219 430.428741,95.012505 429.885803,97.795410 
	C429.402679,100.271858 428.063141,102.208046 425.224182,102.102966 
	C422.730377,102.010674 421.323517,100.414612 420.901276,98.019501 
	C420.370239,95.007347 418.521759,93.125999 416.107788,91.378960 
	C412.759338,88.955605 412.804108,86.223503 416.149384,83.739273 
	C418.646515,81.884857 420.782776,79.991478 421.133209,76.675606 
	C421.384827,74.294395 422.587921,72.416679 425.091125,72.247757 
	C427.853943,72.061317 429.554810,73.999588 429.836273,76.456383 
	C430.337708,80.833138 432.756042,83.318405 436.840759,85.081619 
z"/>
<path fill="#ff99b48f" opacity="1.000000" stroke="none" 
	d="
M808.689270,253.473907 
	C811.046570,256.364288 810.649475,258.806671 807.738525,260.267487 
	C804.920532,261.681702 803.498596,263.725922 802.922729,266.710785 
	C802.458557,269.117035 801.373108,271.228638 798.427124,271.130890 
	C795.433105,271.031555 793.901001,269.207397 793.763306,266.353851 
	C793.624207,263.472412 791.841064,261.980011 789.677734,260.559784 
	C785.330200,257.705627 785.129089,255.569687 789.327637,252.812561 
	C792.056885,251.020279 793.733154,249.094467 793.873108,245.709045 
	C793.971863,243.321869 795.602478,241.607941 798.034485,241.534393 
	C800.444092,241.461502 801.952820,243.018188 802.518127,245.403732 
	C803.336670,248.858994 804.293701,252.222244 808.689270,253.473907 
z"/>
<path fill="#ff99b48f" opacity="1.000000" stroke="none" 
	d="
M195.201599,412.420410 
	C191.951248,415.922333 187.747955,418.208099 187.482117,423.593658 
	C187.402878,425.198822 185.051529,425.694733 183.327591,425.677185 
	C181.451416,425.658081 180.061874,424.640259 179.753967,422.794434 
	C179.119156,418.988922 177.452332,416.279999 173.926987,414.195374 
	C171.129059,412.540863 171.107925,409.439270 174.409729,407.941467 
	C177.929764,406.344696 179.343048,403.792480 179.784943,400.234344 
	C180.042679,398.158905 181.462830,397.045471 183.509613,396.821625 
	C185.362808,396.618958 187.060242,397.361572 187.581955,399.054779 
	C188.840622,403.139648 190.560394,406.702576 194.527939,408.881165 
	C195.545853,409.440125 195.613342,410.872925 195.201599,412.420410 
z"/>
<path fill="#ff99b48f" opacity="1.000000" stroke="none" 
	d="
M653.928467,403.976227 
	C659.372192,407.487610 659.475342,407.803253 655.905518,412.435089 
	C653.885498,415.056061 651.877869,417.731293 649.532104,420.044861 
	C646.791809,422.747467 644.193909,422.222015 643.172180,418.655029 
	C642.381409,415.894196 641.311829,414.085358 638.566284,412.792725 
	C635.557312,411.376068 635.412476,407.781616 638.283997,405.995117 
	C641.037048,404.282349 642.769409,402.400269 643.183716,399.087036 
	C643.413147,397.252563 644.763428,395.711060 646.870728,395.580109 
	C649.152893,395.438263 650.506836,396.774231 651.352417,398.811523 
	C652.046753,400.484375 652.892517,402.094391 653.928467,403.976227 
z"/>
<path fill="#ff99b48f" opacity="1.000000" stroke="none" 
	d="
M298.492981,416.859375 
	C285.973022,414.297089 278.541656,401.764038 278.775177,392.124969 
	C279.169769,375.838013 296.548248,364.338104 311.435181,371.246246 
	C319.761230,375.109894 325.586090,381.421387 326.342499,390.902618 
	C327.172913,401.312225 322.518158,409.155670 313.458710,414.363983 
	C308.912048,416.977875 303.789825,416.315460 298.492981,416.859375 
z"/>
<path fill="#ff99b48f" opacity="1.000000" stroke="none" 
	d="
M526.378418,415.726196 
	C512.370605,418.294312 502.299622,413.961243 497.532135,402.573364 
	C493.194061,392.211151 495.405884,380.725769 505.471069,373.816193 
	C514.619751,367.535828 527.100952,368.478088 534.822571,376.154083 
	C548.952271,390.200195 545.207458,408.531189 526.378418,415.726196 
z"/>
<path fill="#ff99b48f" opacity="1.000000" stroke="none" 
	d="
M387.963745,407.935730 
	C385.954865,405.365356 384.634552,402.934814 384.698975,399.916840 
	C384.743866,397.813751 385.712738,396.405151 387.651855,395.781311 
	C389.534576,395.175629 390.871185,396.196838 391.851898,397.678009 
	C392.490631,398.642700 392.957001,399.720764 393.512512,400.741577 
	C394.779297,403.069550 396.453522,404.901672 399.377167,404.509949 
	C402.173859,404.135162 404.334625,402.711182 405.526306,400.020081 
	C408.217224,393.943420 407.479706,390.769135 402.389435,386.680084 
	C395.819183,381.402161 396.951782,373.385010 404.735260,370.098206 
	C408.543243,368.490173 412.486237,368.201660 416.467285,369.191254 
	C420.889465,370.290497 423.814667,373.102020 424.711365,377.597412 
	C425.506226,381.582153 422.993500,384.136902 420.204224,386.398254 
	C415.972656,389.828857 415.005463,393.984222 417.379425,398.984985 
	C418.733459,401.837341 420.808685,404.117371 424.020081,404.426483 
	C427.271362,404.739441 429.021088,402.307709 430.443878,399.727203 
	C431.805481,397.257538 433.064606,394.001953 436.703156,396.051483 
	C440.283661,398.068237 439.434265,401.271484 437.862183,404.339233 
	C433.445709,412.957275 423.414856,415.896271 415.435272,410.548340 
	C412.554932,408.617920 410.551514,408.247192 407.507843,410.347168 
	C400.712036,415.035797 394.604706,414.152802 387.963745,407.935730 
z"/>
<path fill="#ff99b48f" opacity="1.000000" stroke="none" 
	d="
M485.867157,366.431274 
	C486.679688,368.653625 487.589966,370.484314 487.922821,372.414551 
	C488.475891,375.622192 487.730316,378.574707 484.206604,379.614471 
	C480.563751,380.689423 479.069061,378.079468 478.192017,375.225159 
	C477.296478,372.310577 476.159760,369.559906 473.877686,367.504822 
	C467.289154,361.571533 458.010406,364.252319 454.654175,373.019318 
	C454.182587,374.251221 454.054138,375.646301 453.431000,376.781525 
	C452.256470,378.921204 450.570709,380.772827 447.850616,379.717834 
	C445.090942,378.647522 443.803833,376.501373 444.432526,373.363190 
	C446.502167,363.032654 453.040619,356.399475 463.156311,354.481049 
	C471.268707,352.942535 480.441315,357.662537 485.867157,366.431274 
z"/>
<path fill="#ff99b48f" opacity="1.000000" stroke="none" 
	d="
M360.503754,354.919922 
	C369.035156,356.355133 374.546173,360.894073 377.322052,368.609985 
	C377.928467,370.295532 378.203918,372.167572 378.265686,373.966309 
	C378.364868,376.854797 377.432007,379.417389 374.168304,379.894684 
	C371.052582,380.350372 369.731354,378.043854 368.956879,375.543274 
	C367.700409,371.486450 366.234955,367.741211 362.003754,365.712280 
	C355.922058,362.796021 349.395233,364.832764 346.428345,370.927368 
	C345.413605,373.011810 344.860413,375.319946 343.858398,377.411896 
	C342.788300,379.646057 340.926392,380.445496 338.455933,379.690582 
	C336.051453,378.955780 335.011292,377.558746 335.184143,374.899139 
	C336.011932,362.162720 345.908386,354.128113 360.503754,354.919922 
z"/>
<path fill="#ff99b48f" opacity="1.000000" stroke="none" 
	d="
M495.623108,125.302933 
	C499.791534,117.868088 503.879181,110.774307 511.762604,105.262527 
	C511.265778,114.085243 508.519073,120.310318 501.755920,124.473587 
	C500.353607,125.336823 499.173462,126.567993 497.754242,127.395134 
	C495.743652,128.566956 494.941803,127.851639 495.623108,125.302933 
z"/>
<path fill="#ff99b48f" opacity="1.000000" stroke="none" 
	d="
M274.154419,146.760117 
	C270.572998,138.993500 267.824249,131.330582 266.326538,123.284409 
	C264.901672,115.629700 266.185638,108.374046 270.410492,101.781410 
	C275.634216,93.630180 285.717377,91.207268 294.481415,95.210434 
	C314.651062,104.423378 326.226410,121.095558 334.703461,140.579254 
	C335.082214,141.449768 335.098755,142.477875 335.303925,143.535355 
	C326.346130,145.789719 318.892456,143.797760 312.673096,137.144119 
	C309.111938,133.334305 304.404327,131.030167 300.158539,128.124161 
	C296.938446,125.920189 294.917236,126.832954 294.023743,130.534927 
	C293.321747,133.443298 292.723663,136.378281 291.959564,139.269791 
	C290.131256,146.188705 287.303497,152.372650 279.446106,154.916840 
	C276.509796,153.410477 275.728943,150.034332 274.154419,146.760117 
z"/>
</svg>