<svg version="1.1" id="Layer_1" xmlns="http://www.w3.org/2000/svg" xmlns:xlink="http://www.w3.org/1999/xlink" x="0px" y="0px"
	 width="100%" viewBox="0 0 846 662" enable-background="new 0 0 846 662" xml:space="preserve">
<path fill="#ffffff00" opacity="1.000000" stroke="none" 
	d="
M611.000000,663.000000 
	C407.333344,663.000000 204.166672,663.000000 1.000000,663.000000 
	C1.000000,442.333344 1.000000,221.666672 1.000000,1.000000 
	C283.000000,1.000000 565.000000,1.000000 847.000000,1.000000 
	C847.000000,221.666672 847.000000,442.333344 847.000000,663.000000 
	C768.500000,663.000000 690.000000,663.000000 611.000000,663.000000 
M273.302917,297.854279 
	C273.203613,298.239563 273.104279,298.624847 272.298462,299.068817 
	C270.732666,301.088745 268.878693,302.948181 267.649689,305.155640 
	C261.491425,316.216766 254.715591,327.027283 249.660843,338.583771 
	C244.438187,350.524078 241.325195,363.369110 236.576614,375.540344 
	C232.554810,385.848785 232.547272,395.607208 236.729691,405.823853 
	C238.764236,410.793793 241.644516,415.119202 246.549927,415.994202 
	C253.904739,417.306091 261.543945,417.217896 269.066010,417.282410 
	C271.400055,417.302429 273.746429,415.885651 276.815277,415.085297 
	C277.544067,415.059906 278.272888,415.034515 279.577332,415.578583 
	C286.384155,414.651978 293.190979,413.725372 300.693268,412.966797 
	C304.490448,415.010956 308.287628,417.055115 312.150330,419.673828 
	C312.733215,420.014465 313.316101,420.355103 314.830811,420.847382 
	C319.254761,420.927887 323.678711,421.008392 328.217896,421.753876 
	C329.442322,422.064392 330.666748,422.374908 332.813904,422.833984 
	C336.245544,422.903961 339.677155,422.973969 343.202332,423.862335 
	C343.493469,425.150116 344.015472,426.433655 344.039307,427.726349 
	C344.230652,438.109955 344.489929,448.219116 348.669769,458.277435 
	C352.464935,467.410004 359.155334,472.195221 368.544678,469.257965 
	C370.893127,468.523315 373.405487,468.068024 375.862915,467.963470 
	C405.383759,466.707184 434.956299,469.812042 464.503632,465.257904 
	C479.327850,462.972992 494.698853,464.215515 509.823517,463.910126 
	C515.127197,463.803040 522.540466,458.079346 522.724731,452.932526 
	C522.991455,445.481323 522.150269,437.994019 522.321655,430.534546 
	C522.426208,425.984314 519.524597,421.273651 523.740234,416.920074 
	C525.530396,416.845062 527.320496,416.770020 529.849121,416.834320 
	C531.198914,416.254333 532.548706,415.674347 534.847778,415.066345 
	C541.267639,414.944305 547.687500,414.822235 554.847473,414.838348 
	C556.201965,414.257874 557.556458,413.677399 559.772888,413.074799 
	C567.304626,412.931702 569.243042,411.285461 571.074341,403.841705 
	C571.408936,402.481628 572.344360,401.269348 573.935913,399.978241 
	C578.968018,399.942505 584.000183,399.906738 589.338806,400.420410 
	C590.263855,400.061554 591.188843,399.702728 592.987549,399.200775 
	C597.007446,398.749908 601.027344,398.299011 605.280273,398.357513 
	C605.880737,397.987152 606.481201,397.616760 607.947815,397.106049 
	C612.042603,396.731720 616.131958,396.277740 620.233398,396.002197 
	C626.027039,395.612976 629.070068,393.001862 630.904724,386.933624 
	C630.716797,385.915497 630.528931,384.897369 630.198730,383.016388 
	C629.746460,379.661957 629.294189,376.307495 629.353271,372.723785 
	C628.985901,372.122253 628.618530,371.520752 628.116333,370.078552 
	C625.011963,349.554382 620.686340,329.468353 610.529480,310.960785 
	C598.654114,289.321991 583.890076,269.920471 566.997131,251.996445 
	C566.997131,251.996445 566.955444,252.002502 566.925781,251.357300 
	C566.285461,250.573029 565.645203,249.788757 564.712891,248.643112 
	C564.506958,248.411652 564.291565,248.189423 563.919006,247.377441 
	C563.315430,246.560074 562.711792,245.742706 561.999939,244.186691 
	C560.556763,238.645599 559.050171,233.120102 557.682251,227.560486 
	C553.697937,211.366928 550.316956,195.000168 545.658508,179.004486 
	C541.324768,164.123871 536.741699,149.132202 530.287048,135.100845 
	C522.727844,118.668549 513.159729,103.146187 504.221985,87.365669 
	C491.541962,64.977753 475.558838,45.137405 456.315765,28.102728 
	C449.235962,21.835438 440.397614,17.143131 430.797882,21.301271 
	C423.826141,24.321095 417.211334,29.000336 411.619904,34.209049 
	C396.978851,47.847988 385.829193,64.292870 375.062469,81.127945 
	C358.980713,106.273849 346.571106,133.120148 335.647186,160.748001 
	C330.844971,172.893356 325.990173,185.037109 321.786469,197.394943 
	C316.799316,212.055725 312.510193,226.953339 307.873108,241.734055 
	C305.959137,247.834808 303.926849,253.898422 301.395142,260.104828 
	C300.952301,260.430664 300.509460,260.756531 299.365479,261.089508 
	C298.194946,261.976868 296.717407,262.644775 295.901733,263.785828 
	C288.301453,274.417572 280.808350,285.126007 273.329163,295.843658 
	C273.119537,296.144043 273.410980,296.794067 273.302917,297.854279 
M366.000000,634.000000 
	C366.000000,634.000000 365.991913,634.006470 366.002899,634.752258 
	C366.616699,636.268494 366.968140,637.969543 367.885345,639.272095 
	C375.993103,650.786377 386.936829,657.500427 400.919220,660.126465 
	C411.659729,662.143616 421.266052,660.000854 430.280701,654.729126 
	C435.011993,651.962280 439.043213,647.998169 443.272614,644.667664 
	C459.623993,657.615723 477.881500,656.667969 495.285065,648.365417 
	C512.711121,640.052246 522.963257,625.523926 521.985229,604.062012 
	C521.977051,600.049194 521.968872,596.036377 521.907959,591.379517 
	C521.282898,590.909668 520.657898,590.439819 520.024780,589.110962 
	C520.278320,579.843506 514.509033,573.198486 510.061249,565.313354 
	C511.366638,563.226501 512.530823,561.033447 514.004028,559.072754 
	C518.325684,553.320984 520.987000,546.973450 519.921204,539.743286 
	C518.657837,531.172363 517.075134,522.581482 512.030273,515.219238 
	C511.100006,513.861633 509.371124,513.051270 507.397125,511.665833 
	C505.149200,508.720215 503.503510,504.703308 500.537109,503.035736 
	C492.581665,498.563568 484.237823,494.348389 474.633728,495.073151 
	C470.733765,495.367523 466.885834,496.351929 462.305603,497.016571 
	C461.530518,497.670776 460.755402,498.325012 459.238861,498.988403 
	C458.497437,499.000214 457.755981,499.012024 456.262207,498.997345 
	C454.944550,498.146301 453.079803,497.599213 452.407776,496.389496 
	C450.019684,492.090851 448.299561,487.411682 445.800323,483.187927 
	C444.396454,480.815369 441.959442,479.054169 439.246124,477.019257 
	C433.248444,478.051086 430.295166,482.760437 428.166199,487.483887 
	C424.543152,495.522156 421.796814,503.955566 418.443268,512.856689 
	C419.001892,512.604126 418.716827,512.812134 418.408325,512.856201 
	C417.753265,512.949768 417.081085,513.033020 416.424438,512.990173 
	C406.130859,512.317932 396.706940,515.091187 388.086853,520.518372 
	C379.489227,525.931396 372.348999,532.904480 370.122253,543.158569 
	C366.565765,559.535950 365.984039,575.885254 373.697815,591.739136 
	C366.123047,596.598206 361.435181,603.670105 361.248230,612.535217 
	C361.112030,618.994690 363.028687,625.497375 364.090485,632.626770 
	C364.724091,633.087158 365.357697,633.547546 366.000000,634.000000 
z"/>
<path fill="#D3D2D2" opacity="1.000000" stroke="none" 
	d="
M529.110657,416.694946 
	C527.320496,416.770020 525.530396,416.845062 523.042725,416.645264 
	C517.534241,415.924530 512.724426,415.171783 507.911774,415.153564 
	C505.241455,415.143433 502.600769,416.621490 499.887512,416.977997 
	C489.001648,418.408417 478.097656,419.705627 467.190887,420.970428 
	C455.133423,422.368652 443.094299,424.328552 430.995087,424.861633 
	C415.647614,425.537811 400.247742,425.026215 384.870453,425.014679 
	C384.211334,425.014191 383.519714,424.998962 382.897980,424.810242 
	C369.782806,420.829407 356.466217,421.495605 343.108795,423.043976 
	C339.677155,422.973969 336.245544,422.903961 332.286346,422.450165 
	C330.540070,421.740540 329.321381,421.414734 328.102661,421.088928 
	C323.678711,421.008392 319.254761,420.927887 314.329468,420.503967 
	C313.247040,419.806763 312.665924,419.453003 312.084839,419.099243 
	C308.287628,417.055115 304.490448,415.010956 300.344818,412.570587 
	C299.970703,411.753326 299.945038,411.332275 299.934387,410.503418 
	C298.600128,404.825165 296.530151,399.619873 296.046753,394.271210 
	C294.928619,381.899963 294.236755,369.465179 294.022705,357.044952 
	C293.842743,346.599335 294.168365,336.104279 295.015808,325.691803 
	C296.128296,312.022583 297.803619,298.390961 299.569580,284.786377 
	C300.524445,277.430389 302.237457,270.174927 303.416931,262.843262 
	C303.554321,261.989349 302.467621,260.938507 301.948425,259.978943 
	C303.926849,253.898422 305.959137,247.834808 307.873108,241.734055 
	C312.510193,226.953339 316.799316,212.055725 321.786469,197.394943 
	C325.990173,185.037109 330.844971,172.893356 335.647186,160.748001 
	C346.571106,133.120148 358.980713,106.273849 375.062469,81.127945 
	C385.829193,64.292870 396.978851,47.847988 411.619904,34.209049 
	C417.211334,29.000336 423.826141,24.321095 430.797882,21.301271 
	C440.397614,17.143131 449.235962,21.835438 456.315765,28.102728 
	C475.558838,45.137405 491.541962,64.977753 504.221985,87.365669 
	C513.159729,103.146187 522.727844,118.668549 530.287048,135.100845 
	C536.741699,149.132202 541.324768,164.123871 545.658508,179.004486 
	C550.316956,195.000168 553.697937,211.366928 557.682251,227.560486 
	C559.050171,233.120102 560.556763,238.645599 561.665955,244.673126 
	C560.925781,246.804962 560.138428,248.462158 560.189026,250.093399 
	C560.311829,254.052139 560.929810,257.992615 561.162415,261.951324 
	C562.521484,285.083832 563.831421,308.219208 565.148010,331.354187 
	C565.533875,338.135803 565.721069,344.933197 566.290039,351.698975 
	C567.466980,365.694977 568.741638,379.684998 570.232178,393.650146 
	C570.465576,395.836670 572.045288,397.879547 573.002441,399.988861 
	C572.344360,401.269348 571.408936,402.481628 571.074341,403.841705 
	C569.243042,411.285461 567.304626,412.931702 558.969788,413.071411 
	C556.813599,413.612091 555.460449,414.156128 554.107361,414.700195 
	C547.687500,414.822235 541.267639,414.944305 534.002625,415.067047 
	C531.808533,415.610138 530.459595,416.152557 529.110657,416.694946 
M501.994659,304.021667 
	C501.994659,304.021667 502.040436,304.055237 502.761871,304.015961 
	C505.211426,301.360352 507.661011,298.704742 510.639557,295.639191 
	C511.769073,293.454742 512.898621,291.270325 514.474182,288.850189 
	C514.642578,288.568298 514.811035,288.286407 515.048767,287.377930 
	C515.387512,286.615417 515.726257,285.852905 516.693481,284.956146 
	C517.101501,284.293976 517.509521,283.631805 517.972717,282.318390 
	C517.994202,281.883270 518.015686,281.448181 518.752014,280.855713 
	C520.828186,272.662720 523.054260,264.504028 524.936096,256.266632 
	C526.640686,248.805008 526.442383,241.329651 523.963318,233.349731 
	C523.936829,232.911346 523.910339,232.472961 523.939026,231.232559 
	C521.952209,226.505630 519.965332,221.778687 517.504028,216.687119 
	C517.329224,216.125061 517.154358,215.563004 516.994202,214.299011 
	C516.328674,213.534714 515.663086,212.770432 514.956909,211.294357 
	C513.641357,208.863556 512.325806,206.432770 511.476288,203.596771 
	C509.310944,200.415970 507.145599,197.235168 504.774200,193.592957 
	C504.505066,193.399323 504.235931,193.205704 503.915894,192.323166 
	C498.606781,187.226807 493.297668,182.130463 487.769714,176.578598 
	C487.495514,176.392166 487.221283,176.205734 486.681152,175.395920 
	C484.121033,173.925690 481.560913,172.455460 478.493103,170.616470 
	C477.657654,170.087463 476.822235,169.558441 475.670502,168.407303 
	C469.112000,165.311844 462.553528,162.216385 455.329285,159.046783 
	C454.883057,159.040131 454.436798,159.033463 453.540039,158.436966 
	C447.903320,157.303711 442.294586,155.378952 436.624878,155.178589 
	C415.654144,154.437515 396.710907,160.960785 380.242371,173.702728 
	C372.005310,180.075882 364.863159,187.883743 360.979126,198.466309 
	C360.979126,198.466309 360.968262,198.932968 360.350189,199.276093 
	C359.219177,201.849808 358.088165,204.423523 356.879852,207.693039 
	C356.866638,208.392715 356.853424,209.092407 356.181976,210.008072 
	C355.438873,211.647858 354.695770,213.287643 353.244354,215.116379 
	C352.200592,218.752670 351.156830,222.388947 350.067688,226.689316 
	C350.067291,227.132904 350.066864,227.576508 349.500641,228.490479 
	C349.646301,230.333252 349.791931,232.176010 349.931183,234.652145 
	C349.935974,235.074356 349.940796,235.496582 349.175751,236.160431 
	C348.989563,242.922684 348.791718,249.684723 348.673828,256.448151 
	C348.670319,256.650116 349.505280,256.866669 349.935638,257.711792 
	C349.937653,258.135468 349.939667,258.559113 349.406616,259.530731 
	C349.899933,265.329620 349.142303,271.471069 353.953369,276.813599 
	C353.994598,277.535278 354.035828,278.256958 354.107178,279.620789 
	C354.720367,280.108704 355.333588,280.596649 355.952484,281.844696 
	C356.607208,283.497711 357.004700,285.318787 357.957336,286.777191 
	C365.700439,298.631073 376.569733,306.981384 389.221588,312.747620 
	C398.158600,316.820801 407.682678,319.605865 417.609497,323.260864 
	C419.846893,324.194702 422.053253,325.844604 424.326843,325.943146 
	C436.686676,326.478790 449.092285,327.233307 461.420013,326.634125 
	C466.693756,326.377808 471.817017,323.026703 477.823883,321.044983 
	C483.482117,320.558777 488.340820,318.451324 492.647949,313.738159 
	C494.781616,311.524963 496.915253,309.311768 499.600067,306.806244 
	C500.414764,305.884247 501.229462,304.962280 501.994659,304.021667 
z"/>
<path fill="#EC8885" opacity="1.000000" stroke="none" 
	d="
M573.469177,399.983551 
	C572.045288,397.879547 570.465576,395.836670 570.232178,393.650146 
	C568.741638,379.684998 567.466980,365.694977 566.290039,351.698975 
	C565.721069,344.933197 565.533875,338.135803 565.148010,331.354187 
	C563.831421,308.219208 562.521484,285.083832 561.162415,261.951324 
	C560.929810,257.992615 560.311829,254.052139 560.189026,250.093399 
	C560.138428,248.462158 560.925781,246.804962 561.720093,245.042450 
	C562.711792,245.742706 563.315430,246.560074 563.609619,247.758942 
	C562.930542,249.445038 562.147217,250.789124 562.267212,252.046997 
	C562.658142,256.144165 563.700867,260.192688 563.919128,264.290497 
	C565.046814,285.456451 565.986206,306.632385 567.012756,327.803802 
	C567.349548,334.750031 567.505005,341.716919 568.174133,348.632721 
	C569.636230,363.745941 571.324036,378.838318 573.082458,393.920258 
	C573.246948,395.331329 574.570557,396.607269 575.355957,397.945984 
	C576.237854,396.535889 577.934875,395.085052 577.866760,393.722443 
	C577.479492,385.973877 576.322021,378.257507 576.075989,370.509521 
	C575.517395,352.921661 575.646729,335.308350 574.887329,317.731720 
	C574.424988,307.032288 572.997925,296.361176 571.696350,285.714996 
	C570.320984,274.466583 568.580078,263.262909 566.998840,252.039673 
	C583.890076,269.920471 598.654114,289.321991 610.529480,310.960785 
	C620.686340,329.468353 625.011963,349.554382 628.095398,370.785217 
	C628.330322,371.978912 628.586121,372.465973 628.841919,372.953033 
	C629.294189,376.307495 629.746460,379.661957 630.140198,383.843628 
	C630.164551,385.487183 630.247498,386.303467 630.330383,387.119781 
	C629.070068,393.001862 626.027039,395.612976 620.233398,396.002197 
	C616.131958,396.277740 612.042603,396.731720 607.227417,397.088867 
	C606.020386,397.330505 605.533813,397.589325 605.047241,397.848114 
	C601.027344,398.299011 597.007446,398.749908 592.224304,399.149658 
	C590.651489,399.356018 589.841858,399.613525 589.032288,399.871033 
	C584.000183,399.906738 578.968018,399.942505 573.469177,399.983551 
z"/>
<path fill="#E9E9E9" opacity="1.000000" stroke="none" 
	d="
M521.960693,592.023560 
	C521.968872,596.036377 521.977051,600.049194 521.630859,604.585571 
	C520.457703,606.471069 519.424072,607.749146 518.854248,609.208374 
	C514.425781,620.550293 507.399536,630.049438 497.912079,637.532104 
	C493.161835,641.278564 487.586426,643.961609 482.503326,647.306519 
	C469.133453,656.104736 453.200012,650.828369 446.202606,638.376221 
	C444.565887,635.463684 443.032288,635.666748 440.757172,637.678650 
	C437.168732,640.851990 433.518768,643.995728 429.629639,646.781860 
	C416.188141,656.411072 399.485138,658.714539 384.752441,649.246887 
	C378.016205,644.917908 372.216400,639.131775 365.991913,634.006470 
	C365.991913,634.006470 366.000000,634.000000 365.959259,633.683350 
	C365.289062,632.904785 364.659576,632.442810 364.030121,631.980835 
	C363.028687,625.497375 361.112030,618.994690 361.248230,612.535217 
	C361.435181,603.670105 366.123047,596.598206 373.697815,591.739136 
	C365.984039,575.885254 366.565765,559.535950 370.122253,543.158569 
	C372.348999,532.904480 379.489227,525.931396 388.086853,520.518372 
	C396.706940,515.091187 406.130859,512.317932 416.424438,512.990173 
	C417.081085,513.033020 417.753265,512.949768 418.408325,512.856201 
	C418.716827,512.812134 419.001892,512.604126 418.443268,512.856689 
	C421.796814,503.955566 424.543152,495.522156 428.166199,487.483887 
	C430.295166,482.760437 433.248444,478.051086 439.664368,477.400391 
	C442.344666,484.628632 444.302521,491.597290 446.972595,498.281464 
	C448.846375,502.972107 453.148132,503.066132 457.014557,499.023804 
	C457.755981,499.012024 458.497437,499.000214 459.964783,498.986389 
	C461.465179,498.330353 462.239716,497.676331 463.014221,497.022339 
	C466.885834,496.351929 470.733765,495.367523 474.633728,495.073151 
	C484.237823,494.348389 492.581665,498.563568 500.537109,503.035736 
	C503.503510,504.703308 505.149200,508.720215 507.738220,512.197021 
	C509.998535,519.152039 512.515442,525.469177 513.686707,532.026672 
	C515.175110,540.360229 513.883789,548.509583 508.155334,555.310669 
	C503.830078,560.445740 504.009216,561.863281 509.969971,566.017761 
	C514.509033,573.198486 520.278320,579.843506 520.056030,589.863403 
	C520.711731,591.085083 521.336243,591.554321 521.960693,592.023560 
M478.322449,502.981689 
	C468.495178,502.180298 459.572449,505.175964 451.462494,510.268646 
	C447.496429,512.759094 445.682678,512.185059 443.862457,508.187347 
	C441.248505,502.446533 438.317535,496.850067 435.521881,491.191986 
	C435.059692,491.179810 434.597504,491.167664 434.135315,491.155518 
	C432.754822,494.421997 430.928650,497.579163 430.094666,500.979645 
	C428.727936,506.552307 428.018555,512.285278 427.006897,517.946167 
	C426.482086,520.882690 424.859314,522.113403 421.737091,521.830139 
	C416.721069,521.375183 411.541290,520.409363 406.666870,521.170837 
	C395.004852,522.992798 386.044342,529.289429 379.621552,539.388977 
	C375.387817,546.046326 375.745667,553.274353 376.051666,560.495056 
	C376.514374,571.412720 380.606750,580.628052 389.564545,587.448425 
	C391.026855,588.561829 391.626831,590.807739 392.625397,592.530212 
	C390.778290,593.351990 388.977081,594.752808 387.076782,594.903503 
	C372.590729,596.052185 364.769836,610.712097 369.080902,623.111450 
	C372.273560,632.294128 379.716980,637.769775 387.490723,642.673035 
	C399.111603,650.002808 411.017242,649.877136 422.567535,642.603333 
	C429.560822,638.199219 436.382721,633.528809 440.768555,626.009644 
	C443.205688,621.831299 445.490051,622.123596 448.118866,626.330811 
	C449.681885,628.832275 450.940948,631.538879 452.177765,634.226379 
	C456.567474,643.764893 467.928040,645.450012 475.073792,642.889587 
	C486.032593,638.963074 494.733551,631.949402 502.181122,623.266357 
	C507.826813,616.684021 512.727295,609.249695 513.769104,600.680481 
	C515.545044,586.072632 509.848297,574.104553 497.767395,565.458618 
	C492.935883,562.000793 492.374725,560.414185 496.928894,556.760315 
	C504.396210,550.769226 507.491577,543.446411 506.037262,534.062439 
	C505.860687,532.923035 506.039001,531.732483 505.998566,530.567505 
	C505.487122,515.830872 493.495972,503.471771 478.322449,502.981689 
z"/>
<path fill="#F2E9B0" opacity="1.000000" stroke="none" 
	d="
M343.155579,423.453156 
	C356.466217,421.495605 369.782806,420.829407 382.897980,424.810242 
	C383.519714,424.998962 384.211334,425.014191 384.870453,425.014679 
	C400.247742,425.026215 415.647614,425.537811 430.995087,424.861633 
	C443.094299,424.328552 455.133423,422.368652 467.190887,420.970428 
	C478.097656,419.705627 489.001648,418.408417 499.887512,416.977997 
	C502.600769,416.621490 505.241455,415.143433 507.911774,415.153564 
	C512.724426,415.171783 517.534241,415.924530 522.594482,416.614075 
	C519.524597,421.273651 522.426208,425.984314 522.321655,430.534546 
	C522.150269,437.994019 522.991455,445.481323 522.724731,452.932526 
	C522.540466,458.079346 515.127197,463.803040 509.823517,463.910126 
	C494.698853,464.215515 479.327850,462.972992 464.503632,465.257904 
	C434.956299,469.812042 405.383759,466.707184 375.862915,467.963470 
	C373.405487,468.068024 370.893127,468.523315 368.544678,469.257965 
	C359.155334,472.195221 352.464935,467.410004 348.669769,458.277435 
	C344.489929,448.219116 344.230652,438.109955 344.039307,427.726349 
	C344.015472,426.433655 343.493469,425.150116 343.155579,423.453156 
M360.604858,425.977692 
	C358.649261,425.651306 356.703979,425.140686 354.736298,425.030945 
	C346.856262,424.591492 346.390472,425.189789 347.790161,432.935455 
	C348.888641,439.014038 350.451477,445.069183 350.862213,451.198120 
	C351.566864,461.712524 358.838440,467.479279 369.292694,465.472076 
	C376.736053,464.042938 384.265259,462.337128 391.787628,462.169800 
	C422.547119,461.485626 453.323181,461.551788 484.083191,460.883209 
	C493.797211,460.672119 503.471802,458.932556 513.182251,458.100433 
	C516.299805,457.833282 517.058533,456.292572 517.041687,453.544373 
	C516.980347,443.553101 516.962708,433.560638 517.058716,423.569855 
	C517.088257,420.494354 516.110779,418.746033 512.780396,418.996765 
	C505.359406,419.555511 497.923248,419.962677 490.520752,420.705719 
	C481.019318,421.659454 471.546295,422.894348 462.058105,423.982819 
	C458.444702,424.397369 454.808502,424.636688 451.208771,425.141602 
	C445.028076,426.008606 438.857513,427.891815 432.700836,427.818848 
	C408.966064,427.537476 385.238525,426.650360 360.604858,425.977692 
z"/>
<path fill="#F2F2F2" opacity="1.000000" stroke="none" 
	d="
M365.997406,634.379395 
	C372.216400,639.131775 378.016205,644.917908 384.752441,649.246887 
	C399.485138,658.714539 416.188141,656.411072 429.629639,646.781860 
	C433.518768,643.995728 437.168732,640.851990 440.757172,637.678650 
	C443.032288,635.666748 444.565887,635.463684 446.202606,638.376221 
	C453.200012,650.828369 469.133453,656.104736 482.503326,647.306519 
	C487.586426,643.961609 493.161835,641.278564 497.912079,637.532104 
	C507.399536,630.049438 514.425781,620.550293 518.854248,609.208374 
	C519.424072,607.749146 520.457703,606.471069 521.627197,605.047607 
	C522.963257,625.523926 512.711121,640.052246 495.285065,648.365417 
	C477.881500,656.667969 459.623993,657.615723 443.272614,644.667664 
	C439.043213,647.998169 435.011993,651.962280 430.280701,654.729126 
	C421.266052,660.000854 411.659729,662.143616 400.919220,660.126465 
	C386.936829,657.500427 375.993103,650.786377 367.885345,639.272095 
	C366.968140,637.969543 366.616699,636.268494 365.997406,634.379395 
z"/>
<path fill="#E67F7C" opacity="1.000000" stroke="none" 
	d="
M566.997986,252.018066 
	C568.580078,263.262909 570.320984,274.466583 571.696350,285.714996 
	C572.997925,296.361176 574.424988,307.032288 574.887329,317.731720 
	C575.646729,335.308350 575.517395,352.921661 576.075989,370.509521 
	C576.322021,378.257507 577.479492,385.973877 577.866760,393.722443 
	C577.934875,395.085052 576.237854,396.535889 575.355957,397.945984 
	C574.570557,396.607269 573.246948,395.331329 573.082458,393.920258 
	C571.324036,378.838318 569.636230,363.745941 568.174133,348.632721 
	C567.505005,341.716919 567.349548,334.750031 567.012756,327.803802 
	C565.986206,306.632385 565.046814,285.456451 563.919128,264.290497 
	C563.700867,260.192688 562.658142,256.144165 562.267212,252.046997 
	C562.147217,250.789124 562.930542,249.445038 563.683472,248.058426 
	C564.291565,248.189423 564.506958,248.411652 564.855957,249.175507 
	C565.651245,250.472763 566.303345,251.237625 566.955444,252.002502 
	C566.955444,252.002502 566.997131,251.996445 566.997986,252.018066 
z"/>
<path fill="#E09D9B" opacity="1.000000" stroke="none" 
	d="
M301.671783,260.041870 
	C302.467621,260.938507 303.554321,261.989349 303.416931,262.843262 
	C302.237457,270.174927 300.524445,277.430389 299.569580,284.786377 
	C297.803619,298.390961 296.128296,312.022583 295.015808,325.691803 
	C294.168365,336.104279 293.842743,346.599335 294.022705,357.044952 
	C294.236755,369.465179 294.928619,381.899963 296.046753,394.271210 
	C296.530151,399.619873 298.600128,404.825165 299.544525,410.576721 
	C297.698914,411.374878 296.264435,411.724274 294.816406,412.003113 
	C289.547272,413.017883 284.273621,414.009033 279.001678,415.009094 
	C278.272888,415.034515 277.544067,415.059906 275.991455,415.040283 
	C272.102966,414.982697 269.038300,414.970123 266.077087,414.571411 
	C273.780121,412.798950 281.379700,411.412659 289.409882,410.028625 
	C291.170654,410.024841 292.505249,410.086273 293.829987,409.998657 
	C296.545532,409.819061 297.635986,408.350342 295.997559,406.069519 
	C291.815430,400.247711 292.995605,393.396057 292.079865,386.976654 
	C290.892639,378.654175 289.826843,370.289612 289.296753,361.905975 
	C288.868530,355.133789 288.930450,348.277283 289.451141,341.510223 
	C290.374817,329.505981 291.770447,317.536774 293.056091,305.562317 
	C293.494080,301.482422 294.198212,297.431213 294.775330,293.366150 
	C295.840729,285.861542 296.931824,278.360199 297.904449,270.843567 
	C297.976440,270.287079 297.184601,269.618805 296.816406,269.037323 
	C295.005951,270.483215 293.462555,271.715790 291.964478,272.601013 
	C294.695404,268.529907 297.381012,264.806122 300.066620,261.082397 
	C300.509460,260.756531 300.952301,260.430664 301.671783,260.041870 
z"/>
<path fill="#F4C8D5" opacity="1.000000" stroke="none" 
	d="
M265.973633,414.957550 
	C269.038300,414.970123 272.102966,414.982697 275.627380,415.060974 
	C273.746429,415.885651 271.400055,417.302429 269.066010,417.282410 
	C261.543945,417.217896 253.904739,417.306091 246.549927,415.994202 
	C241.644516,415.119202 238.764236,410.793793 236.729691,405.823853 
	C232.547272,395.607208 232.554810,385.848785 236.576614,375.540344 
	C241.325195,363.369110 244.438187,350.524078 249.660843,338.583771 
	C254.715591,327.027283 261.491425,316.216766 267.649689,305.155640 
	C268.878693,302.948181 270.732666,301.088745 272.627869,299.395264 
	C272.073059,301.306641 271.159363,302.875946 270.309784,304.479248 
	C266.514099,311.642273 262.736725,318.814972 258.914856,326.272156 
	C258.841766,326.945679 258.806519,327.331238 258.447876,327.837708 
	C255.737610,332.634918 253.350800,337.311188 250.924377,342.277649 
	C250.851837,342.956848 250.818924,343.345886 250.465668,343.875427 
	C248.330200,348.220367 246.188141,352.317139 244.762207,356.649628 
	C240.738892,368.873779 234.641632,380.803162 236.116409,394.123291 
	C238.094223,411.986786 245.823303,419.108276 264.340088,415.006897 
	C265.102692,414.995087 265.538147,414.976318 265.973633,414.957550 
z"/>
<path fill="#F2F2F2" opacity="1.000000" stroke="none" 
	d="
M510.015625,565.665527 
	C504.009216,561.863281 503.830078,560.445740 508.155334,555.310669 
	C513.883789,548.509583 515.175110,540.360229 513.686707,532.026672 
	C512.515442,525.469177 509.998535,519.152039 508.045105,512.358276 
	C509.371124,513.051270 511.100006,513.861633 512.030273,515.219238 
	C517.075134,522.581482 518.657837,531.172363 519.921204,539.743286 
	C520.987000,546.973450 518.325684,553.320984 514.004028,559.072754 
	C512.530823,561.033447 511.366638,563.226501 510.015625,565.665527 
z"/>
<path fill="#E09D9B" opacity="1.000000" stroke="none" 
	d="
M258.952728,325.984161 
	C262.736725,318.814972 266.514099,311.642273 270.309784,304.479248 
	C271.159363,302.875946 272.073059,301.306641 272.981110,299.365906 
	C273.104279,298.624847 273.203613,298.239563 273.680573,297.448914 
	C277.541718,292.075714 280.941833,287.046356 284.542603,282.165100 
	C286.449738,279.579742 288.705688,277.251678 290.863037,275.190033 
	C290.598145,277.028198 290.274384,278.483826 289.596558,279.990051 
	C288.804413,280.259705 288.189880,280.361359 287.954620,280.715179 
	C284.075348,286.549622 280.047546,292.298584 276.457733,298.308411 
	C272.996155,304.103577 270.222748,310.312439 266.713043,316.075226 
	C264.545837,319.633728 261.567108,322.697998 258.952728,325.984161 
z"/>
<path fill="#F2F2F2" opacity="1.000000" stroke="none" 
	d="
M456.638367,499.010559 
	C453.148132,503.066132 448.846375,502.972107 446.972595,498.281464 
	C444.302521,491.597290 442.344666,484.628632 440.035217,477.399506 
	C441.959442,479.054169 444.396454,480.815369 445.800323,483.187927 
	C448.299561,487.411682 450.019684,492.090851 452.407776,496.389496 
	C453.079803,497.599213 454.944550,498.146301 456.638367,499.010559 
z"/>
<path fill="#F4C8D5" opacity="1.000000" stroke="none" 
	d="
M290.804199,274.807434 
	C288.705688,277.251678 286.449738,279.579742 284.542603,282.165100 
	C280.941833,287.046356 277.541718,292.075714 273.763489,297.162292 
	C273.410980,296.794067 273.119537,296.144043 273.329163,295.843658 
	C280.808350,285.126007 288.301453,274.417572 295.901733,263.785828 
	C296.717407,262.644775 298.194946,261.976868 299.716064,261.085938 
	C297.381012,264.806122 294.695404,268.529907 291.744507,272.774231 
	C291.254181,273.799042 291.029175,274.303223 290.804199,274.807434 
z"/>
<path fill="#F4C8D5" opacity="1.000000" stroke="none" 
	d="
M279.289490,415.293823 
	C284.273621,414.009033 289.547272,413.017883 294.816406,412.003113 
	C296.264435,411.724274 297.698914,411.374878 299.529510,410.984558 
	C299.945038,411.332275 299.970703,411.753326 299.997070,412.486572 
	C293.190979,413.725372 286.384155,414.651978 279.289490,415.293823 
z"/>
<path fill="#F2E9B0" opacity="1.000000" stroke="none" 
	d="
M554.477417,414.769287 
	C555.460449,414.156128 556.813599,413.612091 558.538818,413.082489 
	C557.556458,413.677399 556.201965,414.257874 554.477417,414.769287 
z"/>
<path fill="#F2E9B0" opacity="1.000000" stroke="none" 
	d="
M529.479858,416.764648 
	C530.459595,416.152557 531.808533,415.610138 533.527954,415.081055 
	C532.548706,415.674347 531.198914,416.254333 529.479858,416.764648 
z"/>
<path fill="#F2E9B0" opacity="1.000000" stroke="none" 
	d="
M328.160278,421.421387 
	C329.321381,421.414734 330.540070,421.740540 331.824951,422.375885 
	C330.666748,422.374908 329.442322,422.064392 328.160278,421.421387 
z"/>
<path fill="#F2F2F2" opacity="1.000000" stroke="none" 
	d="
M462.659912,497.019470 
	C462.239716,497.676331 461.465179,498.330353 460.335510,498.981781 
	C460.755402,498.325012 461.530518,497.670776 462.659912,497.019470 
z"/>
<path fill="#D3D2D2" opacity="1.000000" stroke="none" 
	d="
M589.185547,400.145721 
	C589.841858,399.613525 590.651489,399.356018 591.787476,399.221191 
	C591.188843,399.702728 590.263855,400.061554 589.185547,400.145721 
z"/>
<path fill="#D3D2D2" opacity="1.000000" stroke="none" 
	d="
M630.617554,387.026703 
	C630.247498,386.303467 630.164551,385.487183 630.211365,384.275055 
	C630.528931,384.897369 630.716797,385.915497 630.617554,387.026703 
z"/>
<path fill="#EC8885" opacity="1.000000" stroke="none" 
	d="
M566.940613,251.679901 
	C566.303345,251.237625 565.651245,250.472763 565.001953,249.356201 
	C565.645203,249.788757 566.285461,250.573029 566.940613,251.679901 
z"/>
<path fill="#F2F2F2" opacity="1.000000" stroke="none" 
	d="
M364.060303,632.303833 
	C364.659576,632.442810 365.289062,632.904785 365.954895,633.687317 
	C365.357697,633.547546 364.724091,633.087158 364.060303,632.303833 
z"/>
<path fill="#F2F2F2" opacity="1.000000" stroke="none" 
	d="
M521.934326,591.701538 
	C521.336243,591.554321 520.711731,591.085083 520.060059,590.292847 
	C520.657898,590.439819 521.282898,590.909668 521.934326,591.701538 
z"/>
<path fill="#F2E9B0" opacity="1.000000" stroke="none" 
	d="
M312.117584,419.386536 
	C312.665924,419.453003 313.247040,419.806763 313.863586,420.428162 
	C313.316101,420.355103 312.733215,420.014465 312.117584,419.386536 
z"/>
<path fill="#D3D2D2" opacity="1.000000" stroke="none" 
	d="
M605.163757,398.102814 
	C605.533813,397.589325 606.020386,397.330505 606.794312,397.159027 
	C606.481201,397.616760 605.880737,397.987152 605.163757,398.102814 
z"/>
<path fill="#D3D2D2" opacity="1.000000" stroke="none" 
	d="
M629.097595,372.838409 
	C628.586121,372.465973 628.330322,371.978912 628.162842,371.205566 
	C628.618530,371.520752 628.985901,372.122253 629.097595,372.838409 
z"/>
<path fill="#F4C8D5" opacity="1.000000" stroke="none" 
	d="
M477.008667,321.081818 
	C471.817017,323.026703 466.693756,326.377808 461.420013,326.634125 
	C449.092285,327.233307 436.686676,326.478790 424.326843,325.943146 
	C422.053253,325.844604 419.846893,324.194702 417.291321,322.660583 
	C417.186646,318.927307 417.141846,315.750122 417.669067,312.670868 
	C418.676666,306.786041 417.729034,304.904816 411.920746,303.165680 
	C401.339508,299.997467 394.626343,292.589630 389.938812,283.060272 
	C388.354919,279.840393 387.294739,276.362915 386.002380,272.669373 
	C385.990845,271.890961 385.972198,271.446320 385.973389,270.535400 
	C385.338806,259.379395 386.914307,249.281708 393.049652,240.113892 
	C393.978516,238.725891 393.473785,236.006836 392.957123,234.084930 
	C390.127686,223.560013 386.747131,213.170288 384.299133,202.562592 
	C383.406342,198.693939 384.153076,194.278198 384.893646,190.248367 
	C385.646393,186.152359 387.685486,182.730515 392.854248,182.962631 
	C397.792511,183.184387 399.012848,186.912582 400.022125,190.574219 
	C402.163239,198.342239 404.031616,206.185455 406.001221,214.372437 
	C406.014801,215.495911 406.038971,216.244797 406.039856,217.407959 
	C406.485382,220.239822 406.954163,222.657410 407.527405,225.613525 
	C416.522980,220.452118 425.020142,217.737778 434.302887,218.000275 
	C437.135773,218.080368 438.046021,216.503815 437.994049,213.921524 
	C437.920776,210.281433 437.951324,206.639252 437.960022,202.597900 
	C437.983215,201.129517 437.983826,200.061203 438.270050,198.729980 
	C439.592621,194.163010 440.513519,189.826843 441.692322,185.561951 
	C443.721222,178.221558 447.288513,176.665741 453.996704,180.004501 
	C454.000000,179.999619 453.989075,180.006241 454.035767,180.394806 
	C454.721649,184.490295 455.980927,188.215378 455.872894,191.900406 
	C455.637054,199.945129 454.705994,207.969467 454.035370,216.376526 
	C454.008453,217.500961 454.005127,218.251007 453.728027,219.241058 
	C454.147369,221.653809 454.236847,224.393860 455.646240,225.893524 
	C459.956787,230.480286 465.074524,234.313644 469.339233,238.937271 
	C482.319061,253.009598 487.295135,276.754242 469.465424,291.003876 
	C466.744507,293.178436 466.765228,295.556824 467.986389,298.507507 
	C471.085052,305.994507 474.012634,313.552338 477.008667,321.081818 
M440.920441,253.193604 
	C442.311279,252.453033 443.702118,251.712448 445.759430,250.891739 
	C445.530151,249.603333 445.300903,248.314926 444.573578,246.498795 
	C440.564667,244.000641 438.453918,245.364960 437.224335,250.905472 
	C435.787872,250.898361 434.351440,250.891251 432.148529,250.882263 
	C431.126648,250.887695 430.104736,250.893127 428.617584,250.463348 
	C427.747406,250.977386 426.877228,251.491425 425.618683,252.423157 
	C425.040497,252.908569 424.462280,253.393982 423.214447,254.126602 
	C422.912842,255.665024 422.611237,257.203461 421.642181,259.095001 
	C416.855988,263.485962 415.317047,272.750366 418.282440,279.320862 
	C420.568878,284.386871 427.811523,287.800568 434.282471,286.953064 
	C442.040802,285.936951 448.037811,282.374695 449.586609,274.349487 
	C450.951447,267.277252 447.878326,261.471222 442.193359,257.034576 
	C441.248138,256.296906 440.712158,255.034851 440.062134,253.570496 
	C440.062134,253.570496 440.189758,253.138306 440.920441,253.193604 
M397.549042,212.136200 
	C396.414185,208.530151 395.482941,204.839417 394.036926,201.362762 
	C393.511963,200.100555 391.757904,199.349548 390.564636,198.365311 
	C389.712067,199.844452 387.991394,201.432404 388.160736,202.783447 
	C388.811462,207.974777 389.738098,213.186356 391.201477,218.203796 
	C392.394592,222.294693 394.499786,226.119583 396.290100,230.270020 
	C401.037933,227.729492 400.164215,224.382874 399.541199,221.143509 
	C399.012939,218.396774 398.403778,215.665588 397.549042,212.136200 
M445.610565,216.973923 
	C446.389679,216.305008 447.723480,215.731354 447.857391,214.951614 
	C448.693878,210.081345 449.936859,205.128113 449.671356,200.277557 
	C449.506897,197.272690 450.515594,192.625839 445.444275,191.179276 
	C444.888916,191.913147 444.063934,192.509857 443.968964,193.206161 
	C443.137024,199.303802 442.166229,205.406006 441.865479,211.537735 
	C441.779358,213.293152 443.744751,215.149200 445.610565,216.973923 
M420.691223,254.957718 
	C421.439362,251.337280 419.398254,249.288116 416.286194,249.388138 
	C414.561432,249.443542 411.437408,251.815887 411.542023,252.891190 
	C411.729523,254.818970 413.545410,257.220734 415.335205,258.115845 
	C416.358582,258.627686 418.673248,256.557556 420.691223,254.957718 
z"/>
<path fill="#FFFFFF" opacity="1.000000" stroke="none" 
	d="
M406.063110,216.993668 
	C406.038971,216.244797 406.014801,215.495911 406.363892,214.307159 
	C406.991699,212.901245 407.641632,211.840622 407.436829,210.984467 
	C406.081879,205.319977 402.832306,199.479828 403.519592,194.122803 
	C404.291870,188.103241 401.233643,185.660751 398.014465,182.585953 
	C394.436249,179.168137 388.831970,178.616730 386.001892,182.329422 
	C383.023621,186.236450 381.325745,191.187958 379.494049,195.850342 
	C379.059265,196.957077 380.720123,198.740402 380.685333,200.194992 
	C380.654694,201.476242 379.601868,202.733017 378.659851,203.825668 
	C373.575836,200.869110 368.827759,201.316666 363.678284,205.041946 
	C362.905609,205.721771 362.453400,206.360275 361.972260,207.331009 
	C361.295135,208.775879 360.646942,209.888519 359.639587,210.997650 
	C358.467010,210.593460 357.653625,210.192764 356.840210,209.792084 
	C356.853424,209.092407 356.866638,208.392715 357.276611,207.293640 
	C358.771667,204.240494 359.869965,201.586731 360.968262,198.932968 
	C360.968262,198.932968 360.979126,198.466309 361.331055,198.183533 
	C362.263214,197.346970 362.976990,196.880371 363.403931,196.226486 
	C371.464417,183.880371 381.994843,174.068680 394.782166,166.907791 
	C403.950195,161.773712 414.004730,158.827698 424.552917,158.045609 
	C428.355286,157.763687 432.202484,157.860580 436.017822,158.034546 
	C441.035858,158.263336 446.327026,156.738022 450.926483,160.296112 
	C451.360718,160.632004 452.941895,159.485229 453.990570,159.026810 
	C454.436798,159.033463 454.883057,159.040131 455.713135,159.435730 
	C459.840881,161.891663 463.502014,164.132553 467.356628,165.966782 
	C470.098328,167.271393 473.100739,168.028152 475.986786,169.029419 
	C476.822235,169.558441 477.657654,170.087463 478.796631,171.147156 
	C481.715759,173.125000 484.331421,174.572159 486.947052,176.019318 
	C487.221283,176.205734 487.495514,176.392166 487.917358,177.147202 
	C492.156067,182.413635 496.177521,187.175735 500.402527,191.749786 
	C501.159241,192.569016 502.757233,192.611145 503.966797,193.012085 
	C504.235931,193.205704 504.505066,193.399323 504.888428,194.193497 
	C507.005219,197.863342 509.007751,200.932648 511.010284,204.001968 
	C512.325806,206.432770 513.641357,208.863556 514.981750,212.002502 
	C515.664246,213.474075 516.321899,214.237503 516.979553,215.000946 
	C517.154358,215.563004 517.329224,216.125061 517.787354,217.246429 
	C519.381226,222.536835 520.691833,227.267929 521.773560,232.169128 
	C522.023315,232.892395 522.501892,233.445557 522.984802,234.374298 
	C522.326904,236.497986 521.664673,238.246063 521.140015,240.282867 
	C522.170837,241.051239 523.064148,241.530884 523.966064,242.463562 
	C523.968811,245.940506 523.963013,248.964417 523.600220,251.999100 
	C522.546692,252.466751 521.850342,252.923630 521.153931,253.380493 
	C521.768494,253.920593 522.382996,254.460693 522.999146,255.426636 
	C521.992737,260.764221 520.960938,265.671295 519.984741,270.589325 
	C519.296570,274.056152 518.683655,277.537964 518.037109,281.013062 
	C518.015686,281.448181 517.994202,281.883270 517.628723,282.699280 
	C516.878174,283.750275 516.471619,284.420349 516.065063,285.090393 
	C515.726257,285.852905 515.387512,286.615417 514.793213,287.808960 
	C514.367859,288.521973 514.197998,288.803925 514.028137,289.085876 
	C512.898621,291.270325 511.769073,293.454742 510.017944,295.856506 
	C506.944366,298.734314 504.492401,301.394775 502.040436,304.055237 
	C502.040436,304.055237 501.994659,304.021667 501.639221,304.024567 
	C500.538818,305.051178 499.793884,306.074890 499.048950,307.098572 
	C496.915253,309.311768 494.781616,311.524963 491.969879,313.877380 
	C489.773743,314.622559 488.095276,314.988800 486.766541,315.877808 
	C482.089264,319.007141 480.006866,318.863007 477.128876,314.045654 
	C475.477020,311.280701 474.883545,307.905365 473.439850,304.989868 
	C469.700043,297.437347 470.706848,293.878021 476.166840,287.735504 
	C479.805847,283.641632 483.119598,278.768219 483.010010,272.655670 
	C482.959229,269.823517 482.444031,266.838165 483.145569,264.188690 
	C484.479706,259.149963 482.393036,255.086197 480.337708,250.986984 
	C473.996216,238.339462 463.444061,229.119095 454.001770,219.001068 
	C454.005127,218.251007 454.008453,217.500961 454.388367,216.314209 
	C455.832306,214.278336 457.691620,212.745285 457.831665,211.068634 
	C458.479980,203.306091 459.094513,195.483795 458.747009,187.726532 
	C458.628784,185.087357 455.656982,182.576004 453.989075,180.006241 
	C453.989075,180.006241 454.000000,179.999619 453.991882,179.602325 
	C452.815216,178.140381 451.721313,176.270523 450.464844,176.153961 
	C445.658051,175.708099 441.752380,176.329315 440.350098,182.583115 
	C439.124542,188.048706 434.342010,192.827820 437.984436,198.992874 
	C437.983826,200.061203 437.983215,201.129517 437.604614,202.667328 
	C435.497711,211.464691 430.602966,215.637680 421.957703,216.944244 
	C416.506348,217.768127 411.400513,219.610245 406.063110,216.993668 
M494.413361,267.061676 
	C494.275574,267.707367 494.137787,268.353088 493.992096,269.721283 
	C493.327637,271.481262 492.663208,273.241241 491.293762,275.119232 
	C490.196259,277.745758 489.098755,280.372284 487.931030,283.707886 
	C486.286530,286.805511 484.642029,289.903168 482.277313,293.134735 
	C480.540863,295.049316 479.907410,296.800293 483.008942,298.746399 
	C484.673035,300.164673 486.337128,301.582947 488.134766,303.721802 
	C490.049255,305.459961 491.799896,306.092255 493.666382,303.000916 
	C494.111328,303.001038 494.556274,303.001129 495.393311,303.494659 
	C500.408417,302.714203 503.001984,299.195160 505.076294,294.271942 
	C505.717926,292.181061 506.359558,290.090179 507.698578,287.890228 
	C508.798645,285.593536 509.898682,283.296844 510.999481,280.249847 
	C511.000061,279.499481 511.000641,278.749146 511.717865,277.875397 
	C513.790405,271.795776 515.888245,265.724426 517.877808,259.617798 
	C518.008423,259.216827 517.311829,258.546356 516.999939,257.200836 
	C517.000732,256.133636 517.001587,255.066452 517.684937,253.887909 
	C517.789978,252.592331 517.895020,251.296768 518.000000,249.200714 
	C518.000000,248.133408 518.000000,247.066101 518.556152,245.496353 
	C518.038269,243.664505 517.520325,241.832657 517.000793,239.200409 
	C517.000549,238.133194 517.000305,237.065964 517.539795,235.541534 
	C516.693176,233.361221 515.846619,231.180923 515.000000,228.333359 
	C515.000000,227.888519 515.000000,227.443695 515.510376,226.601349 
	C515.007751,225.734436 514.505066,224.867523 514.000732,223.200378 
	C514.000488,222.133377 514.000244,221.066391 513.916931,219.358078 
	C513.277954,218.905396 512.638977,218.452698 511.414307,217.557083 
	C509.190369,213.337738 505.215820,215.562912 501.656677,214.542068 
	C501.104858,215.027634 500.553040,215.513214 499.500000,215.999893 
	C499.332916,216.000122 499.165863,216.000366 498.357880,216.083344 
	C497.905670,216.721817 497.453461,217.360306 497.000000,218.500000 
	C496.999603,218.667068 496.999176,218.834152 496.274841,219.129196 
	C494.664459,221.699341 491.993225,224.232269 495.999634,227.666641 
	C495.999725,228.111481 495.999786,228.556305 495.460175,229.458466 
	C496.306396,231.638687 497.152588,233.818909 497.999573,236.799530 
	C497.999725,237.866745 497.999878,238.933975 497.542511,240.343002 
	C498.027527,240.895126 498.512543,241.447250 498.998840,242.856506 
	C498.998413,244.571243 498.997986,246.285980 498.315125,248.112045 
	C498.210083,249.407578 498.105042,250.703125 497.999908,252.823547 
	C497.666199,255.216095 497.332489,257.608673 496.328796,260.102051 
	C495.885834,261.734283 495.442841,263.366547 494.999969,265.666260 
	C494.999573,266.111237 494.999176,266.556244 494.413361,267.061676 
M492.053558,190.024567 
	C489.777985,190.283661 487.394470,190.197250 485.247375,190.867752 
	C479.208099,192.753723 477.047943,200.475784 480.986786,205.443314 
	C483.773407,208.957748 487.410858,211.189606 491.795532,209.756424 
	C496.181152,208.322937 499.735962,205.232407 499.885101,200.130402 
	C500.026581,195.290131 498.109619,191.426590 492.053558,190.024567 
z"/>
<path fill="#FCFBFC" opacity="1.000000" stroke="none" 
	d="
M356.511108,209.900085 
	C357.653625,210.192764 358.467010,210.593460 359.632874,211.394028 
	C358.665802,216.892426 356.949585,221.925842 356.100281,227.101517 
	C353.413635,243.473083 355.134064,259.671448 359.136322,275.626526 
	C361.957184,286.872040 368.218597,290.755371 377.933105,288.373718 
	C373.818878,289.659821 369.770752,290.573425 364.985443,291.653412 
	C377.401459,306.284210 394.469238,313.539368 412.156281,319.977295 
	C415.506958,309.961365 414.316132,307.976959 405.175903,303.436890 
	C398.012451,299.878662 391.966370,294.824341 388.784332,286.981964 
	C387.668243,284.231201 385.742676,281.808899 384.515320,279.779785 
	C382.506165,282.410339 380.753693,284.704803 379.046509,286.620422 
	C381.771332,282.687073 381.237793,278.872589 380.348511,275.056244 
	C381.745697,275.747223 382.795563,276.383179 384.003571,277.114929 
	C384.774963,275.522400 385.385101,274.262756 385.995239,273.003143 
	C387.294739,276.362915 388.354919,279.840393 389.938812,283.060272 
	C394.626343,292.589630 401.339508,299.997467 411.920746,303.165680 
	C417.729034,304.904816 418.676666,306.786041 417.669067,312.670868 
	C417.141846,315.750122 417.186646,318.927307 416.958923,322.513123 
	C407.682678,319.605865 398.158600,316.820801 389.221588,312.747620 
	C376.569733,306.981384 365.700439,298.631073 357.957336,286.777191 
	C357.004700,285.318787 356.607208,283.497711 355.934204,281.137604 
	C355.302979,279.946564 354.690033,279.462585 354.077026,278.978638 
	C354.035828,278.256958 353.994598,277.535278 353.928223,276.051819 
	C352.582581,269.854279 351.262146,264.418549 349.941711,258.982788 
	C349.939667,258.559113 349.937653,258.135468 349.963806,256.917603 
	C349.976532,249.388519 349.961060,242.653656 349.945587,235.918793 
	C349.940796,235.496582 349.935974,235.074356 350.221619,234.097595 
	C350.363495,231.702072 350.214966,229.861084 350.066437,228.020096 
	C350.066864,227.576508 350.067291,227.132904 350.442139,226.272980 
	C351.862000,222.213577 352.907349,218.570511 353.952698,214.927444 
	C354.695770,213.287643 355.438873,211.647858 356.511108,209.900085 
z"/>
<path fill="#FCFBFC" opacity="1.000000" stroke="none" 
	d="
M453.728027,219.241058 
	C463.444061,229.119095 473.996216,238.339462 480.337708,250.986984 
	C482.393036,255.086197 484.479706,259.149963 483.145569,264.188690 
	C482.444031,266.838165 482.959229,269.823517 483.010010,272.655670 
	C483.119598,278.768219 479.805847,283.641632 476.166840,287.735504 
	C470.706848,293.878021 469.700043,297.437347 473.439850,304.989868 
	C474.883545,307.905365 475.477020,311.280701 477.128876,314.045654 
	C480.006866,318.863007 482.089264,319.007141 486.766541,315.877808 
	C488.095276,314.988800 489.773743,314.622559 491.674103,314.021301 
	C488.340820,318.451324 483.482117,320.558777 477.416290,321.063416 
	C474.012634,313.552338 471.085052,305.994507 467.986389,298.507507 
	C466.765228,295.556824 466.744507,293.178436 469.465424,291.003876 
	C487.295135,276.754242 482.319061,253.009598 469.339233,238.937271 
	C465.074524,234.313644 459.956787,230.480286 455.646240,225.893524 
	C454.236847,224.393860 454.147369,221.653809 453.728027,219.241058 
z"/>
<path fill="#FCFBFC" opacity="1.000000" stroke="none" 
	d="
M453.765320,158.731888 
	C452.941895,159.485229 451.360718,160.632004 450.926483,160.296112 
	C446.327026,156.738022 441.035858,158.263336 436.017822,158.034546 
	C432.202484,157.860580 428.355286,157.763687 424.552917,158.045609 
	C414.004730,158.827698 403.950195,161.773712 394.782166,166.907791 
	C381.994843,174.068680 371.464417,183.880371 363.403931,196.226486 
	C362.976990,196.880371 362.263214,197.346970 361.343262,197.950470 
	C364.863159,187.883743 372.005310,180.075882 380.242371,173.702728 
	C396.710907,160.960785 415.654144,154.437515 436.624878,155.178589 
	C442.294586,155.378952 447.903320,157.303711 453.765320,158.731888 
z"/>
<path fill="#F2F2F2" opacity="1.000000" stroke="none" 
	d="
M523.957275,251.988312 
	C523.963013,248.964417 523.968811,245.940506 523.926514,242.117615 
	C522.919800,240.877121 521.961121,240.435638 521.002441,239.994141 
	C521.664673,238.246063 522.326904,236.497986 523.222412,234.373566 
	C523.455627,233.997223 523.930115,234.009079 523.930115,234.009079 
	C526.442383,241.329651 526.640686,248.805008 524.936096,256.266632 
	C523.054260,264.504028 520.828186,272.662720 518.394531,280.934387 
	C518.683655,277.537964 519.296570,274.056152 519.984741,270.589325 
	C520.960938,265.671295 521.992737,260.764221 523.125244,255.131378 
	C523.485657,253.602951 523.721436,252.795639 523.957275,251.988312 
z"/>
<path fill="#FCFBFC" opacity="1.000000" stroke="none" 
	d="
M503.941345,192.667618 
	C502.757233,192.611145 501.159241,192.569016 500.402527,191.749786 
	C496.177521,187.175735 492.156067,182.413635 488.026794,177.374969 
	C493.297668,182.130463 498.606781,187.226807 503.941345,192.667618 
z"/>
<path fill="#FCFBFC" opacity="1.000000" stroke="none" 
	d="
M475.828644,168.718353 
	C473.100739,168.028152 470.098328,167.271393 467.356628,165.966782 
	C463.502014,164.132553 459.840881,161.891663 456.046021,159.472809 
	C462.553528,162.216385 469.112000,165.311844 475.828644,168.718353 
z"/>
<path fill="#F2F2F2" opacity="1.000000" stroke="none" 
	d="
M349.560669,236.039612 
	C349.961060,242.653656 349.976532,249.388519 349.970642,256.599915 
	C349.505280,256.866669 348.670319,256.650116 348.673828,256.448151 
	C348.791718,249.684723 348.989563,242.922684 349.560669,236.039612 
z"/>
<path fill="#F2F2F2" opacity="1.000000" stroke="none" 
	d="
M349.674133,259.256775 
	C351.262146,264.418549 352.582581,269.854279 353.922363,275.690369 
	C349.142303,271.471069 349.899933,265.329620 349.674133,259.256775 
z"/>
<path fill="#F2F2F2" opacity="1.000000" stroke="none" 
	d="
M522.002441,231.999023 
	C520.691833,227.267929 519.381226,222.536835 518.024536,217.428741 
	C519.965332,221.778687 521.952209,226.505630 523.599365,231.624863 
	C522.840637,232.011124 522.421509,232.005081 522.002441,231.999023 
z"/>
<path fill="#FCFBFC" opacity="1.000000" stroke="none" 
	d="
M502.401154,304.035583 
	C504.492401,301.394775 506.944366,298.734314 509.753479,296.061493 
	C507.661011,298.704742 505.211426,301.360352 502.401154,304.035583 
z"/>
<path fill="#FCFBFC" opacity="1.000000" stroke="none" 
	d="
M511.243286,203.799377 
	C509.007751,200.932648 507.005219,197.863342 504.991455,194.424194 
	C507.145599,197.235168 509.310944,200.415970 511.243286,203.799377 
z"/>
<path fill="#F2F2F2" opacity="1.000000" stroke="none" 
	d="
M353.598511,215.021912 
	C352.907349,218.570511 351.862000,222.213577 350.464844,225.940933 
	C351.156830,222.388947 352.200592,218.752670 353.598511,215.021912 
z"/>
<path fill="#FCFBFC" opacity="1.000000" stroke="none" 
	d="
M360.659241,199.104523 
	C359.869965,201.586731 358.771667,204.240494 357.315277,206.945755 
	C358.088165,204.423523 359.219177,201.849808 360.659241,199.104523 
z"/>
<path fill="#FCFBFC" opacity="1.000000" stroke="none" 
	d="
M486.814087,175.707611 
	C484.331421,174.572159 481.715759,173.125000 479.050476,171.331543 
	C481.560913,172.455460 484.121033,173.925690 486.814087,175.707611 
z"/>
<path fill="#F2F2F2" opacity="1.000000" stroke="none" 
	d="
M349.783539,228.255280 
	C350.214966,229.861084 350.363495,231.702072 350.224792,233.780914 
	C349.791931,232.176010 349.646301,230.333252 349.783539,228.255280 
z"/>
<path fill="#FCFBFC" opacity="1.000000" stroke="none" 
	d="
M521.773560,232.169128 
	C522.421509,232.005081 522.840637,232.011124 523.571777,232.025879 
	C523.910339,232.472961 523.936829,232.911346 523.946716,233.679413 
	C523.930115,234.009079 523.455627,233.997223 523.218018,233.997971 
	C522.501892,233.445557 522.023315,232.892395 521.773560,232.169128 
z"/>
<path fill="#FCFBFC" opacity="1.000000" stroke="none" 
	d="
M499.324524,306.952423 
	C499.793884,306.074890 500.538818,305.051178 501.663971,304.033875 
	C501.229462,304.962280 500.414764,305.884247 499.324524,306.952423 
z"/>
<path fill="#FCFBFC" opacity="1.000000" stroke="none" 
	d="
M516.986877,214.649979 
	C516.321899,214.237503 515.664246,213.474075 515.002075,212.358383 
	C515.663086,212.770432 516.328674,213.534714 516.986877,214.649979 
z"/>
<path fill="#F2F2F2" opacity="1.000000" stroke="none" 
	d="
M354.092102,279.299713 
	C354.690033,279.462585 355.302979,279.946564 355.931366,280.757538 
	C355.333588,280.596649 354.720367,280.108704 354.092102,279.299713 
z"/>
<path fill="#F2F2F2" opacity="1.000000" stroke="none" 
	d="
M516.379272,285.023254 
	C516.471619,284.420349 516.878174,283.750275 517.601135,283.024902 
	C517.509521,283.631805 517.101501,284.293976 516.379272,285.023254 
z"/>
<path fill="#FCFBFC" opacity="1.000000" stroke="none" 
	d="
M514.251160,288.968018 
	C514.197998,288.803925 514.367859,288.521973 514.758606,288.122253 
	C514.811035,288.286407 514.642578,288.568298 514.251160,288.968018 
z"/>
<path fill="#FFFFFF" opacity="1.000000" stroke="none" 
	d="
M478.784698,502.982727 
	C493.495972,503.471771 505.487122,515.830872 505.998566,530.567505 
	C506.039001,531.732483 505.860687,532.923035 506.037262,534.062439 
	C507.491577,543.446411 504.396210,550.769226 496.928894,556.760315 
	C492.374725,560.414185 492.935883,562.000793 497.767395,565.458618 
	C509.848297,574.104553 515.545044,586.072632 513.769104,600.680481 
	C512.727295,609.249695 507.826813,616.684021 502.181122,623.266357 
	C494.733551,631.949402 486.032593,638.963074 475.073792,642.889587 
	C467.928040,645.450012 456.567474,643.764893 452.177765,634.226379 
	C450.940948,631.538879 449.681885,628.832275 448.118866,626.330811 
	C445.490051,622.123596 443.205688,621.831299 440.768555,626.009644 
	C436.382721,633.528809 429.560822,638.199219 422.567535,642.603333 
	C411.017242,649.877136 399.111603,650.002808 387.490723,642.673035 
	C379.716980,637.769775 372.273560,632.294128 369.080902,623.111450 
	C364.769836,610.712097 372.590729,596.052185 387.076782,594.903503 
	C388.977081,594.752808 390.778290,593.351990 392.625397,592.530212 
	C391.626831,590.807739 391.026855,588.561829 389.564545,587.448425 
	C380.606750,580.628052 376.514374,571.412720 376.051666,560.495056 
	C375.745667,553.274353 375.387817,546.046326 379.621552,539.388977 
	C386.044342,529.289429 395.004852,522.992798 406.666870,521.170837 
	C411.541290,520.409363 416.721069,521.375183 421.737091,521.830139 
	C424.859314,522.113403 426.482086,520.882690 427.006897,517.946167 
	C428.018555,512.285278 428.727936,506.552307 430.094666,500.979645 
	C430.928650,497.579163 432.754822,494.421997 434.135315,491.155518 
	C434.597504,491.167664 435.059692,491.179810 435.521881,491.191986 
	C438.317535,496.850067 441.248505,502.446533 443.862457,508.187347 
	C445.682678,512.185059 447.496429,512.759094 451.462494,510.268646 
	C459.572449,505.175964 468.495178,502.180298 478.784698,502.982727 
z"/>
<path fill="#FBEA8A" opacity="1.000000" stroke="none" 
	d="
M361.056580,425.983337 
	C385.238525,426.650360 408.966064,427.537476 432.700836,427.818848 
	C438.857513,427.891815 445.028076,426.008606 451.208771,425.141602 
	C454.808502,424.636688 458.444702,424.397369 462.058105,423.982819 
	C471.546295,422.894348 481.019318,421.659454 490.520752,420.705719 
	C497.923248,419.962677 505.359406,419.555511 512.780396,418.996765 
	C516.110779,418.746033 517.088257,420.494354 517.058716,423.569855 
	C516.962708,433.560638 516.980347,443.553101 517.041687,453.544373 
	C517.058533,456.292572 516.299805,457.833282 513.182251,458.100433 
	C503.471802,458.932556 493.797211,460.672119 484.083191,460.883209 
	C453.323181,461.551788 422.547119,461.485626 391.787628,462.169800 
	C384.265259,462.337128 376.736053,464.042938 369.292694,465.472076 
	C358.838440,467.479279 351.566864,461.712524 350.862213,451.198120 
	C350.451477,445.069183 348.888641,439.014038 347.790161,432.935455 
	C346.390472,425.189789 346.856262,424.591492 354.736298,425.030945 
	C356.703979,425.140686 358.649261,425.651306 361.056580,425.983337 
z"/>
<path fill="#EC8885" opacity="1.000000" stroke="none" 
	d="
M258.914856,326.272156 
	C261.567108,322.697998 264.545837,319.633728 266.713043,316.075226 
	C270.222748,310.312439 272.996155,304.103577 276.457733,298.308411 
	C280.047546,292.298584 284.075348,286.549622 287.954620,280.715179 
	C288.189880,280.361359 288.804413,280.259705 289.607666,280.394348 
	C289.269226,285.117523 288.473083,289.474609 287.880585,293.859192 
	C286.534149,303.823303 284.486694,313.774170 284.152618,323.778137 
	C283.188660,352.641541 284.124695,381.459686 288.979248,410.026367 
	C281.379700,411.412659 273.780121,412.798950 266.077087,414.571411 
	C265.538147,414.976318 265.102692,414.995087 264.046753,414.712219 
	C260.296112,414.277039 257.164734,414.166534 254.036011,414.005157 
	C247.100174,413.647491 239.359390,406.869080 239.139908,399.970703 
	C238.899078,392.401794 239.449066,384.782410 240.109879,377.224823 
	C240.322418,374.794128 242.141876,372.543365 242.944153,370.117004 
	C244.938065,364.086853 246.810150,358.015259 248.647644,351.935089 
	C249.464233,349.233063 250.079422,346.470184 250.786011,343.734924 
	C250.818924,343.345886 250.851837,342.956848 251.292084,342.241638 
	C252.765244,340.805115 254.046951,339.829742 254.845352,338.552307 
	C255.989670,336.721436 256.926941,334.723907 257.676483,332.695496 
	C258.259918,331.116669 258.421967,329.382141 258.771301,327.716797 
	C258.806519,327.331238 258.841766,326.945679 258.914856,326.272156 
z"/>
<path fill="#E67F7C" opacity="1.000000" stroke="none" 
	d="
M289.409882,410.028625 
	C284.124695,381.459686 283.188660,352.641541 284.152618,323.778137 
	C284.486694,313.774170 286.534149,303.823303 287.880585,293.859192 
	C288.473083,289.474609 289.269226,285.117523 289.961792,280.343689 
	C290.274384,278.483826 290.598145,277.028198 290.863037,275.190002 
	C291.029175,274.303223 291.254181,273.799042 291.699158,273.121613 
	C293.462555,271.715790 295.005951,270.483215 296.816406,269.037323 
	C297.184601,269.618805 297.976440,270.287079 297.904449,270.843567 
	C296.931824,278.360199 295.840729,285.861542 294.775330,293.366150 
	C294.198212,297.431213 293.494080,301.482422 293.056091,305.562317 
	C291.770447,317.536774 290.374817,329.505981 289.451141,341.510223 
	C288.930450,348.277283 288.868530,355.133789 289.296753,361.905975 
	C289.826843,370.289612 290.892639,378.654175 292.079865,386.976654 
	C292.995605,393.396057 291.815430,400.247711 295.997559,406.069519 
	C297.635986,408.350342 296.545532,409.819061 293.829987,409.998657 
	C292.505249,410.086273 291.170654,410.024841 289.409882,410.028625 
z"/>
<path fill="#E09D9B" opacity="1.000000" stroke="none" 
	d="
M250.465668,343.875427 
	C250.079422,346.470184 249.464233,349.233063 248.647644,351.935089 
	C246.810150,358.015259 244.938065,364.086853 242.944153,370.117004 
	C242.141876,372.543365 240.322418,374.794128 240.109879,377.224823 
	C239.449066,384.782410 238.899078,392.401794 239.139908,399.970703 
	C239.359390,406.869080 247.100174,413.647491 254.036011,414.005157 
	C257.164734,414.166534 260.296112,414.277039 263.719635,414.705322 
	C245.823303,419.108276 238.094223,411.986786 236.116409,394.123291 
	C234.641632,380.803162 240.738892,368.873779 244.762207,356.649628 
	C246.188141,352.317139 248.330200,348.220367 250.465668,343.875427 
z"/>
<path fill="#E09D9B" opacity="1.000000" stroke="none" 
	d="
M258.447876,327.837708 
	C258.421967,329.382141 258.259918,331.116669 257.676483,332.695496 
	C256.926941,334.723907 255.989670,336.721436 254.845352,338.552307 
	C254.046951,339.829742 252.765244,340.805115 251.331711,341.951447 
	C253.350800,337.311188 255.737610,332.634918 258.447876,327.837708 
z"/>
<path fill="#F9DFE5" opacity="1.000000" stroke="none" 
	d="
M439.987091,254.015106 
	C440.712158,255.034851 441.248138,256.296906 442.193359,257.034576 
	C447.878326,261.471222 450.951447,267.277252 449.586609,274.349487 
	C448.037811,282.374695 442.040802,285.936951 434.282471,286.953064 
	C427.811523,287.800568 420.568878,284.386871 418.282440,279.320862 
	C415.317047,272.750366 416.855988,263.485962 422.245026,259.132202 
	C428.647247,263.403961 435.416412,261.892212 437.713867,255.566406 
	C437.776947,254.865860 437.777924,254.462143 438.147400,254.019623 
	C439.006317,253.992233 439.496704,254.003677 439.987091,254.015106 
z"/>
<path fill="#FFFFFF" opacity="1.000000" stroke="none" 
	d="
M386.002380,272.669373 
	C385.385101,274.262756 384.774963,275.522400 384.003571,277.114929 
	C382.795563,276.383179 381.745697,275.747223 380.204529,274.730469 
	C378.808441,271.566040 377.903595,268.782410 376.998291,265.622925 
	C376.332306,264.165131 375.666779,263.083160 375.000793,261.625916 
	C375.000244,260.500000 375.000122,259.749390 375.265472,258.777802 
	C375.021027,257.371552 374.511139,256.186279 374.000793,254.532364 
	C374.000671,247.042191 374.000946,240.020645 374.342590,232.943573 
	C374.789307,231.592438 374.894653,230.296829 375.000000,228.667572 
	C375.000427,227.889084 375.000824,227.444229 375.350067,226.944916 
	C376.465546,225.260498 377.232147,223.630554 378.004181,221.626282 
	C378.673492,219.167786 379.337372,217.083588 380.384766,214.955429 
	C381.977448,214.660614 383.186615,214.409775 383.814423,214.279526 
	C385.137695,219.551254 385.679565,224.587936 387.674805,228.961578 
	C390.433777,235.009186 390.361145,240.264084 386.661926,245.751495 
	C385.428375,247.581436 384.807465,249.903992 384.253052,252.089264 
	C383.724396,254.172928 383.943451,256.463348 383.309509,258.499634 
	C382.015167,262.657410 383.167480,268.884491 385.953552,271.001709 
	C385.972198,271.446320 385.990845,271.890961 386.002380,272.669373 
z"/>
<path fill="#FCFBFC" opacity="1.000000" stroke="none" 
	d="
M385.973389,270.535400 
	C383.167480,268.884491 382.015167,262.657410 383.309509,258.499634 
	C383.943451,256.463348 383.724396,254.172928 384.253052,252.089264 
	C384.807465,249.903992 385.428375,247.581436 386.661926,245.751495 
	C390.361145,240.264084 390.433777,235.009186 387.674805,228.961578 
	C385.679565,224.587936 385.137695,219.551254 383.814423,214.279526 
	C383.186615,214.409775 381.977448,214.660614 380.389740,214.578033 
	C379.674316,210.829941 379.337402,207.415283 379.000488,204.000610 
	C379.601868,202.733017 380.654694,201.476242 380.685333,200.194992 
	C380.720123,198.740402 379.059265,196.957077 379.494049,195.850342 
	C381.325745,191.187958 383.023621,186.236450 386.001892,182.329422 
	C388.831970,178.616730 394.436249,179.168137 398.014465,182.585953 
	C401.233643,185.660751 404.291870,188.103241 403.519592,194.122803 
	C402.832306,199.479828 406.081879,205.319977 407.436829,210.984467 
	C407.641632,211.840622 406.991699,212.901245 406.374451,213.932556 
	C404.031616,206.185455 402.163239,198.342239 400.022125,190.574219 
	C399.012848,186.912582 397.792511,183.184387 392.854248,182.962631 
	C387.685486,182.730515 385.646393,186.152359 384.893646,190.248367 
	C384.153076,194.278198 383.406342,198.693939 384.299133,202.562592 
	C386.747131,213.170288 390.127686,223.560013 392.957123,234.084930 
	C393.473785,236.006836 393.978516,238.725891 393.049652,240.113892 
	C386.914307,249.281708 385.338806,259.379395 385.973389,270.535400 
z"/>
<path fill="#F9DFE5" opacity="1.000000" stroke="none" 
	d="
M397.689758,212.531860 
	C398.403778,215.665588 399.012939,218.396774 399.541199,221.143509 
	C400.164215,224.382874 401.037933,227.729492 396.290100,230.270020 
	C394.499786,226.119583 392.394592,222.294693 391.201477,218.203796 
	C389.738098,213.186356 388.811462,207.974777 388.160736,202.783447 
	C387.991394,201.432404 389.712067,199.844452 390.564636,198.365311 
	C391.757904,199.349548 393.511963,200.100555 394.036926,201.362762 
	C395.482941,204.839417 396.414185,208.530151 397.689758,212.531860 
z"/>
<path fill="#F9DFE5" opacity="1.000000" stroke="none" 
	d="
M445.190033,216.966522 
	C443.744751,215.149200 441.779358,213.293152 441.865479,211.537735 
	C442.166229,205.406006 443.137024,199.303802 443.968964,193.206161 
	C444.063934,192.509857 444.888916,191.913147 445.444275,191.179276 
	C450.515594,192.625839 449.506897,197.272690 449.671356,200.277557 
	C449.936859,205.128113 448.693878,210.081345 447.857391,214.951614 
	C447.723480,215.731354 446.389679,216.305008 445.190033,216.966522 
z"/>
<path fill="#FCFBFC" opacity="1.000000" stroke="none" 
	d="
M406.039856,217.407959 
	C411.400513,219.610245 416.506348,217.768127 421.957703,216.944244 
	C430.602966,215.637680 435.497711,211.464691 437.582062,203.067383 
	C437.951324,206.639252 437.920776,210.281433 437.994049,213.921524 
	C438.046021,216.503815 437.135773,218.080368 434.302887,218.000275 
	C425.020142,217.737778 416.522980,220.452118 407.527405,225.613525 
	C406.954163,222.657410 406.485382,220.239822 406.039856,217.407959 
z"/>
<path fill="#FCFBFC" opacity="1.000000" stroke="none" 
	d="
M454.035767,180.394806 
	C455.656982,182.576004 458.628784,185.087357 458.747009,187.726532 
	C459.094513,195.483795 458.479980,203.306091 457.831665,211.068634 
	C457.691620,212.745285 455.832306,214.278336 454.411926,215.939835 
	C454.705994,207.969467 455.637054,199.945129 455.872894,191.900406 
	C455.980927,188.215378 454.721649,184.490295 454.035767,180.394806 
z"/>
<path fill="#E67F7C" opacity="1.000000" stroke="none" 
	d="
M437.778931,254.058426 
	C437.777924,254.462143 437.776947,254.865860 437.392090,255.656311 
	C435.161774,257.035278 433.402252,258.267700 431.452087,258.973175 
	C426.302460,260.836060 424.467072,259.523529 423.884094,253.879410 
	C424.462280,253.393982 425.040497,252.908569 426.160522,252.214371 
	C427.495880,251.636581 428.289368,251.267563 429.082855,250.898560 
	C430.104736,250.893127 431.126648,250.887695 432.723877,251.158051 
	C434.792450,252.308701 436.285706,253.183563 437.778931,254.058426 
z"/>
<path fill="#FCFBFC" opacity="1.000000" stroke="none" 
	d="
M438.270081,198.729980 
	C434.342010,192.827820 439.124542,188.048706 440.350098,182.583115 
	C441.752380,176.329315 445.658051,175.708099 450.464844,176.153961 
	C451.721313,176.270523 452.815216,178.140381 453.988586,179.607208 
	C447.288513,176.665741 443.721222,178.221558 441.692322,185.561951 
	C440.513519,189.826843 439.592621,194.163010 438.270081,198.729980 
z"/>
<path fill="#E67F7C" opacity="1.000000" stroke="none" 
	d="
M420.548889,255.303833 
	C418.673248,256.557556 416.358582,258.627686 415.335205,258.115845 
	C413.545410,257.220734 411.729523,254.818970 411.542023,252.891190 
	C411.437408,251.815887 414.561432,249.443542 416.286194,249.388138 
	C419.398254,249.288116 421.439362,251.337280 420.548889,255.303833 
z"/>
<path fill="#E67F7C" opacity="1.000000" stroke="none" 
	d="
M437.892120,250.817444 
	C438.453918,245.364960 440.564667,244.000641 444.810486,247.156616 
	C445.062592,248.866913 445.077789,249.919403 445.092987,250.971863 
	C443.702118,251.712448 442.311279,252.453033 440.389526,252.876129 
	C439.203094,251.978256 438.547607,251.397858 437.892120,250.817444 
z"/>
<path fill="#E09D9B" opacity="1.000000" stroke="none" 
	d="
M423.549255,254.003021 
	C424.467072,259.523529 426.302460,260.836060 431.452087,258.973175 
	C433.402252,258.267700 435.161774,257.035278 437.329987,255.953156 
	C435.416412,261.892212 428.647247,263.403961 422.578735,258.955627 
	C422.611237,257.203461 422.912842,255.665024 423.549255,254.003021 
z"/>
<path fill="#E09D9B" opacity="1.000000" stroke="none" 
	d="
M437.558228,250.861450 
	C438.547607,251.397858 439.203094,251.978256 440.024170,252.848480 
	C440.189758,253.138306 440.062134,253.570496 440.024597,253.792801 
	C439.496704,254.003677 439.006317,253.992233 438.147430,254.019623 
	C436.285706,253.183563 434.792450,252.308701 433.107117,251.158997 
	C434.351440,250.891251 435.787872,250.898361 437.558228,250.861450 
z"/>
<path fill="#E09D9B" opacity="1.000000" stroke="none" 
	d="
M445.426208,250.931808 
	C445.077789,249.919403 445.062592,248.866913 445.059509,247.420471 
	C445.300903,248.314926 445.530151,249.603333 445.426208,250.931808 
z"/>
<path fill="#E09D9B" opacity="1.000000" stroke="none" 
	d="
M428.850220,250.680939 
	C428.289368,251.267563 427.495880,251.636581 426.354736,252.005524 
	C426.877228,251.491425 427.747406,250.977386 428.850220,250.680939 
z"/>
<path fill="#F7FFFF" opacity="1.000000" stroke="none" 
	d="
M498.998779,216.000610 
	C499.165863,216.000366 499.332916,216.000122 500.048279,215.979019 
	C501.063934,215.638565 501.531372,215.318970 501.998779,214.999390 
	C505.215820,215.562912 509.190369,213.337738 511.748718,218.099243 
	C512.722107,219.094055 513.361023,219.546722 514.000000,219.999390 
	C514.000244,221.066391 514.000488,222.133377 514.002686,223.938507 
	C514.336426,225.450714 514.668213,226.224792 515.000000,226.998856 
	C515.000000,227.443695 515.000000,227.888519 515.006348,229.050262 
	C515.675049,231.844376 516.337524,233.921570 517.000000,235.998749 
	C517.000305,237.065964 517.000549,238.133194 517.000854,240.004761 
	C517.333984,242.539017 517.666992,244.268906 518.000000,245.998795 
	C518.000000,247.066101 518.000000,248.133408 517.727417,249.832062 
	C517.304077,251.642014 517.153259,252.820633 517.002441,253.999252 
	C517.001587,255.066452 517.000732,256.133636 516.720825,257.847595 
	C514.628235,264.995819 512.814697,271.497314 511.001221,277.998779 
	C511.000641,278.749146 511.000061,279.499481 510.652527,280.681030 
	C509.204102,283.407898 508.102661,285.703613 507.001221,287.999298 
	C506.359558,290.090179 505.717926,292.181061 504.692871,294.670135 
	C501.206696,297.712616 498.103943,300.356934 495.001221,303.001221 
	C494.556274,303.001129 494.111328,303.001038 492.916229,303.001038 
	C490.777802,303.001160 489.389496,303.001190 488.001221,303.001221 
	C486.337128,301.582947 484.673035,300.164673 482.979736,298.051910 
	C482.966187,295.905212 482.981873,294.453033 482.997559,293.000824 
	C484.642029,289.903168 486.286530,286.805511 488.318665,283.294373 
	C489.803772,280.254333 490.901276,277.627777 491.998779,275.001221 
	C492.663208,273.241241 493.327637,271.481262 494.241547,269.193512 
	C494.660278,268.110901 494.829529,267.556061 494.998779,267.001221 
	C494.999176,266.556244 494.999573,266.111237 495.266235,265.121124 
	C496.021271,263.051056 496.510010,261.526123 496.998749,260.001221 
	C497.332489,257.608673 497.666199,255.216095 498.272522,252.180054 
	C498.695953,250.357941 498.846771,249.179321 498.997559,248.000717 
	C498.997986,246.285980 498.998413,244.571243 498.978333,242.130249 
	C498.638519,240.936401 498.319275,240.468796 498.000000,240.001190 
	C497.999878,238.933975 497.999725,237.866745 497.993256,236.016068 
	C497.324585,233.155457 496.662201,231.078308 495.999817,229.001144 
	C495.999786,228.556305 495.999725,228.111481 495.999573,226.917053 
	C496.332611,223.778702 496.665680,221.389969 496.998779,219.001221 
	C496.999176,218.834152 496.999603,218.667068 497.321106,218.208252 
	C498.094421,217.277878 498.546600,216.639236 498.998779,216.000610 
z"/>
<path fill="#F7FFFF" opacity="1.000000" stroke="none" 
	d="
M378.659882,203.825668 
	C379.337402,207.415283 379.674316,210.829941 380.006226,214.622009 
	C379.337372,217.083588 378.673492,219.167786 377.659973,221.680679 
	C376.540619,223.739380 375.770935,225.369385 375.001221,226.999390 
	C375.000824,227.444229 375.000427,227.889084 374.727417,228.898651 
	C374.303650,230.641937 374.152435,231.820526 374.001221,232.999115 
	C374.000946,240.020645 374.000671,247.042191 374.000641,254.898193 
	C374.333923,256.821381 374.666931,257.910095 375.000000,258.998779 
	C375.000122,259.749390 375.000244,260.500000 375.001251,262.001770 
	C375.667694,263.834869 376.333221,264.916840 376.998779,265.998779 
	C377.903595,268.782410 378.808441,271.566040 379.857239,274.675446 
	C381.237793,278.872589 381.771332,282.687073 378.826843,286.728729 
	C378.287872,287.415680 378.100311,287.677490 377.999207,288.001221 
	C368.218597,290.755371 361.957184,286.872040 359.136322,275.626526 
	C355.134064,259.671448 353.413635,243.473083 356.100281,227.101517 
	C356.949585,221.925842 358.665802,216.892426 359.992065,211.397537 
	C360.646942,209.888519 361.295135,208.775879 362.292786,207.289917 
	C363.094421,206.277939 363.546600,205.639267 363.998779,205.000610 
	C368.827759,201.316666 373.575836,200.869110 378.659882,203.825668 
z"/>
<path fill="#FCFBFC" opacity="1.000000" stroke="none" 
	d="
M492.465881,190.071991 
	C498.109619,191.426590 500.026581,195.290131 499.885101,200.130402 
	C499.735962,205.232407 496.181152,208.322937 491.795532,209.756424 
	C487.410858,211.189606 483.773407,208.957748 480.986786,205.443314 
	C477.047943,200.475784 479.208099,192.753723 485.247375,190.867752 
	C487.394470,190.197250 489.777985,190.283661 492.465881,190.071991 
z"/>
<path fill="#FCFBFC" opacity="1.000000" stroke="none" 
	d="
M511.359558,277.937073 
	C512.814697,271.497314 514.628235,264.995819 516.720825,258.247803 
	C517.311829,258.546356 518.008423,259.216827 517.877808,259.617798 
	C515.888245,265.724426 513.790405,271.795776 511.359558,277.937073 
z"/>
<path fill="#FCFBFC" opacity="1.000000" stroke="none" 
	d="
M495.197266,303.247925 
	C498.103943,300.356934 501.206696,297.712616 504.654114,295.034790 
	C503.001984,299.195160 500.408417,302.714203 495.197266,303.247925 
z"/>
<path fill="#FCFBFC" opacity="1.000000" stroke="none" 
	d="
M496.636810,219.065216 
	C496.665680,221.389969 496.332611,223.778702 495.999146,226.583420 
	C491.993225,224.232269 494.664459,221.699341 496.636810,219.065216 
z"/>
<path fill="#FCFBFC" opacity="1.000000" stroke="none" 
	d="
M491.646271,275.060242 
	C490.901276,277.627777 489.803772,280.254333 488.353760,282.939819 
	C489.098755,280.372284 490.196259,277.745758 491.646271,275.060242 
z"/>
<path fill="#FCFBFC" opacity="1.000000" stroke="none" 
	d="
M495.729980,229.229797 
	C496.662201,231.078308 497.324585,233.155457 497.992859,235.615875 
	C497.152588,233.818909 496.306396,231.638687 495.729980,229.229797 
z"/>
<path fill="#FCFBFC" opacity="1.000000" stroke="none" 
	d="
M507.349915,287.944763 
	C508.102661,285.703613 509.204102,283.407898 510.652161,281.056183 
	C509.898682,283.296844 508.798645,285.593536 507.349915,287.944763 
z"/>
<path fill="#FCFBFC" opacity="1.000000" stroke="none" 
	d="
M517.269897,235.770142 
	C516.337524,233.921570 515.675049,231.844376 515.006348,229.383896 
	C515.846619,231.180923 516.693176,233.361221 517.269897,235.770142 
z"/>
<path fill="#FCFBFC" opacity="1.000000" stroke="none" 
	d="
M518.278076,245.747574 
	C517.666992,244.268906 517.333984,242.539017 517.001709,240.404968 
	C517.520325,241.832657 518.038269,243.664505 518.278076,245.747574 
z"/>
<path fill="#FCFBFC" opacity="1.000000" stroke="none" 
	d="
M488.067993,303.361511 
	C489.389496,303.001190 490.777802,303.001160 492.582520,303.001190 
	C491.799896,306.092255 490.049255,305.459961 488.067993,303.361511 
z"/>
<path fill="#FCFBFC" opacity="1.000000" stroke="none" 
	d="
M496.663757,260.051636 
	C496.510010,261.526123 496.021271,263.051056 495.266205,264.787384 
	C495.442841,263.366547 495.885834,261.734283 496.663757,260.051636 
z"/>
<path fill="#FCFBFC" opacity="1.000000" stroke="none" 
	d="
M482.637451,293.067780 
	C482.981873,294.453033 482.966187,295.905212 482.974670,297.678101 
	C479.907410,296.800293 480.540863,295.049316 482.637451,293.067780 
z"/>
<path fill="#FCFBFC" opacity="1.000000" stroke="none" 
	d="
M523.600159,251.999100 
	C523.721436,252.795639 523.485657,253.602951 523.123657,254.705536 
	C522.382996,254.460693 521.768494,253.920593 521.153931,253.380493 
	C521.850342,252.923630 522.546692,252.466751 523.600159,251.999100 
z"/>
<path fill="#FCFBFC" opacity="1.000000" stroke="none" 
	d="
M517.343689,253.943573 
	C517.153259,252.820633 517.304077,251.642014 517.727417,250.232300 
	C517.895020,251.296768 517.789978,252.592331 517.343689,253.943573 
z"/>
<path fill="#FCFBFC" opacity="1.000000" stroke="none" 
	d="
M498.656342,248.056381 
	C498.846771,249.179321 498.695953,250.357941 498.272583,251.767609 
	C498.105042,250.703125 498.210083,249.407578 498.656342,248.056381 
z"/>
<path fill="#FCFBFC" opacity="1.000000" stroke="none" 
	d="
M515.255188,226.800110 
	C514.668213,226.224792 514.336426,225.450714 514.003540,224.338623 
	C514.505066,224.867523 515.007751,225.734436 515.255188,226.800110 
z"/>
<path fill="#FCFBFC" opacity="1.000000" stroke="none" 
	d="
M521.140015,240.282867 
	C521.961121,240.435638 522.919800,240.877121 523.917969,241.664551 
	C523.064148,241.530884 522.170837,241.051239 521.140015,240.282867 
z"/>
<path fill="#FCFBFC" opacity="1.000000" stroke="none" 
	d="
M501.827728,214.770721 
	C501.531372,215.318970 501.063934,215.638565 500.298889,215.978455 
	C500.553040,215.513214 501.104858,215.027634 501.827728,214.770721 
z"/>
<path fill="#FCFBFC" opacity="1.000000" stroke="none" 
	d="
M498.678345,216.041977 
	C498.546600,216.639236 498.094421,217.277878 497.321716,217.957657 
	C497.453461,217.360306 497.905670,216.721817 498.678345,216.041977 
z"/>
<path fill="#FCFBFC" opacity="1.000000" stroke="none" 
	d="
M513.958496,219.678741 
	C513.361023,219.546722 512.722107,219.094055 512.041565,218.320694 
	C512.638977,218.452698 513.277954,218.905396 513.958496,219.678741 
z"/>
<path fill="#FCFBFC" opacity="1.000000" stroke="none" 
	d="
M363.678284,205.041946 
	C363.546600,205.639267 363.094421,206.277939 362.321716,206.957687 
	C362.453400,206.360275 362.905609,205.721771 363.678284,205.041946 
z"/>
<path fill="#FCFBFC" opacity="1.000000" stroke="none" 
	d="
M497.771240,240.172089 
	C498.319275,240.468796 498.638519,240.936401 498.977661,241.701691 
	C498.512543,241.447250 498.027527,240.895126 497.771240,240.172089 
z"/>
<path fill="#FCFBFC" opacity="1.000000" stroke="none" 
	d="
M494.706085,267.031433 
	C494.829529,267.556061 494.660278,268.110901 494.245483,268.832275 
	C494.137787,268.353088 494.275574,267.707367 494.706085,267.031433 
z"/>
<path fill="#FFFFFF" opacity="1.000000" stroke="none" 
	d="
M377.933105,288.373718 
	C378.100311,287.677490 378.287872,287.415680 378.781555,287.107544 
	C380.753693,284.704803 382.506165,282.410339 384.515320,279.779785 
	C385.742676,281.808899 387.668243,284.231201 388.784332,286.981964 
	C391.966370,294.824341 398.012451,299.878662 405.175903,303.436890 
	C414.316132,307.976959 415.506958,309.961365 412.156281,319.977295 
	C394.469238,313.539368 377.401459,306.284210 364.985443,291.653412 
	C369.770752,290.573425 373.818878,289.659821 377.933105,288.373718 
z"/>
<path fill="#FCFBFC" opacity="1.000000" stroke="none" 
	d="
M375.350098,226.944916 
	C375.770935,225.369385 376.540619,223.739380 377.654541,222.054993 
	C377.232147,223.630554 376.465546,225.260498 375.350098,226.944916 
z"/>
<path fill="#FCFBFC" opacity="1.000000" stroke="none" 
	d="
M374.342590,232.943573 
	C374.152435,231.820526 374.303650,230.641937 374.727417,229.232285 
	C374.894653,230.296829 374.789307,231.592438 374.342590,232.943573 
z"/>
<path fill="#FCFBFC" opacity="1.000000" stroke="none" 
	d="
M376.998291,265.622925 
	C376.333221,264.916840 375.667694,263.834869 375.001678,262.377075 
	C375.666779,263.083160 376.332306,264.165131 376.998291,265.622925 
z"/>
<path fill="#FCFBFC" opacity="1.000000" stroke="none" 
	d="
M375.265442,258.777802 
	C374.666931,257.910095 374.333923,256.821381 374.001038,255.366852 
	C374.511139,256.186279 375.021027,257.371552 375.265442,258.777802 
z"/>
</svg>