<svg version="1.1" id="Layer_1" xmlns="http://www.w3.org/2000/svg" xmlns:xlink="http://www.w3.org/1999/xlink" x="0px" y="0px"
	 width="100%" viewBox="0 0 816 480" enable-background="new 0 0 816 480" xml:space="preserve">
<path fill="#ff99b48f" opacity="1.000000" stroke="none" 
	d="
M49.719078,282.966492 
	C57.388874,260.073547 73.943512,244.237564 90.194855,228.169846 
	C109.378120,209.203354 131.226486,194.149338 156.382111,184.327927 
	C185.356125,173.015732 215.395844,166.873062 246.636414,168.864609 
	C257.862152,169.580215 268.933655,171.395615 279.668304,175.757690 
	C291.248505,180.463333 304.052582,180.489639 316.317841,182.515594 
	C343.782837,187.052292 371.615173,187.882660 399.334656,189.549622 
	C412.761810,190.357071 426.236420,188.305740 439.665710,187.189926 
	C461.225281,185.398621 482.739014,183.524353 504.442993,185.513611 
	C518.204712,186.774918 532.013123,187.757629 545.601990,190.140961 
	C570.712463,194.545059 595.723633,199.627029 617.181274,214.724701 
	C622.333069,218.349548 627.111877,222.504379 632.262512,226.573700 
	C632.726196,226.325516 633.424438,226.155014 633.815735,225.712830 
	C645.980469,211.965485 661.892761,208.132202 679.363525,208.538849 
	C696.523804,208.938263 711.421631,220.670639 716.262634,237.188232 
	C718.885193,246.136612 718.818909,254.949005 715.602539,263.660339 
	C710.703552,276.929016 700.195740,282.277069 686.922180,283.196991 
	C680.326660,283.654114 673.687500,283.557739 667.336609,282.732269 
	C666.187561,283.745972 666.202454,284.813202 666.461670,285.749847 
	C670.930542,301.894714 674.361206,318.286621 686.029236,331.607513 
	C693.657227,340.316162 702.181152,346.622528 713.172180,350.172455 
	C727.087646,354.666992 741.072021,358.888916 755.310852,362.166138 
	C761.935608,363.690857 765.232605,367.655792 766.519653,373.951172 
	C767.914978,380.776459 766.206299,386.560974 760.678955,390.889191 
	C756.710571,393.996613 751.988586,395.746246 747.294556,397.484039 
	C735.647400,401.795929 723.361816,403.216522 711.243469,405.289246 
	C689.438049,409.018829 667.569641,412.327209 645.879272,416.775055 
	C634.496033,419.109314 622.796570,419.860840 611.282104,421.605133 
	C593.516846,424.296265 575.883545,427.834534 557.956665,429.478210 
	C535.857971,431.504395 513.787415,431.592743 491.606873,430.499908 
	C466.499817,429.262970 441.409851,427.663025 416.264038,426.958649 
	C372.308777,425.727325 328.377441,423.695312 284.387421,423.931000 
	C263.730591,424.041656 243.080475,424.202271 222.415833,423.539429 
	C204.376663,422.960754 186.663879,420.161652 168.860138,417.740265 
	C144.004517,414.359802 119.124702,414.401672 94.121986,416.860199 
	C79.065666,418.340729 63.820942,418.295532 48.995632,413.969360 
	C46.231396,413.162689 43.720379,411.885956 41.577477,409.976257 
	C36.549149,405.495178 36.131649,399.446075 40.692497,394.018524 
	C46.073048,387.615509 53.118385,383.507568 60.773209,380.458649 
	C68.764511,377.275726 76.851036,374.331818 85.836365,370.927094 
	C55.181271,349.080719 38.817539,321.668243 49.719078,282.966492 
M304.169800,202.377197 
	C299.553619,199.712357 294.729828,197.348251 290.357361,194.330322 
	C272.008575,181.665665 251.862122,175.851181 229.551682,177.342514 
	C214.355377,178.358307 199.682205,181.953400 184.913086,185.328766 
	C170.969849,188.515411 157.901871,193.728500 145.680328,200.928879 
	C119.080780,216.600143 96.974739,237.490005 77.860970,261.512268 
	C62.880661,280.339569 58.223850,302.028595 65.213104,324.991150 
	C70.384819,341.982361 82.996223,354.009216 97.470375,363.857025 
	C99.940048,365.537323 102.990730,365.949432 106.073326,366.067902 
	C112.565155,366.317413 118.451347,363.708344 124.612831,362.441589 
	C139.751358,359.329285 154.705475,355.450531 169.511856,351.017365 
	C179.543823,348.013733 189.450562,344.437500 200.054459,344.010040 
	C202.227386,343.922455 205.358154,343.222687 205.905609,346.269287 
	C206.415588,349.107330 203.436325,350.101715 201.365387,350.829163 
	C194.464279,353.253326 187.498123,355.518066 180.476761,357.569641 
	C152.051392,365.875031 122.998680,371.721252 94.415474,379.408569 
	C80.995491,383.017792 68.093613,387.874481 57.081753,396.697144 
	C52.083565,400.701660 52.456131,403.915497 58.204224,406.824036 
	C62.594482,409.045563 67.423523,409.579712 72.246696,409.880951 
	C87.287323,410.820312 102.138733,408.399933 117.058472,407.226929 
	C131.525650,406.089508 145.990662,405.381042 160.419357,407.527740 
	C174.237259,409.583496 187.963913,412.555695 201.849319,413.786163 
	C224.561066,415.798767 247.334335,417.017212 270.202454,416.186096 
	C311.354889,414.690521 352.463409,417.740387 393.604401,418.002258 
	C415.755249,418.143250 437.879547,419.264801 459.977203,420.620087 
	C491.928650,422.579773 523.827759,423.250397 555.752625,420.127014 
	C579.459595,417.807648 602.837891,413.278503 626.407349,410.034760 
	C657.230408,405.792664 687.926941,400.608673 718.636353,395.576569 
	C727.673523,394.095703 736.571655,391.718933 744.630920,387.087128 
	C748.778931,384.703156 751.647766,381.193268 751.196228,376.180725 
	C750.721802,370.914917 746.956482,368.709808 742.134827,367.669250 
	C729.601624,364.964386 717.520264,360.595215 705.163208,357.309784 
	C679.106018,350.381836 664.723450,331.929993 656.482727,308.124817 
	C652.533447,296.716370 649.984253,284.761383 645.412354,273.492645 
	C631.588196,239.418976 607.855225,215.841965 572.363647,204.827728 
	C552.739014,198.737549 532.566162,195.539566 512.172485,193.403107 
	C496.055847,191.714706 479.933716,191.320923 463.791168,192.490326 
	C450.017242,193.488113 436.285217,195.142349 422.501465,195.909592 
	C398.168213,197.264069 373.892456,195.547623 349.641968,193.640594 
	C336.537872,192.610107 323.393036,191.941620 310.443054,189.439972 
	C309.538788,189.265274 308.492798,188.955658 307.626282,189.750687 
	C307.675568,190.878845 308.728729,190.855774 309.370514,191.230438 
	C338.994110,208.524017 366.774078,228.209595 389.798370,253.931427 
	C398.439056,263.584442 407.465576,273.089569 411.667236,285.798767 
	C413.504547,291.356171 411.144562,296.086029 405.739014,298.328827 
	C399.823456,300.783295 393.633331,300.582458 387.520874,299.660553 
	C365.242249,296.300293 344.254456,288.904114 324.577423,278.082733 
	C303.742615,266.624634 284.776184,252.575867 268.674652,234.920822 
	C266.782745,232.846359 265.175079,230.484619 263.641266,228.122543 
	C262.780487,226.796997 262.815308,225.239594 264.075073,223.992722 
	C265.146149,222.932632 266.410492,222.897995 267.783264,223.318863 
	C270.416748,224.126236 272.365173,225.866852 274.363464,227.684967 
	C298.235809,249.404572 323.143066,269.629761 353.752594,281.373901 
	C366.303650,286.189392 378.653015,291.813751 392.298157,292.899200 
	C400.675659,293.565643 402.641571,290.789246 398.876404,283.329926 
	C393.886200,273.443451 387.009857,264.802155 379.349670,256.888580 
	C357.678528,234.500687 331.300873,218.528503 304.169800,202.377197 
M643.044189,239.279892 
	C649.096619,247.261414 654.058594,255.862579 658.410889,264.896881 
	C665.332703,279.264801 690.187317,281.191589 699.174805,268.248901 
	C710.545227,251.874649 703.440247,225.740845 685.330383,217.325760 
	C672.034973,211.147827 648.894653,220.164642 642.938293,233.821045 
	C642.239624,235.422852 641.955444,236.985977 643.044189,239.279892 
z"/>
<path fill="#ff99b48f" opacity="1.000000" stroke="none" 
	d="
M278.230957,122.101547 
	C286.612579,120.743759 295.066376,121.372955 301.823151,115.750259 
	C302.674683,115.041649 303.630035,114.917007 304.566193,115.587807 
	C305.605560,116.332573 306.071594,117.342453 305.738220,118.626251 
	C305.018982,121.395973 303.502594,123.343849 300.579468,124.144127 
	C286.846832,127.903778 272.903381,129.964905 258.661591,128.840286 
	C254.677719,128.525696 250.698212,128.324814 246.713760,128.097824 
	C243.004486,127.886513 239.424057,127.122765 236.510391,124.610443 
	C235.634338,123.855049 234.906586,122.768944 235.529633,121.516197 
	C236.195511,120.177299 237.380600,120.525635 238.576187,120.742378 
	C251.572861,123.098602 264.638824,123.674606 278.230957,122.101547 
z"/>
<path fill="#ff99b48f" opacity="1.000000" stroke="none" 
	d="
M263.818115,48.302460 
	C265.487976,51.909504 263.130707,53.146313 260.703857,53.965149 
	C257.244446,55.132397 253.721771,56.292816 250.131897,56.860447 
	C237.171158,58.909809 225.867142,66.062798 213.093414,68.656540 
	C209.605820,69.364700 206.135696,69.444527 202.664978,69.007530 
	C200.828629,68.776321 198.823090,67.970589 199.146179,65.622421 
	C199.433640,63.533134 201.362961,63.423580 203.097214,63.512329 
	C211.854996,63.960522 219.815186,61.022118 227.625229,57.614990 
	C238.542969,52.852139 250.357162,51.260632 261.646332,47.821186 
	C262.210907,47.649189 262.927429,47.976048 263.818115,48.302460 
z"/>
<path fill="#ff99b48f" opacity="1.000000" stroke="none" 
	d="
M376.394897,100.153938 
	C384.023926,98.883385 391.220215,97.660095 398.427856,96.507957 
	C400.702209,96.144417 403.561768,95.423317 404.183655,98.586746 
	C404.871460,102.085846 401.725922,101.815987 399.530121,102.206444 
	C383.707275,105.020119 368.056000,109.112366 351.732544,108.045372 
	C348.109863,107.808571 344.918488,106.724579 341.793793,105.164696 
	C340.535370,104.536491 339.635040,103.388382 340.174652,101.904587 
	C340.718994,100.407722 342.088470,100.203873 343.502777,100.528168 
	C354.349396,103.015312 365.166779,102.653900 376.394897,100.153938 
z"/>
<path fill="#ff99b48f" opacity="1.000000" stroke="none" 
	d="
M403.944580,161.074387 
	C396.493164,161.283356 389.561310,162.548889 382.550323,162.072678 
	C380.896637,161.960342 379.216431,161.889709 377.609558,161.528244 
	C375.743408,161.108398 373.915894,160.060211 374.162048,157.923721 
	C374.411316,155.760422 376.573242,155.916367 378.176941,155.958755 
	C391.843109,156.320053 405.404388,154.594208 419.021332,154.030518 
	C423.076447,153.862656 426.944427,153.191071 430.731232,151.873260 
	C432.717987,151.181885 434.842590,150.391235 435.594604,153.206116 
	C436.217407,155.537430 434.638947,156.975143 432.541748,157.620544 
	C428.886292,158.745483 425.203369,159.774170 421.342346,159.992752 
	C415.697723,160.312332 410.057068,160.702515 403.944580,161.074387 
z"/>
<path fill="#ff99b48f" opacity="1.000000" stroke="none" 
	d="
M279.596558,87.706436 
	C282.200806,86.763123 283.601013,87.697884 283.930267,89.890877 
	C284.211548,91.764160 283.086609,93.077492 281.322083,93.652672 
	C277.213196,94.991989 273.102997,96.491829 268.659882,95.533623 
	C263.838684,94.493881 260.821869,96.174431 259.126221,100.953728 
	C257.295654,106.113434 254.946152,111.088600 252.837891,116.150459 
	C252.034470,118.079430 250.994278,120.207077 248.583710,119.267357 
	C246.175262,118.328453 246.742615,115.896637 247.527939,114.058281 
	C250.595871,106.876724 253.851364,99.775543 256.961090,92.611481 
	C258.083923,90.024673 259.963440,89.481682 262.593048,89.675041 
	C268.231567,90.089668 273.905670,90.395966 279.596558,87.706436 
z"/>
<path fill="#ff99b48f" opacity="1.000000" stroke="none" 
	d="
M287.052307,43.663742 
	C282.700562,55.837025 276.077850,66.482323 270.689911,77.725388 
	C269.875946,79.423874 268.545074,80.457794 266.682220,79.635056 
	C264.751129,78.782166 264.713531,77.010231 265.577911,75.385033 
	C272.058472,63.200031 278.275665,50.887157 283.913361,38.285954 
	C284.026428,38.033272 284.433685,37.912186 284.904938,37.593674 
	C287.853760,38.561852 287.186615,41.042641 287.052307,43.663742 
z"/>
<path fill="#ff99b48f" opacity="1.000000" stroke="none" 
	d="
M396.515289,135.566879 
	C399.186798,130.982529 407.572357,127.976326 412.194305,129.828674 
	C414.778564,130.864380 414.679443,132.732132 413.011719,134.550308 
	C411.958710,135.698334 410.317474,136.233566 408.892090,135.992752 
	C402.965149,134.991486 400.582916,138.622864 398.707520,143.241943 
	C398.090698,144.761154 397.150208,146.186066 396.161835,147.507599 
	C395.019135,149.035507 393.446167,150.378586 391.511108,149.088028 
	C389.610046,147.820129 390.858307,146.064392 391.577850,144.650055 
	C393.083099,141.691452 394.738922,138.809479 396.515289,135.566879 
z"/>
<path fill="#ff99b48f" opacity="1.000000" stroke="none" 
	d="
M412.026031,109.987183 
	C414.344238,106.801506 415.340546,103.477325 416.156158,100.052925 
	C416.495087,98.630074 416.995972,96.868294 418.945282,97.155426 
	C420.797913,97.428322 420.834473,99.238686 421.046417,100.696800 
	C421.613342,104.597366 419.735138,107.895287 417.982666,111.036201 
	C415.559601,115.378998 412.664124,119.463463 409.876556,123.594879 
	C408.855042,125.108788 407.641541,126.752632 405.412384,125.509041 
	C402.989075,124.157150 404.235321,122.233864 405.088989,120.776505 
	C407.186890,117.195068 409.553070,113.770813 412.026031,109.987183 
z"/>
<path fill="#ff99b48f" opacity="1.000000" stroke="none" 
	d="
M466.635620,142.699524 
	C465.252411,141.982666 464.149292,141.541122 463.238739,140.847046 
	C462.256683,140.098526 461.723297,138.982315 462.471832,137.783813 
	C463.073914,136.819794 464.170013,136.657028 465.135376,137.029007 
	C467.864685,138.080643 470.697540,137.792984 473.511810,137.934296 
	C476.938904,138.106400 479.790497,137.373535 481.358795,133.960175 
	C481.953003,132.666901 482.713531,131.531952 484.385254,132.421844 
	C485.704254,133.123978 486.337830,134.361252 485.955200,135.773956 
	C484.889587,139.708694 482.791931,142.842346 478.382416,143.334961 
	C474.592133,143.758423 470.750061,144.054459 466.635620,142.699524 
z"/>
<path fill="#ff99b48f" opacity="1.000000" stroke="none" 
	d="
M493.596985,139.293915 
	C498.795593,139.848450 503.619354,141.337234 508.090790,137.595306 
	C509.871185,136.105347 511.197723,137.767410 511.521759,139.578644 
	C511.872833,141.541168 510.757904,143.051636 509.275146,144.244751 
	C505.554474,147.238647 496.331848,146.346313 493.258789,142.714874 
	C492.319977,141.605499 491.722809,140.502823 493.596985,139.293915 
z"/>
<path fill="#ff99b48f" opacity="1.000000" stroke="none" 
	d="
M540.736877,139.486694 
	C543.299500,144.966034 540.984741,149.156250 535.558472,149.400879 
	C532.923279,149.519699 530.262695,149.321228 527.627869,149.097687 
	C526.368896,148.990860 525.602234,148.018082 525.346375,146.775070 
	C525.108826,145.621170 525.748718,144.480240 526.718323,144.515244 
	C532.065308,144.708298 536.433105,142.556915 540.736877,139.486694 
z"/>
<path fill="#ff99b48f" opacity="1.000000" stroke="none" 
	d="
M241.491913,84.340019 
	C243.634705,85.056915 245.155670,85.958992 246.035080,87.943832 
	C244.621674,90.667038 242.265656,90.604774 240.110992,89.596947 
	C236.737976,88.019257 232.660721,86.942741 231.773026,82.037041 
	C235.717087,80.876259 238.018082,84.234489 241.491913,84.340019 
z"/>
<path fill="#ff99b48f" opacity="1.000000" stroke="none" 
	d="
M381.626221,122.346642 
	C383.793152,123.928864 385.697723,125.270676 387.536865,126.696808 
	C388.609253,127.528358 388.779419,128.669128 388.019409,129.789856 
	C387.329132,130.807724 386.188812,130.778885 385.355347,130.194427 
	C382.309509,128.058609 378.983368,126.112724 377.958496,122.243797 
	C379.325470,120.784683 380.320831,121.653496 381.626221,122.346642 
z"/>
<path fill="#FF99B4" opacity="1.000000" stroke="none" 
	d="
M235.792542,313.493195 
	C234.489883,322.077759 227.217072,324.561157 221.389221,326.929626 
	C207.356201,332.632812 192.419220,332.332153 177.623062,330.063568 
	C170.413879,328.958221 165.398956,321.981049 165.099152,313.682892 
	C164.910645,308.465088 169.162842,304.012268 175.904282,301.596191 
	C191.050308,296.168091 206.505402,294.577209 222.411209,297.039307 
	C231.284409,298.412781 236.097183,304.055176 235.792542,313.493195 
z"/>
<path fill="#ff99b48f" opacity="1.000000" stroke="none" 
	d="
M185.666687,291.070007 
	C175.358566,292.889557 165.730682,292.515411 156.878159,287.038513 
	C155.337204,286.085144 153.818710,284.992889 152.570435,283.694916 
	C151.007553,282.069824 150.079269,280.011810 151.403229,277.808990 
	C152.770874,275.533386 155.004013,275.655457 157.161346,276.362976 
	C160.164352,277.347778 163.019730,278.670593 165.630936,280.504364 
	C170.946655,284.237335 176.468887,286.081909 182.887253,282.993408 
	C185.257721,281.852783 188.067719,281.841583 190.743256,282.124725 
	C192.058014,282.263885 193.495178,282.459747 193.970032,283.992554 
	C194.496674,285.692566 193.594604,286.953308 192.235092,287.747772 
	C190.235992,288.915955 188.122055,289.887634 185.666687,291.070007 
z"/>
</svg>
