<svg version="1.1" id="Layer_1" xmlns="http://www.w3.org/2000/svg" xmlns:xlink="http://www.w3.org/1999/xlink" x="0px" y="0px"
	 width="100%" viewBox="0 0 832 656" enable-background="new 0 0 832 656" xml:space="preserve">
<path fill="#ff99b48f" opacity="1.000000" stroke="none" 
	d="
M56.531342,1.000000 
	C57.116394,2.988400 57.334587,4.976794 57.334728,6.965202 
	C57.350025,221.674286 57.349274,436.383392 57.343857,651.092468 
	C57.343815,652.756714 57.267509,654.421021 57.113403,656.542603 
	C46.979103,657.000000 36.958210,657.000000 26.683001,656.817200 
	C28.874533,654.616394 29.283592,651.499878 30.577913,648.867493 
	C32.235912,645.495483 35.029194,642.419678 33.883396,638.202148 
	C32.819313,634.285400 33.116245,630.279114 32.832664,626.303833 
	C32.068832,615.596130 25.834112,607.895508 18.290358,601.030945 
	C17.722095,600.513855 16.802650,600.281189 16.006123,600.132751 
	C10.390175,599.086304 8.149392,597.143250 8.174506,591.110046 
	C8.220184,580.136841 9.045373,569.173584 10.724936,558.305725 
	C10.916696,557.064941 11.085771,554.930237 12.574862,555.172852 
	C18.240295,556.095947 17.671423,551.611389 18.532297,548.581604 
	C19.858904,543.912659 20.057076,539.079773 20.093121,534.225098 
	C20.156197,525.729736 20.274529,517.135986 22.256073,508.895966 
	C25.667200,494.711121 26.533958,480.211578 27.703304,465.838501 
	C30.847578,427.190643 36.827038,388.815094 38.294502,350.006531 
	C39.629833,314.692200 39.761841,279.397247 36.533367,244.207520 
	C34.171955,218.468674 33.858093,192.687195 33.172092,166.905594 
	C32.791618,152.606400 33.306107,138.282349 32.873722,123.985931 
	C32.543640,113.072044 30.393551,102.484802 23.858932,93.268768 
	C19.000294,86.416435 18.820705,86.309334 11.906587,89.054893 
	C6.050533,85.417320 4.093614,79.667023 3.543979,72.265953 
	C1.211728,75.750633 2.626864,78.754303 1.000000,81.000000 
	C1.000000,54.419392 1.000000,27.838785 1.000000,1.000000 
	C19.353420,1.000000 37.708054,1.000000 56.531342,1.000000 
M2.116956,35.912910 
	C2.071856,39.432327 1.582501,42.988136 2.727578,47.112732 
	C3.990927,43.425446 4.374654,37.678257 3.613780,35.471359 
	C3.361688,34.740173 2.820459,34.444702 2.116956,35.912910 
z"/>
<path fill="#ff99b48f" opacity="1.000000" stroke="none" 
	d="
M785.437500,657.000000 
	C785.000000,651.060364 785.000000,645.120789 785.000000,638.239868 
	C788.899658,642.260620 789.632874,646.506531 790.021484,650.865051 
	C790.195740,652.819275 789.821777,654.888184 791.751709,656.714478 
	C789.958313,657.000000 787.916687,657.000000 785.437500,657.000000 
z"/>
<path fill="#ff99b48f" opacity="1.000000" stroke="none" 
	d="
M790.571533,1.000000 
	C787.361267,3.042997 788.542236,6.745357 788.066528,9.821731 
	C787.705505,12.155802 788.236694,14.701956 785.600830,17.016794 
	C784.403198,11.628686 785.040527,6.752075 784.949219,1.464876 
	C786.714355,1.000000 788.428711,1.000000 790.571533,1.000000 
z"/>
<path fill="#ff99b48f" opacity="1.000000" stroke="none" 
	d="
M242.637482,457.517029 
	C231.699600,453.782806 222.896530,447.815094 216.855225,438.229919 
	C215.922195,436.749573 214.352631,435.207977 215.447739,433.244019 
	C216.541138,431.283142 218.660828,431.738617 220.424500,431.812042 
	C244.322952,432.806976 267.414459,428.044159 290.425659,422.362000 
	C307.985260,418.026062 325.536346,413.501343 343.667145,412.409393 
	C344.671570,410.252960 343.286255,408.718445 342.676361,407.102905 
	C325.871674,362.591095 335.611420,323.142090 365.708527,287.761383 
	C369.247681,283.600922 372.039825,279.471039 373.651154,274.229675 
	C382.617126,245.064835 393.047363,216.442810 406.927490,189.208984 
	C418.223663,167.045135 432.176514,146.863419 452.018097,131.322495 
	C459.509369,125.454948 467.264435,119.937355 476.104401,116.278496 
	C493.012665,109.280174 503.595032,116.095879 504.194855,134.442947 
	C504.422729,141.411713 504.801025,148.420456 503.508759,155.381302 
	C503.133026,157.405151 502.812195,159.624832 504.063812,162.164047 
	C511.195526,158.058411 518.228882,154.048523 525.221863,149.969513 
	C529.708252,147.352615 534.347839,145.219543 539.484741,144.149414 
	C549.827759,141.994720 557.674255,148.058228 558.209167,158.656937 
	C558.405151,162.541626 557.860474,166.343170 556.910645,170.031448 
	C549.412781,199.145889 537.489563,226.009705 516.374817,248.034302 
	C512.698425,251.869171 508.498566,255.202408 504.538269,258.764893 
	C503.082306,260.074585 501.187683,260.999237 500.632233,263.216248 
	C501.662567,265.382355 503.941132,265.817047 505.774139,266.818146 
	C538.225952,284.541748 559.754395,310.665466 567.395020,347.321381 
	C568.284119,351.586914 569.928406,353.435638 574.332825,352.632812 
	C577.627625,352.032288 580.432251,352.939423 581.306702,356.579132 
	C582.143982,360.064331 580.537109,362.438416 577.187500,363.479309 
	C574.930603,364.180634 574.345581,365.530792 574.981689,367.648010 
	C575.029114,367.806061 575.084656,367.986694 575.053284,368.139832 
	C573.262939,376.893127 575.510620,385.412537 576.229065,394.064545 
	C577.697998,411.754364 568.647644,424.869781 556.042603,436.040253 
	C549.905090,441.479248 542.537659,445.123352 535.464172,449.730774 
	C536.879761,452.407013 538.280273,454.821136 539.466553,457.336273 
	C545.785278,470.733673 541.547485,483.973358 528.417542,490.837097 
	C517.597473,496.493378 505.649902,498.181000 493.699890,499.176636 
	C486.438660,499.781586 479.118591,500.872131 471.773071,499.574371 
	C468.389954,498.976624 467.781616,501.892395 466.720093,504.085999 
	C459.548370,518.906311 448.982849,529.794861 432.353729,533.540222 
	C423.429047,535.550293 414.459015,537.358276 405.518005,539.296814 
	C385.139343,543.715210 364.463318,545.848389 343.700531,547.228699 
	C340.224365,547.459839 339.164368,548.420532 339.699371,552.097290 
	C340.837311,559.917786 337.282288,566.280090 330.721710,569.406921 
	C324.158325,572.535034 319.343414,571.434814 312.918274,565.007507 
	C311.582489,563.671204 310.235565,563.362122 308.524963,563.189270 
	C297.406799,562.065491 292.876984,556.925781 292.586609,545.710205 
	C292.205902,531.003296 293.495575,516.453369 295.774139,501.932861 
	C296.763489,495.628082 298.844299,490.491302 304.940613,487.593994 
	C306.555054,486.826721 307.914429,485.522736 309.829498,484.151001 
	C307.349243,480.077026 303.507721,478.080841 299.851898,476.025665 
	C287.961243,469.341309 274.970184,465.806946 261.761200,462.835571 
	C255.440704,461.413727 249.254562,459.394592 242.637482,457.517029 
M528.627197,288.889465 
	C512.924744,273.487396 493.355042,265.623230 472.568573,260.132751 
	C463.815948,257.820862 454.911926,256.910065 445.870819,257.233917 
	C444.207123,257.293518 442.538147,257.282837 440.874023,257.229431 
	C439.335052,257.180054 437.647247,256.991760 437.418365,255.101547 
	C437.166473,253.021240 438.949188,252.880035 440.420990,252.574722 
	C442.720032,252.097794 445.059418,251.738358 447.365936,252.221100 
	C450.494232,252.875839 452.774261,251.724030 454.964325,249.584610 
	C466.638031,238.180756 475.930176,225.100662 483.310486,210.556168 
	C493.272400,190.923950 497.982941,169.909683 499.360840,148.178360 
	C499.826324,140.836899 499.917877,133.157181 497.608734,125.906998 
	C495.795044,120.212418 491.220856,117.347015 485.705139,118.476860 
	C480.820770,119.477379 476.038483,120.897499 471.667633,123.499321 
	C449.401917,136.753357 432.308868,155.005554 419.085815,177.158310 
	C407.334198,196.845947 398.700134,217.954376 390.454956,239.224014 
	C385.970551,250.792206 382.302460,262.676849 377.757294,275.899078 
	C382.016479,272.995667 384.915771,270.878693 387.962097,269.000153 
	C389.555664,268.017487 391.705719,266.230042 393.166199,268.642761 
	C394.443695,270.753235 392.072571,271.835449 390.599152,272.751465 
	C370.486755,285.255188 356.583160,303.008545 347.789520,324.684357 
	C336.681122,352.065918 335.828979,379.646820 347.744171,407.198883 
	C349.518158,411.300903 351.759552,413.147766 356.355408,412.792999 
	C362.179291,412.343475 367.946594,413.565826 373.683777,414.553406 
	C402.632721,419.536652 426.625793,432.060822 441.033508,459.032593 
	C442.373322,461.540710 444.368042,461.918884 446.836914,461.916473 
	C456.328735,461.907257 465.797791,461.890472 475.266022,460.783630 
	C498.994629,458.009735 521.713074,452.003998 542.358887,439.682556 
	C553.835266,432.833405 563.492859,423.976990 568.685364,411.192413 
	C571.734802,403.684113 572.942993,396.032043 570.219116,387.463135 
	C565.008423,393.124084 559.503113,396.995850 552.251709,397.304474 
	C538.176880,397.903381 527.349609,390.270416 522.618347,376.722717 
	C521.724060,374.162018 521.801086,371.104950 518.795654,369.475342 
	C516.405457,368.179382 515.254700,365.884064 516.006287,363.117371 
	C516.756775,360.354675 518.987976,359.233978 521.622803,358.876221 
	C524.919128,358.428619 528.228821,358.079285 531.533752,357.695862 
	C540.609619,356.642761 549.689453,355.622925 558.760498,354.529938 
	C562.607727,354.066376 563.888672,352.473663 562.925537,348.143341 
	C557.773254,324.979004 546.592834,305.400177 528.627197,288.889465 
M298.828217,515.125366 
	C296.817413,526.353577 297.090607,537.665894 297.495361,548.992554 
	C297.579987,551.361145 298.522461,553.097717 300.171143,554.659363 
	C303.680237,557.983215 307.896729,558.923096 312.189514,557.165222 
	C317.814636,554.861633 322.095398,551.014465 322.749023,544.396362 
	C323.331787,538.495972 321.639374,533.260803 318.386719,528.352905 
	C315.572601,524.106873 311.654388,521.006531 308.025299,517.590393 
	C306.865906,516.499023 305.834900,515.282532 307.178528,513.756531 
	C308.435547,512.328796 309.913635,512.889526 311.214020,513.818359 
	C312.157959,514.492615 313.017395,515.288879 313.890289,516.058228 
	C320.664612,522.028748 325.487732,529.280090 327.964996,538.619385 
	C335.734009,536.604187 343.258820,535.290527 350.927155,532.076965 
	C348.137848,529.077148 345.937653,526.824097 343.878693,524.448608 
	C342.852661,523.264893 342.185516,521.741516 343.753357,520.503845 
	C345.093445,519.445923 346.261078,520.425476 347.272797,521.330383 
	C350.126465,523.882751 352.731293,526.781311 355.838501,528.969360 
	C365.069122,535.469421 374.378052,540.673950 386.785004,537.953491 
	C400.890320,534.860535 415.040222,531.727966 429.270660,529.325806 
	C450.897675,525.675232 464.319702,505.249969 467.868225,484.880768 
	C465.338409,485.353333 464.352875,487.057129 463.903870,489.372162 
	C463.260864,492.686951 461.800995,495.692749 459.913422,498.461823 
	C452.872406,508.791016 438.754303,508.037903 432.776276,497.060333 
	C430.091003,492.129303 429.836060,486.884766 430.886383,481.550476 
	C431.269043,479.606934 431.213745,478.096649 429.910004,476.481293 
	C415.876495,459.093445 400.810364,442.804138 379.298676,434.669220 
	C359.272949,427.096252 340.089447,428.485565 322.940308,442.562286 
	C316.093567,448.182312 313.901215,455.617859 315.823425,464.097015 
	C317.873047,473.138214 323.617065,479.141449 332.510193,481.622345 
	C345.882294,485.352722 356.721649,478.322388 367.800293,472.647858 
	C368.429047,472.325806 368.806274,471.386383 369.153992,470.663727 
	C370.677490,467.497620 378.508850,462.429504 381.681152,463.507233 
	C386.021545,464.981842 389.770447,464.236298 393.682098,462.574371 
	C395.014343,462.008331 396.336609,462.268341 397.167816,463.634003 
	C397.884033,464.810730 397.365234,465.728912 396.659943,466.799255 
	C390.708191,475.831879 381.038849,478.715210 371.503876,479.937683 
	C366.151611,480.623901 361.204437,481.667908 356.365997,483.645477 
	C348.143402,487.006195 339.201660,489.915588 331.211060,485.851562 
	C322.615143,481.479675 316.924530,484.062073 310.912292,489.487091 
	C310.177612,490.149963 309.313812,490.714935 308.425415,491.154724 
	C303.346527,493.669128 300.858521,497.773499 300.436371,503.384033 
	C300.162659,507.021851 299.512848,510.631439 298.828217,515.125366 
M468.631042,242.271240 
	C466.981567,244.145462 465.222198,245.935532 463.707336,247.912903 
	C461.208588,251.174591 461.916840,252.855331 465.963989,253.674393 
	C469.530823,254.396255 473.188263,254.829849 476.637329,255.922272 
	C479.252716,256.750641 481.004700,256.132141 482.964111,254.501862 
	C500.096863,240.246948 514.093567,223.559982 523.284241,203.079544 
	C524.103027,201.255035 524.553467,198.241592 527.580383,199.616684 
	C530.154419,200.786026 528.680725,203.077469 527.980164,204.855179 
	C522.855652,217.859207 515.268250,229.323349 505.886444,239.611221 
	C501.410461,244.519455 496.910370,249.429245 491.638763,253.533829 
	C489.555786,255.155670 489.310913,257.266357 490.641357,259.279297 
	C492.266357,261.737915 494.160095,260.232910 495.752380,259.033447 
	C499.471375,256.231903 503.334564,253.570740 506.758179,250.436340 
	C531.931458,227.389526 545.064697,197.791306 552.813110,165.291153 
	C554.123657,159.794174 554.009766,154.384247 549.539124,150.516190 
	C544.772156,146.391861 539.467285,148.846298 534.440552,150.697311 
	C534.130859,150.811340 533.849487,151.002350 533.555420,151.158600 
	C524.144531,156.158691 514.964417,161.542282 505.932556,167.207291 
	C502.651855,169.265015 500.987793,171.827133 500.495453,175.494293 
	C498.610779,189.531601 493.725006,202.561676 486.648254,214.729736 
	C481.243317,224.023331 476.606262,233.849640 468.631042,242.271240 
M260.069641,433.773285 
	C249.628571,434.963440 239.187515,436.153625 227.778290,437.454132 
	C234.636215,444.340851 242.886551,446.327637 250.027496,452.494263 
	C238.054169,450.195007 229.398834,445.007751 221.868759,435.546387 
	C222.494568,439.192413 224.083878,440.264893 225.301910,441.568451 
	C233.432068,450.269165 244.291351,453.654541 255.285034,456.505249 
	C272.352722,460.930939 289.732971,464.356018 305.051636,473.794342 
	C306.855682,474.905853 309.014801,475.216797 310.794830,474.192963 
	C312.957092,472.949249 312.118744,470.568268 311.752258,468.719574 
	C310.574585,462.778839 309.689178,456.806976 311.786163,450.972290 
	C315.997162,439.255646 324.812683,432.077454 336.318665,428.617462 
	C359.553833,421.630402 380.976807,425.681000 400.394562,440.397156 
	C411.339172,448.691742 421.240143,457.996765 429.827301,468.734161 
	C431.145050,470.381836 432.227417,473.602600 435.682739,471.501434 
	C439.090027,469.429443 439.854340,467.146240 438.023010,463.293030 
	C432.356567,451.370575 424.084503,441.713196 413.132782,434.573120 
	C385.408844,416.498352 354.907532,414.576141 323.299011,419.861694 
	C302.274536,423.377411 281.859436,429.678925 260.069641,433.773285 
M479.327423,465.603271 
	C475.902100,471.119507 476.171844,477.700195 474.170624,483.642853 
	C473.043365,486.990143 471.302917,490.320648 471.826508,494.616302 
	C490.365540,495.412964 508.693604,495.269653 525.544495,486.776031 
	C538.976501,480.005768 541.670288,465.533020 532.333496,455.093323 
	C531.255066,453.887451 530.203613,452.113251 528.279907,452.746338 
	C522.438416,454.668884 516.648499,456.754059 510.879211,458.886078 
	C509.377350,459.441101 508.848816,460.999268 508.269104,462.393158 
	C506.804688,465.914215 506.604492,469.519348 507.765289,473.132812 
	C509.512787,478.572601 512.895020,482.607300 518.533752,484.505280 
	C514.722351,489.051086 513.816040,489.166351 510.004425,485.725647 
	C504.220306,480.504395 501.371429,474.041504 501.836121,466.195526 
	C501.911865,464.916656 502.488495,463.542816 500.903656,462.181732 
	C494.051239,462.459442 487.144562,464.474976 479.327423,465.603271 
M562.838806,367.591614 
	C557.405579,367.571686 554.343628,370.375183 553.804077,375.863586 
	C553.350281,380.480164 556.961304,386.595795 560.754028,387.415497 
	C563.997742,388.116516 566.153259,386.434296 567.661377,383.772491 
	C570.984131,377.907593 569.462830,372.139679 562.838806,367.591614 
M325.482880,565.753418 
	C334.036377,563.649292 337.942383,553.997986 333.084198,546.971436 
	C330.848907,543.738464 328.542755,543.668823 327.405151,547.239380 
	C325.573914,552.986877 321.733856,557.257690 317.849060,561.720825 
	C320.279205,563.168152 321.694031,565.818298 325.482880,565.753418 
M461.557709,475.001007 
	C462.621521,476.423981 462.752411,478.449524 464.494507,479.586517 
	C466.405090,479.282471 467.598694,477.879181 468.913147,476.658783 
	C471.475616,474.279724 473.556183,471.201080 472.381592,467.921173 
	C471.146881,464.473389 467.423340,466.474182 464.866608,466.421600 
	C459.057007,466.302094 458.071320,468.663086 461.557709,475.001007 
M435.178314,486.613647 
	C434.929596,491.562592 436.475433,495.545990 440.911102,498.034180 
	C439.232391,493.046326 437.500458,488.237335 438.842224,482.941681 
	C440.175201,477.680634 444.043732,474.499298 448.801941,471.657410 
	C441.924774,470.458191 436.447510,477.320984 435.178314,486.613647 
M354.954102,536.963379 
	C349.389496,538.480835 343.506897,539.033203 337.031342,542.671692 
	C346.747650,542.781128 354.752960,541.342407 362.837524,540.009827 
	C360.609680,538.226318 358.514771,536.612305 354.954102,536.963379 
M454.703705,481.173889 
	C452.898956,481.429413 451.584564,482.481873 450.858887,484.043365 
	C449.591309,486.770996 449.982056,489.408020 452.548370,491.100891 
	C454.332062,492.277496 456.373138,492.063660 457.920929,490.224304 
	C460.621582,487.014832 459.549255,483.053986 454.703705,481.173889 
z"/>
<path fill="#ff99b48f" opacity="1.000000" stroke="none" 
	d="
M403.213379,353.658813 
	C404.011505,349.452454 404.974701,345.771545 406.735535,342.314392 
	C408.319244,339.205017 410.560394,336.585602 409.337616,332.292480 
	C408.322693,328.729004 412.778473,325.813141 416.912781,326.981812 
	C420.260803,327.928284 423.472992,329.396423 426.686432,330.771027 
	C443.679657,338.040131 460.655853,345.349091 477.631836,352.658417 
	C478.852844,353.184143 480.115540,353.690918 481.202332,354.435059 
	C483.824799,356.230743 485.088867,358.677734 483.540039,361.734406 
	C482.092407,364.591370 479.406586,366.193390 476.490326,364.753876 
	C471.677368,362.378174 470.080322,364.337952 468.145203,368.631927 
	C461.124420,384.211182 444.372406,393.483246 428.360260,391.220398 
	C411.476410,388.834381 400.917816,373.303345 403.213379,353.658813 
M450.808746,381.489655 
	C454.343994,380.422882 456.911377,378.149292 458.688019,374.985718 
	C461.390106,370.174316 462.137604,365.184967 458.923553,360.375916 
	C457.096863,357.642731 454.330566,355.812988 450.829590,356.881042 
	C445.102539,358.628204 441.505096,362.603363 440.363678,368.479797 
	C438.773041,376.668915 442.444427,381.518860 450.808746,381.489655 
z"/>
<path fill="#ff99b48f" opacity="1.000000" stroke="none" 
	d="
M469.137695,202.227539 
	C467.584869,206.117096 466.548279,209.854462 464.220001,212.944427 
	C462.991852,214.574341 463.200256,218.439911 459.322876,216.538803 
	C458.015564,219.631805 455.376801,221.709381 453.432098,224.310013 
	C445.033905,235.540939 435.530548,245.756561 425.318359,255.328552 
	C422.287842,258.169098 419.098358,260.843781 415.918823,263.519745 
	C414.652008,264.585938 413.035248,265.904510 411.564850,264.210388 
	C409.972534,262.375854 411.898193,261.244263 413.064575,260.167023 
	C426.285828,247.956436 438.940430,235.237595 449.440735,220.521973 
	C460.159210,205.500626 468.860107,189.517838 473.127136,171.406342 
	C473.772339,168.667816 473.915802,165.814545 474.400116,163.033279 
	C474.665802,161.507599 475.260040,159.936142 477.199921,160.183884 
	C479.127747,160.430099 479.409058,162.122589 479.211060,163.637848 
	C478.695007,167.587677 478.385742,171.627182 477.284851,175.425369 
	C474.719788,184.274918 473.072083,193.407898 469.137695,202.227539 
z"/>
<path fill="#ff99b48f" opacity="1.000000" stroke="none" 
	d="
M493.212097,406.016083 
	C489.955200,403.890442 487.015442,405.746765 484.010040,406.074219 
	C482.358612,406.254120 480.408630,406.669617 480.014008,404.371674 
	C479.683655,402.448120 481.350861,401.854797 482.852600,401.563873 
	C488.697357,400.431641 494.557343,399.377991 501.255585,398.138977 
	C498.289795,396.651825 495.538055,396.066406 493.454681,394.295959 
	C491.031342,392.236633 488.135864,390.233887 488.861511,386.608246 
	C489.605865,382.889496 493.098877,382.319916 496.199707,381.644653 
	C501.413483,380.509216 506.479370,381.481506 511.359039,383.220642 
	C514.192078,384.230347 516.984985,385.865570 517.127502,389.393616 
	C517.264648,392.787781 514.978577,394.805359 512.247009,396.344330 
	C511.283356,396.887268 510.283081,397.365265 508.748260,398.157440 
	C511.451874,398.277069 513.524597,398.283386 515.576904,398.491669 
	C516.804199,398.616211 517.812805,399.310822 517.818298,400.722931 
	C517.822754,401.870728 516.979065,402.718506 516.006409,402.809113 
	C513.189636,403.071442 512.258118,404.928650 511.376495,407.245697 
	C509.710358,411.624542 507.277039,415.391632 501.828186,415.294678 
	C496.034241,415.191650 494.717255,410.714630 493.212097,406.016083 
M506.259064,406.490387 
	C506.386017,406.016602 506.513000,405.542847 506.820496,404.395355 
	C505.171417,405.203186 504.872864,407.024475 503.261536,407.080994 
	C501.308777,407.149475 501.055939,404.598358 498.928436,404.704132 
	C497.744476,407.078522 498.703247,408.974884 500.741852,409.983063 
	C503.579590,411.386414 504.924011,409.241547 506.259064,406.490387 
z"/>
</svg>