<svg version="1.1" id="Layer_1" xmlns="http://www.w3.org/2000/svg" xmlns:xlink="http://www.w3.org/1999/xlink" x="0px" y="0px"
	 width="100%" viewBox="0 0 896 976" enable-background="new 0 0 896 976" xml:space="preserve">
<path fill="#ff99b48f" opacity="1.000000" stroke="none" 
	d="
M451.468658,977.000000 
	C448.674347,974.932068 445.575623,974.567688 442.858887,973.372986 
	C431.852142,968.532654 425.374512,958.202332 426.353058,946.296021 
	C426.536285,944.066528 425.843445,942.409729 424.685944,940.753296 
	C419.818909,933.788208 414.888763,926.866516 410.088989,919.855530 
	C408.329926,917.286255 406.230011,916.069092 403.004333,916.235413 
	C393.146545,916.743713 383.403381,915.638184 373.690887,913.932739 
	C368.521393,913.025085 363.513672,915.083374 358.405365,915.597595 
	C318.700165,919.594360 283.602112,909.022949 253.231934,882.971985 
	C243.308243,874.459595 234.737366,864.731567 226.895493,854.336060 
	C225.095810,851.950317 223.210892,850.574951 220.084900,850.026428 
	C202.302643,846.906311 184.923904,842.427307 169.113373,833.246399 
	C154.025970,824.485535 142.207779,813.039490 138.210220,795.295837 
	C133.750916,775.502686 147.279800,760.721130 167.437820,763.642944 
	C186.365128,766.386353 203.908920,773.970154 221.891571,779.984375 
	C228.523636,782.202393 235.078995,784.656616 241.744446,786.765869 
	C247.276047,788.516235 252.376099,785.602295 258.169464,785.402771 
	C256.678650,779.478333 254.544403,774.462769 254.497452,768.848145 
	C254.265778,741.138428 279.948242,722.082397 306.188965,730.988403 
	C310.298706,732.383301 311.934784,731.483398 314.009918,728.048706 
	C322.647766,713.751831 332.680817,700.472290 344.203674,688.345032 
	C345.214111,687.281555 346.495972,686.383118 346.967987,684.189087 
	C344.596497,683.051147 342.113373,681.837769 339.612061,680.663025 
	C325.591034,674.078491 311.521881,667.594177 297.572449,660.861511 
	C294.053986,659.163330 291.162445,658.393616 287.425354,660.639893 
	C283.728333,662.862000 279.411224,663.889771 274.924011,662.481018 
	C272.932190,661.855652 271.033905,662.328674 269.133453,663.226501 
	C260.553528,667.279724 251.650467,668.641357 242.428192,665.790344 
	C240.089706,665.067505 238.214157,665.709167 236.231613,666.669678 
	C226.951340,671.165466 217.792648,671.395752 208.402344,666.611877 
	C204.761658,664.757141 200.393448,664.392029 196.557739,662.848633 
	C173.429672,653.542297 163.593704,635.398438 168.592422,610.961670 
	C171.807281,595.245483 177.505661,580.538330 188.780792,568.690674 
	C201.278046,555.558899 217.343796,549.696289 234.800674,546.639709 
	C258.024170,542.573608 280.918579,545.672241 303.824890,549.220154 
	C305.117554,549.420349 306.403595,549.962769 307.687042,549.358887 
	C308.566681,548.616821 308.154053,547.800415 307.843719,547.062073 
	C300.162048,528.784790 298.961426,509.809082 300.428558,490.207336 
	C302.649780,460.530243 309.455292,432.042755 320.554291,404.557434 
	C328.053986,385.985413 337.116699,368.171570 348.596222,351.675354 
	C349.257111,350.725647 350.087555,349.859253 350.039368,348.051361 
	C341.421448,343.322144 332.540283,338.482483 324.160858,332.793793 
	C282.026886,304.189453 253.952621,265.244385 238.535919,216.898102 
	C230.566788,191.907196 226.889496,166.298019 227.864014,140.127106 
	C228.509995,122.778755 231.001999,105.667183 237.826874,89.463921 
	C248.990967,62.958683 272.208771,52.145203 299.750946,60.664944 
	C318.154724,66.357857 333.258911,76.941658 345.092316,92.018059 
	C390.566101,149.954086 434.864288,208.785553 478.602631,268.038727 
	C480.541199,270.664948 482.282593,271.549927 485.615906,270.963928 
	C497.749298,268.830902 510.096802,268.658234 522.295593,267.715454 
	C523.431152,265.518036 522.004822,263.972321 521.338562,262.410828 
	C501.982483,217.046677 481.679199,172.126236 458.125671,128.749100 
	C454.470337,122.017235 450.862335,115.200745 446.533478,108.903877 
	C429.388245,83.963791 438.850159,45.645477 478.729950,38.736343 
	C503.672699,34.415035 526.701782,39.641739 547.966492,53.102688 
	C579.963013,73.357117 602.783875,101.790619 620.475464,134.750488 
	C633.848877,159.665695 642.334473,186.216507 645.939575,214.214600 
	C649.247559,239.905106 647.495728,265.407104 641.013916,290.505646 
	C640.149780,293.851715 640.714111,295.548615 643.721558,297.337708 
	C685.797607,322.367981 708.723267,360.009827 716.369812,407.770203 
	C720.145020,431.350250 719.829529,454.828247 715.566895,478.277985 
	C714.940369,481.724731 716.632507,484.420441 717.817383,487.306000 
	C727.337769,510.491425 731.391663,534.330811 725.657593,559.111145 
	C717.853271,592.838135 696.516113,615.593872 666.446899,631.113464 
	C656.666748,636.161316 646.328491,639.788025 634.609497,643.458130 
	C643.049438,645.386475 650.317322,644.240417 657.474731,644.781128 
	C667.295593,645.523071 675.298584,643.904541 682.639465,635.661926 
	C692.801636,624.251465 705.819946,615.743286 721.414368,613.444214 
	C737.976013,611.002441 754.604980,612.570007 766.017090,626.177795 
	C774.103210,635.819824 780.203857,647.974976 781.319519,660.669922 
	C782.159180,670.224854 782.760010,679.945801 783.155884,689.594482 
	C783.559082,699.421997 777.388367,705.894165 769.223633,710.492126 
	C767.158447,711.655212 765.341675,712.769897 764.222534,715.076782 
	C757.247437,729.454407 744.746704,735.509644 729.696411,737.134216 
	C723.936523,737.756104 718.028870,737.800415 712.261169,736.620789 
	C710.027344,736.163940 708.445923,737.038635 706.797913,738.318298 
	C683.083740,756.731995 656.169128,767.628723 626.553955,771.741211 
	C603.909607,774.885681 581.335388,773.830688 559.082397,768.466919 
	C554.554688,767.375549 552.784119,768.441101 551.266907,772.817688 
	C541.241882,801.735779 525.860413,827.394653 503.870880,848.888855 
	C502.249542,850.473816 501.285278,852.168701 501.059814,854.505798 
	C500.566284,859.621643 499.787506,864.709961 499.064240,870.278931 
	C501.967468,869.694092 503.886505,867.843201 506.055450,866.544067 
	C523.454834,856.122498 541.474976,846.989502 561.843079,844.342712 
	C580.959106,841.858704 599.299683,843.781433 613.693237,858.745667 
	C630.380737,876.094604 631.841064,904.528992 617.229431,925.167480 
	C605.987671,941.046204 590.415527,951.361877 572.964111,959.122742 
	C554.445862,967.357971 535.096924,972.773132 515.021973,975.594360 
	C513.545105,975.801941 512.103394,976.259827 510.322632,976.800659 
	C490.645782,977.000000 471.291534,977.000000 451.468658,977.000000 
M657.159241,323.349274 
	C649.244812,316.657715 640.833008,310.665436 631.573914,305.990692 
	C590.560181,285.283539 546.806335,279.492584 501.519745,282.540436 
	C497.834534,282.788452 493.846283,282.603149 490.405273,284.488007 
	C490.405273,285.006042 490.305206,285.373291 490.420898,285.650543 
	C491.466827,288.157166 493.907257,290.852997 490.439789,293.112732 
	C487.085663,295.298584 485.269379,292.197693 483.427307,290.236969 
	C475.207062,281.487122 467.657288,272.157990 460.348663,262.649841 
	C428.469513,221.176743 396.678040,179.636261 364.836334,138.134338 
	C361.990540,134.425217 359.012970,130.817169 356.096619,127.162186 
	C355.475708,128.423492 355.557770,129.225327 355.798615,129.976196 
	C369.224792,171.830948 383.571136,213.373184 398.210693,254.815872 
	C403.812225,270.673035 409.468506,286.511475 414.948700,302.410553 
	C417.613739,310.142365 414.947357,313.623413 406.619568,313.901764 
	C404.124084,313.985168 401.601288,314.015686 399.147278,314.415680 
	C394.156036,315.229248 392.723450,317.748169 394.225647,322.530609 
	C395.082184,325.257568 396.474792,327.705994 397.923248,330.150635 
	C401.455688,336.112549 398.638580,341.074738 391.655487,341.289307 
	C390.656586,341.320007 389.655792,341.283142 388.656097,341.294403 
	C381.739899,341.372223 380.810577,342.383240 381.381073,349.195892 
	C381.848907,354.782532 379.027740,357.792542 373.487427,357.390381 
	C371.863037,357.272491 370.076965,356.956696 368.711823,356.146942 
	C364.628967,353.725311 362.388184,355.148560 359.888397,358.838623 
	C344.059784,382.203735 332.335693,407.479919 324.212646,434.442413 
	C318.383698,453.790070 315.346802,473.604279 313.614136,493.762268 
	C311.132599,522.632629 318.562958,547.776245 338.521423,569.039368 
	C356.205231,587.879150 377.879761,600.715576 401.354340,610.746094 
	C447.512695,630.469421 496.148804,638.065308 545.942383,639.638062 
	C564.282776,640.217407 582.579468,639.028687 600.754822,636.642395 
	C627.620911,633.115112 653.372620,626.033508 675.776306,610.019775 
	C700.654663,592.237122 714.326538,568.263306 714.736877,537.250732 
	C714.970886,519.559021 710.439880,502.991821 703.135559,487.072662 
	C701.909912,484.401489 701.227539,481.833405 701.799866,478.892120 
	C706.358093,455.464050 706.543152,431.953308 702.749573,408.424316 
	C697.378052,375.107788 683.514954,346.262054 657.159241,323.349274 
M553.283447,953.740356 
	C561.743286,950.656555 570.085083,947.291748 577.957886,942.886963 
	C589.865234,936.224915 600.590332,928.225464 607.986511,916.406189 
	C620.314941,896.705078 615.765625,872.477722 597.398804,861.451294 
	C586.158203,854.703064 573.744690,855.210938 561.427795,856.827698 
	C544.245483,859.083130 529.031128,866.690918 514.322144,875.355225 
	C497.777466,885.100647 482.696533,896.953552 467.271912,908.311829 
	C465.072571,909.931396 462.636780,913.652710 459.671204,910.579041 
	C456.552277,907.346252 460.255341,904.773376 462.201508,902.612793 
	C466.321869,898.038574 470.477692,893.401245 475.197083,889.486938 
	C480.505493,885.083984 483.968872,880.540344 485.579742,873.254883 
	C489.941864,853.526855 490.263336,834.203064 483.225128,815.229065 
	C473.692413,789.530273 454.888458,773.561279 429.067963,765.246765 
	C416.954742,761.346069 404.365875,759.918457 391.993683,757.359619 
	C389.120209,756.765381 384.178345,757.187683 384.443054,753.367859 
	C384.723999,749.312805 389.715820,750.218201 392.779694,749.948364 
	C408.476685,748.565796 423.629639,751.401306 438.444580,756.440857 
	C470.143036,767.223633 490.014465,788.958923 498.451660,821.265503 
	C499.429413,825.009338 500.266174,828.789978 501.343292,833.283508 
	C503.435150,831.064941 504.990723,829.580139 506.359131,827.939270 
	C529.808716,799.822021 544.398499,767.509583 551.687012,731.782043 
	C553.515625,722.818665 555.045776,713.794128 556.697937,704.794922 
	C556.977234,703.273499 557.234924,701.659790 559.183594,701.595520 
	C561.374817,701.523254 561.867004,703.214600 562.101074,704.947144 
	C562.234375,705.934021 562.237427,706.941284 562.257751,707.940186 
	C562.536743,721.648621 561.613647,735.275024 558.159058,748.564270 
	C556.926147,753.307068 557.965149,754.976379 562.746338,755.947083 
	C583.305420,760.121033 603.933655,761.667847 624.778137,758.692627 
	C652.925964,754.675049 678.393921,744.245361 700.536255,726.290222 
	C704.301636,723.236877 707.900269,722.173035 712.451172,723.112549 
	C718.219727,724.303528 724.095886,724.186401 729.885498,723.606506 
	C737.408264,722.853027 744.200439,720.313416 749.344849,713.537476 
	C740.689575,710.534241 736.677856,704.420166 735.968140,696.399109 
	C735.531250,691.461304 732.211121,689.104248 729.538879,685.880310 
	C727.720642,687.403931 728.235901,689.265198 727.815430,690.802734 
	C725.623352,698.819519 720.693665,704.270752 712.813049,706.848389 
	C710.741394,707.525940 707.970703,708.626404 706.670349,705.680542 
	C705.414551,702.835510 708.137451,702.066528 709.889893,700.946533 
	C717.598145,696.020264 719.624573,690.278625 716.546936,681.715027 
	C715.873962,679.842407 714.972961,678.042053 714.066284,676.264893 
	C711.455261,671.147522 712.094604,668.901245 717.321472,666.349365 
	C721.579102,664.270630 725.492737,661.820068 728.220337,657.845032 
	C729.238525,656.361145 730.756104,654.759949 729.980652,652.895691 
	C729.150635,650.900208 726.901917,651.241089 725.119080,651.125793 
	C717.149841,650.610535 709.585632,652.476257 702.123596,655.037598 
	C699.612671,655.899475 697.024597,656.054260 695.837769,652.938110 
	C694.725952,650.018921 696.182678,648.229004 698.793945,646.999939 
	C707.025330,643.125671 715.654907,640.455444 724.739624,640.411011 
	C729.105652,640.389648 732.933533,640.734497 735.669861,636.547363 
	C736.475891,635.313843 738.049500,634.705444 739.673218,635.610229 
	C741.274414,636.502380 741.753540,638.155701 741.009033,639.463440 
	C738.827698,643.295105 739.884277,646.725586 741.531067,650.320801 
	C742.621521,652.701172 742.267944,655.283936 741.367188,657.655701 
	C739.655579,662.162537 742.309021,663.273132 745.872070,663.669800 
	C748.490601,663.961304 750.997803,663.191833 752.812256,661.404724 
	C762.575378,651.788635 765.013855,637.114807 749.508728,629.925964 
	C737.630676,624.418884 725.341492,624.311646 713.232239,629.818237 
	C701.279480,635.253784 691.989197,644.054260 683.392944,653.663208 
	C681.002075,656.335693 678.338013,657.834412 674.777588,657.949524 
	C652.938110,658.655701 631.148987,658.144653 609.395874,655.862183 
	C597.172974,654.579590 585.139404,651.286926 572.683838,652.368835 
	C560.207520,653.452515 547.739746,653.011292 535.238220,652.480835 
	C489.127106,650.524536 444.306030,642.288879 401.346893,625.156372 
	C370.461182,612.838806 342.550262,596.030762 321.391937,569.617004 
	C320.107391,568.013428 318.732849,566.779480 316.613434,566.286682 
	C290.667236,560.254578 264.504425,556.643127 237.875336,560.351501 
	C224.702393,562.186035 211.854614,565.950317 201.946609,575.262817 
	C188.159393,588.221375 182.128189,605.022278 181.467667,623.650574 
	C181.205246,631.051880 183.758057,637.833374 190.723312,643.439026 
	C188.786880,636.094910 187.902924,629.679688 189.987274,623.304504 
	C190.542343,621.606750 190.257843,618.706665 193.036438,618.873047 
	C195.377426,619.013184 195.074570,621.536621 195.540283,623.226990 
	C198.787872,635.014465 203.665100,645.790283 213.897751,653.338623 
	C218.163895,656.485596 222.596085,656.667053 227.770538,654.882690 
	C224.723068,648.588501 221.962143,642.696411 221.763687,636.064697 
	C221.696304,633.812744 221.044128,630.918884 224.118362,630.227783 
	C226.911789,629.599976 227.579758,632.268921 228.399719,634.217102 
	C230.303268,638.739685 233.111420,642.661011 236.416382,646.212463 
	C243.034210,653.323792 253.429199,655.346130 260.389984,650.805908 
	C259.979706,649.803101 259.577423,648.736938 259.113281,647.698547 
	C255.750076,640.173523 253.957321,632.244873 253.017914,624.095093 
	C252.979782,623.764282 252.944443,623.432190 252.929245,623.099792 
	C252.797058,620.209229 253.374664,617.584595 256.651642,616.924500 
	C259.786346,616.293091 261.075134,618.570496 262.002228,621.052368 
	C264.855499,628.690674 267.298218,636.543457 271.976257,643.327087 
	C276.928467,650.508118 281.305450,650.559082 287.067383,643.906128 
	C291.611908,638.658752 294.019531,632.190674 297.358398,626.250610 
	C298.837738,623.618774 299.088226,618.630188 303.740112,620.239136 
	C308.235352,621.793945 306.221527,626.224487 305.826935,629.449280 
	C305.426636,632.720764 304.315460,635.917664 303.379974,639.107361 
	C302.639740,641.631348 301.694244,644.095154 300.791870,646.725647 
	C302.011230,647.499756 302.934509,648.177917 303.936218,648.707947 
	C317.336517,655.799072 330.757996,662.850220 344.152252,669.952698 
	C351.220215,673.700684 358.177032,677.645020 364.776978,682.185486 
	C366.388123,683.293945 367.490967,684.705078 367.061584,686.795959 
	C366.673401,688.686157 365.202393,689.990112 363.522522,689.681396 
	C360.002014,689.034302 358.360748,691.403931 356.411591,693.362854 
	C338.006439,711.860229 323.360077,732.988892 312.602173,756.746216 
	C303.718353,776.364868 297.497406,796.517212 300.017914,818.576355 
	C304.290070,855.964722 324.199707,881.487732 358.277191,896.423279 
	C373.407227,903.054443 389.398407,904.880676 405.726471,903.760681 
	C411.137115,903.389587 414.898743,904.801025 417.810028,909.596680 
	C421.174042,915.138062 425.220825,920.263855 428.944824,925.588501 
	C430.216187,927.406250 431.176483,928.824158 434.117645,927.947021 
	C438.781494,926.556091 440.977600,929.153137 439.823914,934.040894 
	C439.174438,936.792480 438.244904,939.483093 437.691101,942.251160 
	C435.947510,950.966125 439.233002,958.658264 446.329529,962.264282 
	C451.273560,964.776611 456.600647,966.280518 462.125000,966.626831 
	C493.115875,968.569458 523.210144,963.948853 553.283447,953.740356 
M631.913391,210.380829 
	C631.762878,208.889893 631.735229,207.374466 631.444031,205.911530 
	C621.014038,153.511017 596.756470,109.027908 555.382019,74.644691 
	C534.810669,57.549358 511.692169,48.013847 484.014801,51.115788 
	C455.511200,54.310314 443.027649,78.909294 458.205872,103.209328 
	C463.846252,112.239426 469.043030,121.568062 474.044647,130.971954 
	C497.050293,174.226410 517.220581,218.818115 536.247986,263.935974 
	C537.650452,267.261597 539.410889,268.712799 543.169373,268.992462 
	C561.954529,270.390167 580.491333,273.392639 598.668518,278.473602 
	C608.272339,281.158112 617.586670,284.665985 627.637329,288.724548 
	C634.917236,262.861237 635.359558,237.186188 631.913391,210.380829 
M338.751129,116.706329 
	C337.124298,113.058556 335.397583,109.451614 333.887604,105.756096 
	C326.518005,87.719933 312.335938,77.876907 294.181793,73.098732 
	C282.596375,70.049461 271.305084,70.477875 261.570709,78.654091 
	C254.854294,84.295464 250.870651,91.808563 248.298264,100.021660 
	C240.275192,125.637665 239.513657,151.825867 243.613205,178.089218 
	C251.679550,229.765411 274.091339,273.874268 314.158478,308.293701 
	C329.172455,321.191376 345.865997,331.467957 363.887115,339.610413 
	C365.378967,340.284485 367.159149,341.381561 368.131958,339.090759 
	C370.624176,333.222015 375.762909,330.558105 381.081665,328.410706 
	C379.817474,310.004547 379.817474,310.004547 399.191895,299.847473 
	C399.280518,297.840790 398.572052,295.978912 397.893280,294.112244 
	C385.548187,260.163818 374.031036,225.931168 362.513855,191.695465 
	C354.233063,167.080307 347.832855,141.875641 338.751129,116.706329 
M320.582672,886.931213 
	C299.179810,866.029297 288.297089,840.451904 286.937775,810.729858 
	C286.787201,807.437988 286.097412,805.482239 282.529663,804.786072 
	C278.581787,804.015625 274.839691,802.238892 271.748993,799.721497 
	C268.406036,796.998657 265.116577,796.788330 261.104584,797.657288 
	C250.973389,799.851562 241.058945,800.857117 230.796906,796.694031 
	C216.772842,791.004761 202.281891,786.449646 187.924606,781.605347 
	C180.035355,778.943420 172.016068,776.535583 163.646301,776.010376 
	C153.973831,775.403320 148.326508,782.084412 150.213272,791.500122 
	C152.395050,802.388000 158.653595,810.604065 167.363144,817.018921 
	C182.474426,828.148804 199.849319,833.853760 218.127136,836.632507 
	C226.416962,837.892700 233.699310,839.529419 237.728058,847.846436 
	C238.791901,850.042542 240.714050,851.836609 242.309341,853.759460 
	C261.783325,877.231079 285.406433,894.322998 315.638916,901.081787 
	C324.349213,903.029053 333.202271,903.936890 343.652679,903.603394 
	C334.796204,898.391663 327.576385,893.402771 320.582672,886.931213 
M273.343079,749.844055 
	C265.859375,758.854187 264.864594,768.933044 269.489868,779.308167 
	C272.896484,786.949646 279.139618,791.634827 288.076202,793.192444 
	C291.013000,775.634949 297.796936,759.808594 304.645935,744.153503 
	C294.330902,738.607483 282.452362,740.787842 273.343079,749.844055 
M761.619141,670.220337 
	C755.575134,675.350891 748.647583,676.941040 740.784973,674.601135 
	C742.020447,681.067932 744.347046,683.506226 748.962158,683.795959 
	C758.482727,684.393738 769.059448,673.215576 768.091187,664.620178 
	C766.406494,666.072327 764.279175,667.905945 761.619141,670.220337 
M762.956116,693.632690 
	C759.178528,695.865662 754.937927,696.976685 750.089233,697.912537 
	C756.876770,703.625488 767.605347,698.670654 769.579102,689.965637 
	C769.272278,690.023315 768.925476,690.001343 768.680420,690.148682 
	C766.975098,691.173401 765.290833,692.233215 762.956116,693.632690 
z"/>
<path fill="#ff99b48f" opacity="1.000000" stroke="none" 
	d="
M512.779175,490.720612 
	C497.170715,506.922729 478.167542,508.759888 462.945099,494.973511 
	C450.005768,483.254883 446.826721,468.071655 451.280426,451.630585 
	C455.257751,436.948273 464.637390,426.806702 479.956512,423.456207 
	C499.840576,419.107330 520.150452,435.223083 522.204224,456.703766 
	C523.388916,469.095276 520.990845,480.539856 512.779175,490.720612 
M468.504517,443.960449 
	C459.598602,452.002808 462.928070,465.593018 470.648193,469.661896 
	C476.830750,472.920380 483.483612,471.290344 487.825470,465.479584 
	C492.528748,459.185120 491.977722,450.020355 486.560364,444.439117 
	C481.618561,439.347870 475.528107,439.014282 468.504517,443.960449 
z"/>
<path fill="#ff99b48f" opacity="1.000000" stroke="none" 
	d="
M570.870789,571.210083 
	C560.708618,575.488281 552.200317,572.736450 546.373840,563.794922 
	C539.469666,553.199524 536.702271,541.241333 534.854736,529.024719 
	C533.737915,521.639954 533.393311,514.130127 528.701111,507.788910 
	C527.936157,506.755157 527.613831,505.367279 527.202087,504.105499 
	C526.704041,502.579102 526.765198,501.032196 528.226074,500.071503 
	C529.952148,498.936401 531.427368,499.721680 532.582031,501.142242 
	C536.172791,505.559784 540.045105,509.633514 545.109131,512.434021 
	C553.307739,516.967957 566.833679,515.732971 573.850464,509.733551 
	C578.757141,505.538300 578.720642,503.872528 573.302368,500.533905 
	C568.722839,497.712097 564.603699,494.380768 561.117615,490.306305 
	C558.981140,487.809204 557.535889,484.965271 558.966003,481.596283 
	C560.377380,478.271515 563.469604,478.064392 566.518860,477.825653 
	C576.144775,477.071899 585.763428,476.463348 595.398804,477.758789 
	C599.011536,478.244537 603.064819,477.983307 604.915527,481.944641 
	C606.737549,485.844635 604.301270,489.015259 602.222900,492.026764 
	C599.252563,496.330719 595.384399,499.711731 590.937134,502.456024 
	C589.682007,503.230469 588.318542,503.867035 587.498718,505.252960 
	C583.943909,511.262421 585.452209,515.187134 592.186768,517.305542 
	C600.414551,519.893677 607.221252,516.947998 611.309021,508.981079 
	C611.990784,507.652527 612.490295,506.230896 613.082642,504.855988 
	C613.802856,503.184113 614.899597,501.950867 616.891602,502.460693 
	C618.873901,502.968048 619.238037,504.555786 619.115356,506.383636 
	C618.451538,516.276855 609.789856,525.834229 599.755371,527.135437 
	C596.755371,527.524475 595.940857,529.171570 594.418457,531.296753 
	C588.418518,539.672302 586.132080,549.636047 581.890076,558.743286 
	C579.517761,563.836365 575.803406,567.833008 570.870789,571.210083 
M550.872559,537.314514 
	C546.895569,537.584900 545.658630,539.420349 547.064331,543.295410 
	C548.887085,548.320007 550.856689,553.243958 553.883179,557.683228 
	C558.389404,564.292969 565.716675,564.352844 570.352905,557.820984 
	C575.230286,550.949341 574.870422,548.606628 568.315002,543.223572 
	C563.463989,539.240112 557.761353,537.765076 550.872559,537.314514 
M579.422485,522.362305 
	C577.131470,520.771240 575.850342,523.124207 574.111206,523.709656 
	C570.204102,525.024902 569.445557,527.542908 571.318359,531.017273 
	C573.193237,534.495544 576.051758,535.522522 579.661499,533.941101 
	C585.957886,531.182617 586.029602,527.276367 579.422485,522.362305 
z"/>
<path fill="#ff99b48f" opacity="1.000000" stroke="none" 
	d="
M670.671021,442.294189 
	C687.570007,458.505554 686.643982,487.870361 669.049011,502.688477 
	C656.815247,512.991455 639.832947,511.469727 628.796997,499.081482 
	C615.646545,484.319672 616.282959,458.196777 630.134827,444.171539 
	C642.166504,431.989227 657.175537,431.204041 670.671021,442.294189 
M632.396057,460.063049 
	C632.063660,461.521240 631.561218,462.963959 631.427246,464.440155 
	C630.708496,472.358795 637.303345,480.281769 643.903259,479.527222 
	C649.988525,478.831512 654.554260,473.475250 655.302063,466.154602 
	C655.952026,459.791534 652.246399,453.390625 646.925293,451.685150 
	C641.046875,449.801056 636.411804,452.284393 632.396057,460.063049 
z"/>
<path fill="#ff99b48f" opacity="1.000000" stroke="none" 
	d="
M542.216980,578.827881 
	C551.618713,585.642578 561.360535,584.023804 571.249695,581.377991 
	C574.078064,580.621277 577.890686,577.615662 579.736389,581.431335 
	C581.735718,585.564819 576.839661,586.841370 574.318604,588.417114 
	C565.894897,593.682129 556.743469,595.501892 547.080444,592.316040 
	C539.989319,589.978271 535.311218,584.967957 532.700134,578.037598 
	C532.115906,576.487000 531.622864,574.698364 533.434387,573.531738 
	C535.112976,572.450623 536.199951,573.816223 537.333252,574.755371 
	C538.871887,576.030457 540.399109,577.319336 542.216980,578.827881 
z"/>
</svg>